G04 #@! TF.GenerationSoftware,KiCad,Pcbnew,5.1.6-c6e7f7d~87~ubuntu19.10.1*
G04 #@! TF.CreationDate,2021-08-02T21:19:55-04:00*
G04 #@! TF.ProjectId,upconverter,7570636f-6e76-4657-9274-65722e6b6963,rev?*
G04 #@! TF.SameCoordinates,Original*
G04 #@! TF.FileFunction,Copper,L1,Top*
G04 #@! TF.FilePolarity,Positive*
%FSLAX46Y46*%
G04 Gerber Fmt 4.6, Leading zero omitted, Abs format (unit mm)*
G04 Created by KiCad (PCBNEW 5.1.6-c6e7f7d~87~ubuntu19.10.1) date 2021-08-02 21:19:55*
%MOMM*%
%LPD*%
G01*
G04 APERTURE LIST*
G04 #@! TA.AperFunction,ComponentPad*
%ADD10C,1.950000*%
G04 #@! TD*
G04 #@! TA.AperFunction,ComponentPad*
%ADD11C,2.250000*%
G04 #@! TD*
G04 #@! TA.AperFunction,ComponentPad*
%ADD12C,2.050000*%
G04 #@! TD*
G04 #@! TA.AperFunction,SMDPad,CuDef*
%ADD13R,2.500000X2.300000*%
G04 #@! TD*
G04 #@! TA.AperFunction,ComponentPad*
%ADD14R,1.800000X1.800000*%
G04 #@! TD*
G04 #@! TA.AperFunction,ComponentPad*
%ADD15C,1.800000*%
G04 #@! TD*
G04 #@! TA.AperFunction,ComponentPad*
%ADD16O,2.000000X4.500000*%
G04 #@! TD*
G04 #@! TA.AperFunction,ComponentPad*
%ADD17O,2.000000X4.000000*%
G04 #@! TD*
G04 #@! TA.AperFunction,ComponentPad*
%ADD18O,4.000000X2.000000*%
G04 #@! TD*
G04 #@! TA.AperFunction,ComponentPad*
%ADD19R,1.905000X2.000000*%
G04 #@! TD*
G04 #@! TA.AperFunction,ComponentPad*
%ADD20O,1.905000X2.000000*%
G04 #@! TD*
G04 #@! TA.AperFunction,SMDPad,CuDef*
%ADD21R,0.400000X0.650000*%
G04 #@! TD*
G04 #@! TA.AperFunction,SMDPad,CuDef*
%ADD22R,1.800000X2.000000*%
G04 #@! TD*
G04 #@! TA.AperFunction,ViaPad*
%ADD23C,0.800000*%
G04 #@! TD*
G04 #@! TA.AperFunction,Conductor*
%ADD24C,0.500000*%
G04 #@! TD*
G04 #@! TA.AperFunction,Conductor*
%ADD25C,0.750000*%
G04 #@! TD*
G04 #@! TA.AperFunction,Conductor*
%ADD26C,1.500000*%
G04 #@! TD*
G04 #@! TA.AperFunction,Conductor*
%ADD27C,1.000000*%
G04 #@! TD*
G04 #@! TA.AperFunction,Conductor*
%ADD28C,0.250000*%
G04 #@! TD*
G04 #@! TA.AperFunction,Conductor*
%ADD29C,0.254000*%
G04 #@! TD*
G04 APERTURE END LIST*
G04 #@! TA.AperFunction,SMDPad,CuDef*
G36*
G01*
X83660000Y-93464000D02*
X82710000Y-93464000D01*
G75*
G02*
X82460000Y-93214000I0J250000D01*
G01*
X82460000Y-92714000D01*
G75*
G02*
X82710000Y-92464000I250000J0D01*
G01*
X83660000Y-92464000D01*
G75*
G02*
X83910000Y-92714000I0J-250000D01*
G01*
X83910000Y-93214000D01*
G75*
G02*
X83660000Y-93464000I-250000J0D01*
G01*
G37*
G04 #@! TD.AperFunction*
G04 #@! TA.AperFunction,SMDPad,CuDef*
G36*
G01*
X83660000Y-95364000D02*
X82710000Y-95364000D01*
G75*
G02*
X82460000Y-95114000I0J250000D01*
G01*
X82460000Y-94614000D01*
G75*
G02*
X82710000Y-94364000I250000J0D01*
G01*
X83660000Y-94364000D01*
G75*
G02*
X83910000Y-94614000I0J-250000D01*
G01*
X83910000Y-95114000D01*
G75*
G02*
X83660000Y-95364000I-250000J0D01*
G01*
G37*
G04 #@! TD.AperFunction*
G04 #@! TA.AperFunction,SMDPad,CuDef*
G36*
G01*
X57527000Y-74872000D02*
X57027000Y-74872000D01*
G75*
G02*
X56802000Y-74647000I0J225000D01*
G01*
X56802000Y-74197000D01*
G75*
G02*
X57027000Y-73972000I225000J0D01*
G01*
X57527000Y-73972000D01*
G75*
G02*
X57752000Y-74197000I0J-225000D01*
G01*
X57752000Y-74647000D01*
G75*
G02*
X57527000Y-74872000I-225000J0D01*
G01*
G37*
G04 #@! TD.AperFunction*
G04 #@! TA.AperFunction,SMDPad,CuDef*
G36*
G01*
X57527000Y-76422000D02*
X57027000Y-76422000D01*
G75*
G02*
X56802000Y-76197000I0J225000D01*
G01*
X56802000Y-75747000D01*
G75*
G02*
X57027000Y-75522000I225000J0D01*
G01*
X57527000Y-75522000D01*
G75*
G02*
X57752000Y-75747000I0J-225000D01*
G01*
X57752000Y-76197000D01*
G75*
G02*
X57527000Y-76422000I-225000J0D01*
G01*
G37*
G04 #@! TD.AperFunction*
G04 #@! TA.AperFunction,SMDPad,CuDef*
G36*
G01*
X54609750Y-76016500D02*
X55372250Y-76016500D01*
G75*
G02*
X55591000Y-76235250I0J-218750D01*
G01*
X55591000Y-76672750D01*
G75*
G02*
X55372250Y-76891500I-218750J0D01*
G01*
X54609750Y-76891500D01*
G75*
G02*
X54391000Y-76672750I0J218750D01*
G01*
X54391000Y-76235250D01*
G75*
G02*
X54609750Y-76016500I218750J0D01*
G01*
G37*
G04 #@! TD.AperFunction*
G04 #@! TA.AperFunction,SMDPad,CuDef*
G36*
G01*
X54609750Y-73891500D02*
X55372250Y-73891500D01*
G75*
G02*
X55591000Y-74110250I0J-218750D01*
G01*
X55591000Y-74547750D01*
G75*
G02*
X55372250Y-74766500I-218750J0D01*
G01*
X54609750Y-74766500D01*
G75*
G02*
X54391000Y-74547750I0J218750D01*
G01*
X54391000Y-74110250D01*
G75*
G02*
X54609750Y-73891500I218750J0D01*
G01*
G37*
G04 #@! TD.AperFunction*
G04 #@! TA.AperFunction,SMDPad,CuDef*
G36*
G01*
X58673750Y-75762500D02*
X59436250Y-75762500D01*
G75*
G02*
X59655000Y-75981250I0J-218750D01*
G01*
X59655000Y-76418750D01*
G75*
G02*
X59436250Y-76637500I-218750J0D01*
G01*
X58673750Y-76637500D01*
G75*
G02*
X58455000Y-76418750I0J218750D01*
G01*
X58455000Y-75981250D01*
G75*
G02*
X58673750Y-75762500I218750J0D01*
G01*
G37*
G04 #@! TD.AperFunction*
G04 #@! TA.AperFunction,SMDPad,CuDef*
G36*
G01*
X58673750Y-73637500D02*
X59436250Y-73637500D01*
G75*
G02*
X59655000Y-73856250I0J-218750D01*
G01*
X59655000Y-74293750D01*
G75*
G02*
X59436250Y-74512500I-218750J0D01*
G01*
X58673750Y-74512500D01*
G75*
G02*
X58455000Y-74293750I0J218750D01*
G01*
X58455000Y-73856250D01*
G75*
G02*
X58673750Y-73637500I218750J0D01*
G01*
G37*
G04 #@! TD.AperFunction*
G04 #@! TA.AperFunction,SMDPad,CuDef*
G36*
G01*
X61721750Y-77794500D02*
X62484250Y-77794500D01*
G75*
G02*
X62703000Y-78013250I0J-218750D01*
G01*
X62703000Y-78450750D01*
G75*
G02*
X62484250Y-78669500I-218750J0D01*
G01*
X61721750Y-78669500D01*
G75*
G02*
X61503000Y-78450750I0J218750D01*
G01*
X61503000Y-78013250D01*
G75*
G02*
X61721750Y-77794500I218750J0D01*
G01*
G37*
G04 #@! TD.AperFunction*
G04 #@! TA.AperFunction,SMDPad,CuDef*
G36*
G01*
X61721750Y-75669500D02*
X62484250Y-75669500D01*
G75*
G02*
X62703000Y-75888250I0J-218750D01*
G01*
X62703000Y-76325750D01*
G75*
G02*
X62484250Y-76544500I-218750J0D01*
G01*
X61721750Y-76544500D01*
G75*
G02*
X61503000Y-76325750I0J218750D01*
G01*
X61503000Y-75888250D01*
G75*
G02*
X61721750Y-75669500I218750J0D01*
G01*
G37*
G04 #@! TD.AperFunction*
G04 #@! TA.AperFunction,SMDPad,CuDef*
G36*
G01*
X52484000Y-75954000D02*
X53434000Y-75954000D01*
G75*
G02*
X53684000Y-76204000I0J-250000D01*
G01*
X53684000Y-76704000D01*
G75*
G02*
X53434000Y-76954000I-250000J0D01*
G01*
X52484000Y-76954000D01*
G75*
G02*
X52234000Y-76704000I0J250000D01*
G01*
X52234000Y-76204000D01*
G75*
G02*
X52484000Y-75954000I250000J0D01*
G01*
G37*
G04 #@! TD.AperFunction*
G04 #@! TA.AperFunction,SMDPad,CuDef*
G36*
G01*
X52484000Y-74054000D02*
X53434000Y-74054000D01*
G75*
G02*
X53684000Y-74304000I0J-250000D01*
G01*
X53684000Y-74804000D01*
G75*
G02*
X53434000Y-75054000I-250000J0D01*
G01*
X52484000Y-75054000D01*
G75*
G02*
X52234000Y-74804000I0J250000D01*
G01*
X52234000Y-74304000D01*
G75*
G02*
X52484000Y-74054000I250000J0D01*
G01*
G37*
G04 #@! TD.AperFunction*
G04 #@! TA.AperFunction,SMDPad,CuDef*
G36*
G01*
X59621000Y-78482000D02*
X59621000Y-77982000D01*
G75*
G02*
X59846000Y-77757000I225000J0D01*
G01*
X60296000Y-77757000D01*
G75*
G02*
X60521000Y-77982000I0J-225000D01*
G01*
X60521000Y-78482000D01*
G75*
G02*
X60296000Y-78707000I-225000J0D01*
G01*
X59846000Y-78707000D01*
G75*
G02*
X59621000Y-78482000I0J225000D01*
G01*
G37*
G04 #@! TD.AperFunction*
G04 #@! TA.AperFunction,SMDPad,CuDef*
G36*
G01*
X58071000Y-78482000D02*
X58071000Y-77982000D01*
G75*
G02*
X58296000Y-77757000I225000J0D01*
G01*
X58746000Y-77757000D01*
G75*
G02*
X58971000Y-77982000I0J-225000D01*
G01*
X58971000Y-78482000D01*
G75*
G02*
X58746000Y-78707000I-225000J0D01*
G01*
X58296000Y-78707000D01*
G75*
G02*
X58071000Y-78482000I0J225000D01*
G01*
G37*
G04 #@! TD.AperFunction*
G04 #@! TA.AperFunction,SMDPad,CuDef*
G36*
G01*
X64520000Y-77033000D02*
X65020000Y-77033000D01*
G75*
G02*
X65245000Y-77258000I0J-225000D01*
G01*
X65245000Y-77708000D01*
G75*
G02*
X65020000Y-77933000I-225000J0D01*
G01*
X64520000Y-77933000D01*
G75*
G02*
X64295000Y-77708000I0J225000D01*
G01*
X64295000Y-77258000D01*
G75*
G02*
X64520000Y-77033000I225000J0D01*
G01*
G37*
G04 #@! TD.AperFunction*
G04 #@! TA.AperFunction,SMDPad,CuDef*
G36*
G01*
X64520000Y-75483000D02*
X65020000Y-75483000D01*
G75*
G02*
X65245000Y-75708000I0J-225000D01*
G01*
X65245000Y-76158000D01*
G75*
G02*
X65020000Y-76383000I-225000J0D01*
G01*
X64520000Y-76383000D01*
G75*
G02*
X64295000Y-76158000I0J225000D01*
G01*
X64295000Y-75708000D01*
G75*
G02*
X64520000Y-75483000I225000J0D01*
G01*
G37*
G04 #@! TD.AperFunction*
D10*
X68319000Y-68700000D03*
X68319000Y-83700000D03*
X83319000Y-68700000D03*
X83319000Y-83700000D03*
X106158000Y-68700000D03*
X106158000Y-83700000D03*
X121158000Y-68700000D03*
X121158000Y-83700000D03*
D11*
X49530000Y-73660000D03*
X49530000Y-78740000D03*
X44450000Y-78740000D03*
X44450000Y-73660000D03*
D12*
X46990000Y-76200000D03*
G04 #@! TA.AperFunction,SMDPad,CuDef*
G36*
G01*
X68503500Y-98881250D02*
X68503500Y-97968750D01*
G75*
G02*
X68747250Y-97725000I243750J0D01*
G01*
X69234750Y-97725000D01*
G75*
G02*
X69478500Y-97968750I0J-243750D01*
G01*
X69478500Y-98881250D01*
G75*
G02*
X69234750Y-99125000I-243750J0D01*
G01*
X68747250Y-99125000D01*
G75*
G02*
X68503500Y-98881250I0J243750D01*
G01*
G37*
G04 #@! TD.AperFunction*
G04 #@! TA.AperFunction,SMDPad,CuDef*
G36*
G01*
X70378500Y-98881250D02*
X70378500Y-97968750D01*
G75*
G02*
X70622250Y-97725000I243750J0D01*
G01*
X71109750Y-97725000D01*
G75*
G02*
X71353500Y-97968750I0J-243750D01*
G01*
X71353500Y-98881250D01*
G75*
G02*
X71109750Y-99125000I-243750J0D01*
G01*
X70622250Y-99125000D01*
G75*
G02*
X70378500Y-98881250I0J243750D01*
G01*
G37*
G04 #@! TD.AperFunction*
G04 #@! TA.AperFunction,SMDPad,CuDef*
G36*
G01*
X129717500Y-76656250D02*
X129717500Y-75743750D01*
G75*
G02*
X129961250Y-75500000I243750J0D01*
G01*
X130448750Y-75500000D01*
G75*
G02*
X130692500Y-75743750I0J-243750D01*
G01*
X130692500Y-76656250D01*
G75*
G02*
X130448750Y-76900000I-243750J0D01*
G01*
X129961250Y-76900000D01*
G75*
G02*
X129717500Y-76656250I0J243750D01*
G01*
G37*
G04 #@! TD.AperFunction*
G04 #@! TA.AperFunction,SMDPad,CuDef*
G36*
G01*
X131592500Y-76656250D02*
X131592500Y-75743750D01*
G75*
G02*
X131836250Y-75500000I243750J0D01*
G01*
X132323750Y-75500000D01*
G75*
G02*
X132567500Y-75743750I0J-243750D01*
G01*
X132567500Y-76656250D01*
G75*
G02*
X132323750Y-76900000I-243750J0D01*
G01*
X131836250Y-76900000D01*
G75*
G02*
X131592500Y-76656250I0J243750D01*
G01*
G37*
G04 #@! TD.AperFunction*
G04 #@! TA.AperFunction,SMDPad,CuDef*
G36*
G01*
X128961500Y-74927750D02*
X128961500Y-75440250D01*
G75*
G02*
X128742750Y-75659000I-218750J0D01*
G01*
X128305250Y-75659000D01*
G75*
G02*
X128086500Y-75440250I0J218750D01*
G01*
X128086500Y-74927750D01*
G75*
G02*
X128305250Y-74709000I218750J0D01*
G01*
X128742750Y-74709000D01*
G75*
G02*
X128961500Y-74927750I0J-218750D01*
G01*
G37*
G04 #@! TD.AperFunction*
G04 #@! TA.AperFunction,SMDPad,CuDef*
G36*
G01*
X127386500Y-74927750D02*
X127386500Y-75440250D01*
G75*
G02*
X127167750Y-75659000I-218750J0D01*
G01*
X126730250Y-75659000D01*
G75*
G02*
X126511500Y-75440250I0J218750D01*
G01*
X126511500Y-74927750D01*
G75*
G02*
X126730250Y-74709000I218750J0D01*
G01*
X127167750Y-74709000D01*
G75*
G02*
X127386500Y-74927750I0J-218750D01*
G01*
G37*
G04 #@! TD.AperFunction*
G04 #@! TA.AperFunction,SMDPad,CuDef*
G36*
G01*
X73161500Y-97968750D02*
X73161500Y-98881250D01*
G75*
G02*
X72917750Y-99125000I-243750J0D01*
G01*
X72430250Y-99125000D01*
G75*
G02*
X72186500Y-98881250I0J243750D01*
G01*
X72186500Y-97968750D01*
G75*
G02*
X72430250Y-97725000I243750J0D01*
G01*
X72917750Y-97725000D01*
G75*
G02*
X73161500Y-97968750I0J-243750D01*
G01*
G37*
G04 #@! TD.AperFunction*
G04 #@! TA.AperFunction,SMDPad,CuDef*
G36*
G01*
X75036500Y-97968750D02*
X75036500Y-98881250D01*
G75*
G02*
X74792750Y-99125000I-243750J0D01*
G01*
X74305250Y-99125000D01*
G75*
G02*
X74061500Y-98881250I0J243750D01*
G01*
X74061500Y-97968750D01*
G75*
G02*
X74305250Y-97725000I243750J0D01*
G01*
X74792750Y-97725000D01*
G75*
G02*
X75036500Y-97968750I0J-243750D01*
G01*
G37*
G04 #@! TD.AperFunction*
G04 #@! TA.AperFunction,SMDPad,CuDef*
G36*
G01*
X125224250Y-75850000D02*
X124711750Y-75850000D01*
G75*
G02*
X124493000Y-75631250I0J218750D01*
G01*
X124493000Y-75193750D01*
G75*
G02*
X124711750Y-74975000I218750J0D01*
G01*
X125224250Y-74975000D01*
G75*
G02*
X125443000Y-75193750I0J-218750D01*
G01*
X125443000Y-75631250D01*
G75*
G02*
X125224250Y-75850000I-218750J0D01*
G01*
G37*
G04 #@! TD.AperFunction*
G04 #@! TA.AperFunction,SMDPad,CuDef*
G36*
G01*
X125224250Y-77425000D02*
X124711750Y-77425000D01*
G75*
G02*
X124493000Y-77206250I0J218750D01*
G01*
X124493000Y-76768750D01*
G75*
G02*
X124711750Y-76550000I218750J0D01*
G01*
X125224250Y-76550000D01*
G75*
G02*
X125443000Y-76768750I0J-218750D01*
G01*
X125443000Y-77206250D01*
G75*
G02*
X125224250Y-77425000I-218750J0D01*
G01*
G37*
G04 #@! TD.AperFunction*
G04 #@! TA.AperFunction,SMDPad,CuDef*
G36*
G01*
X74528500Y-100381750D02*
X74528500Y-101294250D01*
G75*
G02*
X74284750Y-101538000I-243750J0D01*
G01*
X73797250Y-101538000D01*
G75*
G02*
X73553500Y-101294250I0J243750D01*
G01*
X73553500Y-100381750D01*
G75*
G02*
X73797250Y-100138000I243750J0D01*
G01*
X74284750Y-100138000D01*
G75*
G02*
X74528500Y-100381750I0J-243750D01*
G01*
G37*
G04 #@! TD.AperFunction*
G04 #@! TA.AperFunction,SMDPad,CuDef*
G36*
G01*
X72653500Y-100381750D02*
X72653500Y-101294250D01*
G75*
G02*
X72409750Y-101538000I-243750J0D01*
G01*
X71922250Y-101538000D01*
G75*
G02*
X71678500Y-101294250I0J243750D01*
G01*
X71678500Y-100381750D01*
G75*
G02*
X71922250Y-100138000I243750J0D01*
G01*
X72409750Y-100138000D01*
G75*
G02*
X72653500Y-100381750I0J-243750D01*
G01*
G37*
G04 #@! TD.AperFunction*
G04 #@! TA.AperFunction,SMDPad,CuDef*
G36*
G01*
X85988500Y-90348750D02*
X85988500Y-91261250D01*
G75*
G02*
X85744750Y-91505000I-243750J0D01*
G01*
X85257250Y-91505000D01*
G75*
G02*
X85013500Y-91261250I0J243750D01*
G01*
X85013500Y-90348750D01*
G75*
G02*
X85257250Y-90105000I243750J0D01*
G01*
X85744750Y-90105000D01*
G75*
G02*
X85988500Y-90348750I0J-243750D01*
G01*
G37*
G04 #@! TD.AperFunction*
G04 #@! TA.AperFunction,SMDPad,CuDef*
G36*
G01*
X87863500Y-90348750D02*
X87863500Y-91261250D01*
G75*
G02*
X87619750Y-91505000I-243750J0D01*
G01*
X87132250Y-91505000D01*
G75*
G02*
X86888500Y-91261250I0J243750D01*
G01*
X86888500Y-90348750D01*
G75*
G02*
X87132250Y-90105000I243750J0D01*
G01*
X87619750Y-90105000D01*
G75*
G02*
X87863500Y-90348750I0J-243750D01*
G01*
G37*
G04 #@! TD.AperFunction*
G04 #@! TA.AperFunction,SMDPad,CuDef*
G36*
G01*
X97465500Y-71879750D02*
X97465500Y-72392250D01*
G75*
G02*
X97246750Y-72611000I-218750J0D01*
G01*
X96809250Y-72611000D01*
G75*
G02*
X96590500Y-72392250I0J218750D01*
G01*
X96590500Y-71879750D01*
G75*
G02*
X96809250Y-71661000I218750J0D01*
G01*
X97246750Y-71661000D01*
G75*
G02*
X97465500Y-71879750I0J-218750D01*
G01*
G37*
G04 #@! TD.AperFunction*
G04 #@! TA.AperFunction,SMDPad,CuDef*
G36*
G01*
X95890500Y-71879750D02*
X95890500Y-72392250D01*
G75*
G02*
X95671750Y-72611000I-218750J0D01*
G01*
X95234250Y-72611000D01*
G75*
G02*
X95015500Y-72392250I0J218750D01*
G01*
X95015500Y-71879750D01*
G75*
G02*
X95234250Y-71661000I218750J0D01*
G01*
X95671750Y-71661000D01*
G75*
G02*
X95890500Y-71879750I0J-218750D01*
G01*
G37*
G04 #@! TD.AperFunction*
G04 #@! TA.AperFunction,SMDPad,CuDef*
G36*
G01*
X89483250Y-96088500D02*
X88570750Y-96088500D01*
G75*
G02*
X88327000Y-95844750I0J243750D01*
G01*
X88327000Y-95357250D01*
G75*
G02*
X88570750Y-95113500I243750J0D01*
G01*
X89483250Y-95113500D01*
G75*
G02*
X89727000Y-95357250I0J-243750D01*
G01*
X89727000Y-95844750D01*
G75*
G02*
X89483250Y-96088500I-243750J0D01*
G01*
G37*
G04 #@! TD.AperFunction*
G04 #@! TA.AperFunction,SMDPad,CuDef*
G36*
G01*
X89483250Y-94213500D02*
X88570750Y-94213500D01*
G75*
G02*
X88327000Y-93969750I0J243750D01*
G01*
X88327000Y-93482250D01*
G75*
G02*
X88570750Y-93238500I243750J0D01*
G01*
X89483250Y-93238500D01*
G75*
G02*
X89727000Y-93482250I0J-243750D01*
G01*
X89727000Y-93969750D01*
G75*
G02*
X89483250Y-94213500I-243750J0D01*
G01*
G37*
G04 #@! TD.AperFunction*
G04 #@! TA.AperFunction,SMDPad,CuDef*
G36*
G01*
X55381500Y-77775750D02*
X55381500Y-78688250D01*
G75*
G02*
X55137750Y-78932000I-243750J0D01*
G01*
X54650250Y-78932000D01*
G75*
G02*
X54406500Y-78688250I0J243750D01*
G01*
X54406500Y-77775750D01*
G75*
G02*
X54650250Y-77532000I243750J0D01*
G01*
X55137750Y-77532000D01*
G75*
G02*
X55381500Y-77775750I0J-243750D01*
G01*
G37*
G04 #@! TD.AperFunction*
G04 #@! TA.AperFunction,SMDPad,CuDef*
G36*
G01*
X57256500Y-77775750D02*
X57256500Y-78688250D01*
G75*
G02*
X57012750Y-78932000I-243750J0D01*
G01*
X56525250Y-78932000D01*
G75*
G02*
X56281500Y-78688250I0J243750D01*
G01*
X56281500Y-77775750D01*
G75*
G02*
X56525250Y-77532000I243750J0D01*
G01*
X57012750Y-77532000D01*
G75*
G02*
X57256500Y-77775750I0J-243750D01*
G01*
G37*
G04 #@! TD.AperFunction*
G04 #@! TA.AperFunction,SMDPad,CuDef*
G36*
G01*
X98095750Y-77139500D02*
X99008250Y-77139500D01*
G75*
G02*
X99252000Y-77383250I0J-243750D01*
G01*
X99252000Y-77870750D01*
G75*
G02*
X99008250Y-78114500I-243750J0D01*
G01*
X98095750Y-78114500D01*
G75*
G02*
X97852000Y-77870750I0J243750D01*
G01*
X97852000Y-77383250D01*
G75*
G02*
X98095750Y-77139500I243750J0D01*
G01*
G37*
G04 #@! TD.AperFunction*
G04 #@! TA.AperFunction,SMDPad,CuDef*
G36*
G01*
X98095750Y-79014500D02*
X99008250Y-79014500D01*
G75*
G02*
X99252000Y-79258250I0J-243750D01*
G01*
X99252000Y-79745750D01*
G75*
G02*
X99008250Y-79989500I-243750J0D01*
G01*
X98095750Y-79989500D01*
G75*
G02*
X97852000Y-79745750I0J243750D01*
G01*
X97852000Y-79258250D01*
G75*
G02*
X98095750Y-79014500I243750J0D01*
G01*
G37*
G04 #@! TD.AperFunction*
G04 #@! TA.AperFunction,SMDPad,CuDef*
G36*
G01*
X94690250Y-81767500D02*
X93777750Y-81767500D01*
G75*
G02*
X93534000Y-81523750I0J243750D01*
G01*
X93534000Y-81036250D01*
G75*
G02*
X93777750Y-80792500I243750J0D01*
G01*
X94690250Y-80792500D01*
G75*
G02*
X94934000Y-81036250I0J-243750D01*
G01*
X94934000Y-81523750D01*
G75*
G02*
X94690250Y-81767500I-243750J0D01*
G01*
G37*
G04 #@! TD.AperFunction*
G04 #@! TA.AperFunction,SMDPad,CuDef*
G36*
G01*
X94690250Y-83642500D02*
X93777750Y-83642500D01*
G75*
G02*
X93534000Y-83398750I0J243750D01*
G01*
X93534000Y-82911250D01*
G75*
G02*
X93777750Y-82667500I243750J0D01*
G01*
X94690250Y-82667500D01*
G75*
G02*
X94934000Y-82911250I0J-243750D01*
G01*
X94934000Y-83398750D01*
G75*
G02*
X94690250Y-83642500I-243750J0D01*
G01*
G37*
G04 #@! TD.AperFunction*
D13*
X63754000Y-94742000D03*
X59454000Y-94742000D03*
D14*
X47117000Y-83947000D03*
D15*
X47117000Y-86487000D03*
D16*
X54483000Y-94869000D03*
D17*
X48483000Y-94869000D03*
D18*
X51483000Y-99569000D03*
D12*
X137414000Y-76200000D03*
D11*
X134874000Y-73660000D03*
X134874000Y-78740000D03*
X139954000Y-78740000D03*
X139954000Y-73660000D03*
G04 #@! TA.AperFunction,SMDPad,CuDef*
G36*
G01*
X128854500Y-77013750D02*
X128854500Y-77926250D01*
G75*
G02*
X128610750Y-78170000I-243750J0D01*
G01*
X128123250Y-78170000D01*
G75*
G02*
X127879500Y-77926250I0J243750D01*
G01*
X127879500Y-77013750D01*
G75*
G02*
X128123250Y-76770000I243750J0D01*
G01*
X128610750Y-76770000D01*
G75*
G02*
X128854500Y-77013750I0J-243750D01*
G01*
G37*
G04 #@! TD.AperFunction*
G04 #@! TA.AperFunction,SMDPad,CuDef*
G36*
G01*
X126979500Y-77013750D02*
X126979500Y-77926250D01*
G75*
G02*
X126735750Y-78170000I-243750J0D01*
G01*
X126248250Y-78170000D01*
G75*
G02*
X126004500Y-77926250I0J243750D01*
G01*
X126004500Y-77013750D01*
G75*
G02*
X126248250Y-76770000I243750J0D01*
G01*
X126735750Y-76770000D01*
G75*
G02*
X126979500Y-77013750I0J-243750D01*
G01*
G37*
G04 #@! TD.AperFunction*
G04 #@! TA.AperFunction,SMDPad,CuDef*
G36*
G01*
X50215500Y-84403250D02*
X50215500Y-83490750D01*
G75*
G02*
X50459250Y-83247000I243750J0D01*
G01*
X50946750Y-83247000D01*
G75*
G02*
X51190500Y-83490750I0J-243750D01*
G01*
X51190500Y-84403250D01*
G75*
G02*
X50946750Y-84647000I-243750J0D01*
G01*
X50459250Y-84647000D01*
G75*
G02*
X50215500Y-84403250I0J243750D01*
G01*
G37*
G04 #@! TD.AperFunction*
G04 #@! TA.AperFunction,SMDPad,CuDef*
G36*
G01*
X52090500Y-84403250D02*
X52090500Y-83490750D01*
G75*
G02*
X52334250Y-83247000I243750J0D01*
G01*
X52821750Y-83247000D01*
G75*
G02*
X53065500Y-83490750I0J-243750D01*
G01*
X53065500Y-84403250D01*
G75*
G02*
X52821750Y-84647000I-243750J0D01*
G01*
X52334250Y-84647000D01*
G75*
G02*
X52090500Y-84403250I0J243750D01*
G01*
G37*
G04 #@! TD.AperFunction*
G04 #@! TA.AperFunction,SMDPad,CuDef*
G36*
G01*
X88335500Y-81790250D02*
X88335500Y-81277750D01*
G75*
G02*
X88554250Y-81059000I218750J0D01*
G01*
X88991750Y-81059000D01*
G75*
G02*
X89210500Y-81277750I0J-218750D01*
G01*
X89210500Y-81790250D01*
G75*
G02*
X88991750Y-82009000I-218750J0D01*
G01*
X88554250Y-82009000D01*
G75*
G02*
X88335500Y-81790250I0J218750D01*
G01*
G37*
G04 #@! TD.AperFunction*
G04 #@! TA.AperFunction,SMDPad,CuDef*
G36*
G01*
X89910500Y-81790250D02*
X89910500Y-81277750D01*
G75*
G02*
X90129250Y-81059000I218750J0D01*
G01*
X90566750Y-81059000D01*
G75*
G02*
X90785500Y-81277750I0J-218750D01*
G01*
X90785500Y-81790250D01*
G75*
G02*
X90566750Y-82009000I-218750J0D01*
G01*
X90129250Y-82009000D01*
G75*
G02*
X89910500Y-81790250I0J218750D01*
G01*
G37*
G04 #@! TD.AperFunction*
G04 #@! TA.AperFunction,SMDPad,CuDef*
G36*
G01*
X89185000Y-82801750D02*
X89185000Y-83314250D01*
G75*
G02*
X88966250Y-83533000I-218750J0D01*
G01*
X88528750Y-83533000D01*
G75*
G02*
X88310000Y-83314250I0J218750D01*
G01*
X88310000Y-82801750D01*
G75*
G02*
X88528750Y-82583000I218750J0D01*
G01*
X88966250Y-82583000D01*
G75*
G02*
X89185000Y-82801750I0J-218750D01*
G01*
G37*
G04 #@! TD.AperFunction*
G04 #@! TA.AperFunction,SMDPad,CuDef*
G36*
G01*
X90760000Y-82801750D02*
X90760000Y-83314250D01*
G75*
G02*
X90541250Y-83533000I-218750J0D01*
G01*
X90103750Y-83533000D01*
G75*
G02*
X89885000Y-83314250I0J218750D01*
G01*
X89885000Y-82801750D01*
G75*
G02*
X90103750Y-82583000I218750J0D01*
G01*
X90541250Y-82583000D01*
G75*
G02*
X90760000Y-82801750I0J-218750D01*
G01*
G37*
G04 #@! TD.AperFunction*
G04 #@! TA.AperFunction,SMDPad,CuDef*
G36*
G01*
X92077250Y-83546500D02*
X91564750Y-83546500D01*
G75*
G02*
X91346000Y-83327750I0J218750D01*
G01*
X91346000Y-82890250D01*
G75*
G02*
X91564750Y-82671500I218750J0D01*
G01*
X92077250Y-82671500D01*
G75*
G02*
X92296000Y-82890250I0J-218750D01*
G01*
X92296000Y-83327750D01*
G75*
G02*
X92077250Y-83546500I-218750J0D01*
G01*
G37*
G04 #@! TD.AperFunction*
G04 #@! TA.AperFunction,SMDPad,CuDef*
G36*
G01*
X92077250Y-81971500D02*
X91564750Y-81971500D01*
G75*
G02*
X91346000Y-81752750I0J218750D01*
G01*
X91346000Y-81315250D01*
G75*
G02*
X91564750Y-81096500I218750J0D01*
G01*
X92077250Y-81096500D01*
G75*
G02*
X92296000Y-81315250I0J-218750D01*
G01*
X92296000Y-81752750D01*
G75*
G02*
X92077250Y-81971500I-218750J0D01*
G01*
G37*
G04 #@! TD.AperFunction*
D19*
X69215000Y-95377000D03*
D20*
X71755000Y-95377000D03*
X74295000Y-95377000D03*
D21*
X86487000Y-92837000D03*
X85187000Y-92837000D03*
X85837000Y-92837000D03*
X85187000Y-94737000D03*
X86487000Y-94737000D03*
G04 #@! TA.AperFunction,SMDPad,CuDef*
G36*
G01*
X96497000Y-73258000D02*
X96797000Y-73258000D01*
G75*
G02*
X96947000Y-73408000I0J-150000D01*
G01*
X96947000Y-74858000D01*
G75*
G02*
X96797000Y-75008000I-150000J0D01*
G01*
X96497000Y-75008000D01*
G75*
G02*
X96347000Y-74858000I0J150000D01*
G01*
X96347000Y-73408000D01*
G75*
G02*
X96497000Y-73258000I150000J0D01*
G01*
G37*
G04 #@! TD.AperFunction*
G04 #@! TA.AperFunction,SMDPad,CuDef*
G36*
G01*
X95227000Y-73258000D02*
X95527000Y-73258000D01*
G75*
G02*
X95677000Y-73408000I0J-150000D01*
G01*
X95677000Y-74858000D01*
G75*
G02*
X95527000Y-75008000I-150000J0D01*
G01*
X95227000Y-75008000D01*
G75*
G02*
X95077000Y-74858000I0J150000D01*
G01*
X95077000Y-73408000D01*
G75*
G02*
X95227000Y-73258000I150000J0D01*
G01*
G37*
G04 #@! TD.AperFunction*
G04 #@! TA.AperFunction,SMDPad,CuDef*
G36*
G01*
X93957000Y-73258000D02*
X94257000Y-73258000D01*
G75*
G02*
X94407000Y-73408000I0J-150000D01*
G01*
X94407000Y-74858000D01*
G75*
G02*
X94257000Y-75008000I-150000J0D01*
G01*
X93957000Y-75008000D01*
G75*
G02*
X93807000Y-74858000I0J150000D01*
G01*
X93807000Y-73408000D01*
G75*
G02*
X93957000Y-73258000I150000J0D01*
G01*
G37*
G04 #@! TD.AperFunction*
G04 #@! TA.AperFunction,SMDPad,CuDef*
G36*
G01*
X92687000Y-73258000D02*
X92987000Y-73258000D01*
G75*
G02*
X93137000Y-73408000I0J-150000D01*
G01*
X93137000Y-74858000D01*
G75*
G02*
X92987000Y-75008000I-150000J0D01*
G01*
X92687000Y-75008000D01*
G75*
G02*
X92537000Y-74858000I0J150000D01*
G01*
X92537000Y-73408000D01*
G75*
G02*
X92687000Y-73258000I150000J0D01*
G01*
G37*
G04 #@! TD.AperFunction*
G04 #@! TA.AperFunction,SMDPad,CuDef*
G36*
G01*
X92687000Y-78408000D02*
X92987000Y-78408000D01*
G75*
G02*
X93137000Y-78558000I0J-150000D01*
G01*
X93137000Y-80008000D01*
G75*
G02*
X92987000Y-80158000I-150000J0D01*
G01*
X92687000Y-80158000D01*
G75*
G02*
X92537000Y-80008000I0J150000D01*
G01*
X92537000Y-78558000D01*
G75*
G02*
X92687000Y-78408000I150000J0D01*
G01*
G37*
G04 #@! TD.AperFunction*
G04 #@! TA.AperFunction,SMDPad,CuDef*
G36*
G01*
X93957000Y-78408000D02*
X94257000Y-78408000D01*
G75*
G02*
X94407000Y-78558000I0J-150000D01*
G01*
X94407000Y-80008000D01*
G75*
G02*
X94257000Y-80158000I-150000J0D01*
G01*
X93957000Y-80158000D01*
G75*
G02*
X93807000Y-80008000I0J150000D01*
G01*
X93807000Y-78558000D01*
G75*
G02*
X93957000Y-78408000I150000J0D01*
G01*
G37*
G04 #@! TD.AperFunction*
G04 #@! TA.AperFunction,SMDPad,CuDef*
G36*
G01*
X95227000Y-78408000D02*
X95527000Y-78408000D01*
G75*
G02*
X95677000Y-78558000I0J-150000D01*
G01*
X95677000Y-80008000D01*
G75*
G02*
X95527000Y-80158000I-150000J0D01*
G01*
X95227000Y-80158000D01*
G75*
G02*
X95077000Y-80008000I0J150000D01*
G01*
X95077000Y-78558000D01*
G75*
G02*
X95227000Y-78408000I150000J0D01*
G01*
G37*
G04 #@! TD.AperFunction*
G04 #@! TA.AperFunction,SMDPad,CuDef*
G36*
G01*
X96497000Y-78408000D02*
X96797000Y-78408000D01*
G75*
G02*
X96947000Y-78558000I0J-150000D01*
G01*
X96947000Y-80008000D01*
G75*
G02*
X96797000Y-80158000I-150000J0D01*
G01*
X96497000Y-80158000D01*
G75*
G02*
X96347000Y-80008000I0J150000D01*
G01*
X96347000Y-78558000D01*
G75*
G02*
X96497000Y-78408000I150000J0D01*
G01*
G37*
G04 #@! TD.AperFunction*
D22*
X92202000Y-90551000D03*
X92202000Y-86351000D03*
X94742000Y-90551000D03*
X89662000Y-90551000D03*
X89662000Y-86351000D03*
X94742000Y-86351000D03*
D23*
X94107000Y-73025000D03*
X91059000Y-81534000D03*
X92202000Y-85217000D03*
X98552000Y-77089000D03*
X84328000Y-93726000D03*
X89027000Y-93091000D03*
X71882000Y-98298000D03*
X71247000Y-100965000D03*
X53721000Y-83947000D03*
X84836000Y-90932000D03*
D24*
X87351000Y-95601000D02*
X86487000Y-94737000D01*
X87727000Y-95474000D02*
X87854000Y-95601000D01*
X87854000Y-95601000D02*
X87351000Y-95601000D01*
X89027000Y-95601000D02*
X87854000Y-95601000D01*
X94742000Y-86351000D02*
X94742000Y-87884000D01*
X94742000Y-87884000D02*
X93980000Y-88646000D01*
X93980000Y-88646000D02*
X90297000Y-88646000D01*
X89662000Y-89281000D02*
X89662000Y-90551000D01*
X90297000Y-88646000D02*
X89662000Y-89281000D01*
X89408000Y-90805000D02*
X89662000Y-90551000D01*
X87376000Y-90805000D02*
X89408000Y-90805000D01*
X87376000Y-93848000D02*
X86487000Y-94737000D01*
X87376000Y-90805000D02*
X87376000Y-93848000D01*
X94107000Y-73025000D02*
X94107000Y-74133000D01*
X91821000Y-81534000D02*
X91059000Y-81534000D01*
X91059000Y-81534000D02*
X90348000Y-81534000D01*
X92202000Y-85217000D02*
X92202000Y-86351000D01*
X98552000Y-77627000D02*
X98552000Y-77089000D01*
X85852000Y-90805000D02*
X85837000Y-90820000D01*
X85837000Y-93662000D02*
X85773000Y-93726000D01*
X85837000Y-92837000D02*
X85837000Y-93662000D01*
X83947000Y-93726000D02*
X83185000Y-92964000D01*
X85773000Y-93726000D02*
X84328000Y-93726000D01*
X84328000Y-93726000D02*
X83947000Y-93726000D01*
D25*
X72166000Y-98933000D02*
X72674000Y-98425000D01*
X72166000Y-100838000D02*
X72166000Y-98933000D01*
X71755000Y-98425000D02*
X71882000Y-98298000D01*
X71755000Y-95377000D02*
X71755000Y-98425000D01*
X70866000Y-98425000D02*
X71755000Y-98425000D01*
X71882000Y-98298000D02*
X72674000Y-98425000D01*
X72039000Y-100965000D02*
X72166000Y-100838000D01*
X71247000Y-100965000D02*
X72039000Y-100965000D01*
X53721000Y-83947000D02*
X52578000Y-83947000D01*
X89027000Y-93091000D02*
X89027000Y-93726000D01*
D24*
X85837000Y-91141000D02*
X85501000Y-90805000D01*
X85837000Y-92837000D02*
X85837000Y-91141000D01*
X74549000Y-95631000D02*
X74295000Y-95377000D01*
X74549000Y-98425000D02*
X74549000Y-95631000D01*
X74549000Y-100330000D02*
X74041000Y-100838000D01*
X74549000Y-98425000D02*
X74549000Y-100330000D01*
X83312000Y-94737000D02*
X83185000Y-94864000D01*
X85187000Y-94737000D02*
X83312000Y-94737000D01*
D26*
X98552000Y-97917000D02*
X98552000Y-81188000D01*
X97917000Y-98552000D02*
X98552000Y-97917000D01*
X77343000Y-95377000D02*
X80518000Y-98552000D01*
X74295000Y-95377000D02*
X77343000Y-95377000D01*
X98552000Y-79502000D02*
X98552000Y-80391000D01*
X98153500Y-80789500D02*
X96647000Y-79283000D01*
X98552000Y-80391000D02*
X98153500Y-80789500D01*
X98552000Y-81188000D02*
X98153500Y-80789500D01*
X83185000Y-98298000D02*
X82931000Y-98552000D01*
X83185000Y-94864000D02*
X83185000Y-98298000D01*
X82931000Y-98552000D02*
X97917000Y-98552000D01*
X80518000Y-98552000D02*
X82931000Y-98552000D01*
D27*
X125450500Y-77470000D02*
X124968000Y-76987500D01*
X126492000Y-77470000D02*
X125450500Y-77470000D01*
X124968000Y-79890000D02*
X121158000Y-83700000D01*
X124968000Y-76987500D02*
X124968000Y-79890000D01*
D24*
X58521000Y-78232000D02*
X58293000Y-78232000D01*
D28*
X57505000Y-76200000D02*
X57277000Y-75972000D01*
X59055000Y-76200000D02*
X57505000Y-76200000D01*
D24*
X91867000Y-83155000D02*
X91821000Y-83109000D01*
X94234000Y-83155000D02*
X91867000Y-83155000D01*
X90373500Y-83109000D02*
X90322500Y-83058000D01*
X91821000Y-83109000D02*
X90373500Y-83109000D01*
X94107000Y-81153000D02*
X94234000Y-81280000D01*
X94107000Y-79283000D02*
X94107000Y-81153000D01*
X88773000Y-83032500D02*
X88747500Y-83058000D01*
X88773000Y-81534000D02*
X88773000Y-83032500D01*
X89662000Y-86351000D02*
X89662000Y-86106000D01*
X88747500Y-85191500D02*
X88747500Y-83058000D01*
X89662000Y-86106000D02*
X88747500Y-85191500D01*
D26*
X68580000Y-94742000D02*
X69215000Y-95377000D01*
X63754000Y-94742000D02*
X68580000Y-94742000D01*
D24*
X69215000Y-98201000D02*
X68991000Y-98425000D01*
X69215000Y-95377000D02*
X69215000Y-98201000D01*
D25*
X137414000Y-76200000D02*
X132080000Y-76200000D01*
X106158000Y-83700000D02*
X106158000Y-79869000D01*
X100422000Y-74133000D02*
X96647000Y-74133000D01*
X106158000Y-79869000D02*
X100422000Y-74133000D01*
D24*
X97028000Y-73752000D02*
X96647000Y-74133000D01*
X97028000Y-72136000D02*
X97028000Y-73752000D01*
D25*
X106158000Y-68700000D02*
X104246000Y-70612000D01*
X104246000Y-70612000D02*
X95758000Y-70612000D01*
X95453000Y-70917000D02*
X95453000Y-72136000D01*
X95758000Y-70612000D02*
X95453000Y-70917000D01*
X95377000Y-72212000D02*
X95453000Y-72136000D01*
X95377000Y-74133000D02*
X95377000Y-72212000D01*
D24*
X54894000Y-76551000D02*
X54991000Y-76454000D01*
D25*
X52959000Y-76454000D02*
X52959000Y-77978000D01*
X47244000Y-76454000D02*
X46990000Y-76200000D01*
X52959000Y-76454000D02*
X47244000Y-76454000D01*
D26*
X54610000Y-94742000D02*
X54483000Y-94869000D01*
X59454000Y-94742000D02*
X54610000Y-94742000D01*
D24*
X47117000Y-83947000D02*
X50703000Y-83947000D01*
D27*
X125196500Y-75184000D02*
X124968000Y-75412500D01*
X126949000Y-75184000D02*
X125196500Y-75184000D01*
X124968000Y-72510000D02*
X121158000Y-68700000D01*
D28*
X125222000Y-73660000D02*
X124968000Y-73406000D01*
X134874000Y-73660000D02*
X125222000Y-73660000D01*
D27*
X124968000Y-73406000D02*
X124968000Y-72510000D01*
X124968000Y-75412500D02*
X124968000Y-73406000D01*
D24*
X62484000Y-77851000D02*
X62103000Y-78232000D01*
X62103000Y-78232000D02*
X60071000Y-78232000D01*
D25*
X68319000Y-83700000D02*
X65264000Y-80645000D01*
X65264000Y-80645000D02*
X65264000Y-80631000D01*
X64770000Y-80137000D02*
X64770000Y-77483000D01*
X65264000Y-80631000D02*
X64770000Y-80137000D01*
X64770000Y-77483000D02*
X64770000Y-77597000D01*
X64135000Y-78232000D02*
X62103000Y-78232000D01*
X64770000Y-77597000D02*
X64135000Y-78232000D01*
D24*
X54766000Y-74554000D02*
X54991000Y-74329000D01*
D25*
X68319000Y-68700000D02*
X68319000Y-70492000D01*
X64770000Y-74041000D02*
X64770000Y-75933000D01*
X68319000Y-70492000D02*
X64770000Y-74041000D01*
X62277000Y-75933000D02*
X62103000Y-76107000D01*
X64770000Y-75933000D02*
X62277000Y-75933000D01*
X58962000Y-73982000D02*
X59055000Y-74075000D01*
D28*
X53184000Y-74329000D02*
X52959000Y-74554000D01*
X54991000Y-74329000D02*
X53184000Y-74329000D01*
D25*
X92837000Y-77978000D02*
X92837000Y-79283000D01*
X92456000Y-77597000D02*
X92837000Y-77978000D01*
X89422000Y-77597000D02*
X92456000Y-77597000D01*
X83319000Y-83700000D02*
X89422000Y-77597000D01*
X88752000Y-74133000D02*
X83319000Y-68700000D01*
X92837000Y-74133000D02*
X88752000Y-74133000D01*
D29*
G36*
X128778339Y-74809983D02*
G01*
X130112500Y-75254703D01*
X130149236Y-75276223D01*
X130166200Y-75299761D01*
X130175000Y-75341419D01*
X130175000Y-77328704D01*
X130159823Y-77382129D01*
X130118823Y-77419599D01*
X128514243Y-78221889D01*
X128473990Y-78232606D01*
X128445878Y-78228452D01*
X128421703Y-78213512D01*
X128405417Y-78190225D01*
X128397000Y-78149428D01*
X128397000Y-74888509D01*
X128404856Y-74849016D01*
X128420141Y-74826141D01*
X128443016Y-74810856D01*
X128482509Y-74803000D01*
X128735309Y-74803000D01*
X128778339Y-74809983D01*
G37*
X128778339Y-74809983D02*
X130112500Y-75254703D01*
X130149236Y-75276223D01*
X130166200Y-75299761D01*
X130175000Y-75341419D01*
X130175000Y-77328704D01*
X130159823Y-77382129D01*
X130118823Y-77419599D01*
X128514243Y-78221889D01*
X128473990Y-78232606D01*
X128445878Y-78228452D01*
X128421703Y-78213512D01*
X128405417Y-78190225D01*
X128397000Y-78149428D01*
X128397000Y-74888509D01*
X128404856Y-74849016D01*
X128420141Y-74826141D01*
X128443016Y-74810856D01*
X128482509Y-74803000D01*
X128735309Y-74803000D01*
X128778339Y-74809983D01*
G36*
X141430577Y-72143929D02*
G01*
X141453510Y-72159347D01*
X141468754Y-72182396D01*
X141476382Y-72222121D01*
X141416134Y-80174914D01*
X141402214Y-80225582D01*
X141377143Y-80250465D01*
X141326371Y-80264000D01*
X132546509Y-80264000D01*
X132507016Y-80256144D01*
X132484141Y-80240859D01*
X132468856Y-80217984D01*
X132461000Y-80178491D01*
X132461000Y-77524554D01*
X132495785Y-77521128D01*
X132661209Y-77470947D01*
X132813664Y-77389458D01*
X132947292Y-77279792D01*
X133004569Y-77210000D01*
X136092396Y-77210000D01*
X136124594Y-77258188D01*
X136355812Y-77489406D01*
X136627695Y-77671073D01*
X136929796Y-77796207D01*
X137250504Y-77860000D01*
X137577496Y-77860000D01*
X137898204Y-77796207D01*
X138200305Y-77671073D01*
X138472188Y-77489406D01*
X138703406Y-77258188D01*
X138885073Y-76986305D01*
X139010207Y-76684204D01*
X139074000Y-76363496D01*
X139074000Y-76036504D01*
X139010207Y-75715796D01*
X138885073Y-75413695D01*
X138703406Y-75141812D01*
X138472188Y-74910594D01*
X138200305Y-74728927D01*
X137898204Y-74603793D01*
X137577496Y-74540000D01*
X137250504Y-74540000D01*
X136929796Y-74603793D01*
X136627695Y-74728927D01*
X136355812Y-74910594D01*
X136124594Y-75141812D01*
X136092396Y-75190000D01*
X133004569Y-75190000D01*
X132947292Y-75120208D01*
X132813664Y-75010542D01*
X132661209Y-74929053D01*
X132495785Y-74878872D01*
X132323750Y-74861928D01*
X131836250Y-74861928D01*
X131664215Y-74878872D01*
X131498791Y-74929053D01*
X131346336Y-75010542D01*
X131289727Y-75057000D01*
X130995273Y-75057000D01*
X130938664Y-75010542D01*
X130851019Y-74963695D01*
X130800055Y-74875980D01*
X130751718Y-74808915D01*
X130658274Y-74705443D01*
X130557550Y-74632296D01*
X130486219Y-74590509D01*
X130366051Y-74536001D01*
X129009595Y-74083849D01*
X128910502Y-74059462D01*
X128847256Y-74049199D01*
X128745544Y-74041000D01*
X128470000Y-74041000D01*
X128346119Y-74053201D01*
X128269582Y-74068425D01*
X128240215Y-74077334D01*
X128138092Y-74087392D01*
X127977358Y-74136150D01*
X127829225Y-74215329D01*
X127699385Y-74321885D01*
X127592829Y-74451725D01*
X127513650Y-74599858D01*
X127464892Y-74760592D01*
X127448428Y-74927750D01*
X127448428Y-75057000D01*
X125434509Y-75057000D01*
X125395016Y-75049144D01*
X125372141Y-75033859D01*
X125356856Y-75010984D01*
X125349000Y-74971491D01*
X125349000Y-72221509D01*
X125356856Y-72182016D01*
X125372141Y-72159141D01*
X125395016Y-72143856D01*
X125434509Y-72136000D01*
X141390912Y-72136000D01*
X141430577Y-72143929D01*
G37*
X141430577Y-72143929D02*
X141453510Y-72159347D01*
X141468754Y-72182396D01*
X141476382Y-72222121D01*
X141416134Y-80174914D01*
X141402214Y-80225582D01*
X141377143Y-80250465D01*
X141326371Y-80264000D01*
X132546509Y-80264000D01*
X132507016Y-80256144D01*
X132484141Y-80240859D01*
X132468856Y-80217984D01*
X132461000Y-80178491D01*
X132461000Y-77524554D01*
X132495785Y-77521128D01*
X132661209Y-77470947D01*
X132813664Y-77389458D01*
X132947292Y-77279792D01*
X133004569Y-77210000D01*
X136092396Y-77210000D01*
X136124594Y-77258188D01*
X136355812Y-77489406D01*
X136627695Y-77671073D01*
X136929796Y-77796207D01*
X137250504Y-77860000D01*
X137577496Y-77860000D01*
X137898204Y-77796207D01*
X138200305Y-77671073D01*
X138472188Y-77489406D01*
X138703406Y-77258188D01*
X138885073Y-76986305D01*
X139010207Y-76684204D01*
X139074000Y-76363496D01*
X139074000Y-76036504D01*
X139010207Y-75715796D01*
X138885073Y-75413695D01*
X138703406Y-75141812D01*
X138472188Y-74910594D01*
X138200305Y-74728927D01*
X137898204Y-74603793D01*
X137577496Y-74540000D01*
X137250504Y-74540000D01*
X136929796Y-74603793D01*
X136627695Y-74728927D01*
X136355812Y-74910594D01*
X136124594Y-75141812D01*
X136092396Y-75190000D01*
X133004569Y-75190000D01*
X132947292Y-75120208D01*
X132813664Y-75010542D01*
X132661209Y-74929053D01*
X132495785Y-74878872D01*
X132323750Y-74861928D01*
X131836250Y-74861928D01*
X131664215Y-74878872D01*
X131498791Y-74929053D01*
X131346336Y-75010542D01*
X131289727Y-75057000D01*
X130995273Y-75057000D01*
X130938664Y-75010542D01*
X130851019Y-74963695D01*
X130800055Y-74875980D01*
X130751718Y-74808915D01*
X130658274Y-74705443D01*
X130557550Y-74632296D01*
X130486219Y-74590509D01*
X130366051Y-74536001D01*
X129009595Y-74083849D01*
X128910502Y-74059462D01*
X128847256Y-74049199D01*
X128745544Y-74041000D01*
X128470000Y-74041000D01*
X128346119Y-74053201D01*
X128269582Y-74068425D01*
X128240215Y-74077334D01*
X128138092Y-74087392D01*
X127977358Y-74136150D01*
X127829225Y-74215329D01*
X127699385Y-74321885D01*
X127592829Y-74451725D01*
X127513650Y-74599858D01*
X127464892Y-74760592D01*
X127448428Y-74927750D01*
X127448428Y-75057000D01*
X125434509Y-75057000D01*
X125395016Y-75049144D01*
X125372141Y-75033859D01*
X125356856Y-75010984D01*
X125349000Y-74971491D01*
X125349000Y-72221509D01*
X125356856Y-72182016D01*
X125372141Y-72159141D01*
X125395016Y-72143856D01*
X125434509Y-72136000D01*
X141390912Y-72136000D01*
X141430577Y-72143929D01*
G36*
X55452984Y-76080856D02*
G01*
X55475859Y-76096141D01*
X55491144Y-76119016D01*
X55499000Y-76158509D01*
X55499000Y-79162491D01*
X55491144Y-79201984D01*
X55475859Y-79224859D01*
X55452984Y-79240144D01*
X55413491Y-79248000D01*
X52409509Y-79248000D01*
X52370016Y-79240144D01*
X52347141Y-79224859D01*
X52331856Y-79201984D01*
X52324000Y-79162491D01*
X52324000Y-76158509D01*
X52331856Y-76119016D01*
X52347141Y-76096141D01*
X52370016Y-76080856D01*
X52409509Y-76073000D01*
X55413491Y-76073000D01*
X55452984Y-76080856D01*
G37*
X55452984Y-76080856D02*
X55475859Y-76096141D01*
X55491144Y-76119016D01*
X55499000Y-76158509D01*
X55499000Y-79162491D01*
X55491144Y-79201984D01*
X55475859Y-79224859D01*
X55452984Y-79240144D01*
X55413491Y-79248000D01*
X52409509Y-79248000D01*
X52370016Y-79240144D01*
X52347141Y-79224859D01*
X52331856Y-79201984D01*
X52324000Y-79162491D01*
X52324000Y-76158509D01*
X52331856Y-76119016D01*
X52347141Y-76096141D01*
X52370016Y-76080856D01*
X52409509Y-76073000D01*
X55413491Y-76073000D01*
X55452984Y-76080856D01*
G36*
X66350661Y-72020172D02*
G01*
X66375296Y-72041212D01*
X66387694Y-72071145D01*
X66385152Y-72103445D01*
X66360150Y-72144244D01*
X64738776Y-73765618D01*
X64722983Y-73784863D01*
X64679628Y-73849748D01*
X64667891Y-73871705D01*
X64660664Y-73895530D01*
X64645440Y-73972067D01*
X64643000Y-73996843D01*
X64643000Y-75860491D01*
X64635144Y-75899984D01*
X64619859Y-75922859D01*
X64596984Y-75938144D01*
X64557491Y-75946000D01*
X61957885Y-75946000D01*
X61913874Y-75936100D01*
X61878343Y-75908307D01*
X60864309Y-74668931D01*
X60844262Y-74649319D01*
X60775116Y-74595233D01*
X60754097Y-74581890D01*
X60724742Y-74571362D01*
X60639096Y-74552096D01*
X60611224Y-74549000D01*
X51508000Y-74549000D01*
X51483224Y-74551440D01*
X51406687Y-74566664D01*
X51382862Y-74573891D01*
X51360905Y-74585628D01*
X51296021Y-74628983D01*
X51276776Y-74644777D01*
X51260983Y-74664021D01*
X51217628Y-74728905D01*
X51205892Y-74750861D01*
X51198664Y-74774687D01*
X51183440Y-74851224D01*
X51181000Y-74876000D01*
X51181000Y-75444000D01*
X48473626Y-75444000D01*
X48461073Y-75413695D01*
X48279406Y-75141812D01*
X48048188Y-74910594D01*
X47776305Y-74728927D01*
X47474204Y-74603793D01*
X47153496Y-74540000D01*
X46826504Y-74540000D01*
X46505796Y-74603793D01*
X46203695Y-74728927D01*
X45931812Y-74910594D01*
X45700594Y-75141812D01*
X45518927Y-75413695D01*
X45393793Y-75715796D01*
X45330000Y-76036504D01*
X45330000Y-76363496D01*
X45393793Y-76684204D01*
X45518927Y-76986305D01*
X45700594Y-77258188D01*
X45931812Y-77489406D01*
X46203695Y-77671073D01*
X46505796Y-77796207D01*
X46826504Y-77860000D01*
X47153496Y-77860000D01*
X47474204Y-77796207D01*
X47776305Y-77671073D01*
X48048188Y-77489406D01*
X48073594Y-77464000D01*
X51181000Y-77464000D01*
X51181000Y-80305491D01*
X51173144Y-80344984D01*
X51157859Y-80367859D01*
X51134984Y-80383144D01*
X51095491Y-80391000D01*
X42884509Y-80391000D01*
X42845016Y-80383144D01*
X42822141Y-80367859D01*
X42806856Y-80344984D01*
X42799000Y-80305491D01*
X42799000Y-72094509D01*
X42806856Y-72055016D01*
X42822141Y-72032141D01*
X42845016Y-72016856D01*
X42884509Y-72009000D01*
X66304125Y-72009000D01*
X66350661Y-72020172D01*
G37*
X66350661Y-72020172D02*
X66375296Y-72041212D01*
X66387694Y-72071145D01*
X66385152Y-72103445D01*
X66360150Y-72144244D01*
X64738776Y-73765618D01*
X64722983Y-73784863D01*
X64679628Y-73849748D01*
X64667891Y-73871705D01*
X64660664Y-73895530D01*
X64645440Y-73972067D01*
X64643000Y-73996843D01*
X64643000Y-75860491D01*
X64635144Y-75899984D01*
X64619859Y-75922859D01*
X64596984Y-75938144D01*
X64557491Y-75946000D01*
X61957885Y-75946000D01*
X61913874Y-75936100D01*
X61878343Y-75908307D01*
X60864309Y-74668931D01*
X60844262Y-74649319D01*
X60775116Y-74595233D01*
X60754097Y-74581890D01*
X60724742Y-74571362D01*
X60639096Y-74552096D01*
X60611224Y-74549000D01*
X51508000Y-74549000D01*
X51483224Y-74551440D01*
X51406687Y-74566664D01*
X51382862Y-74573891D01*
X51360905Y-74585628D01*
X51296021Y-74628983D01*
X51276776Y-74644777D01*
X51260983Y-74664021D01*
X51217628Y-74728905D01*
X51205892Y-74750861D01*
X51198664Y-74774687D01*
X51183440Y-74851224D01*
X51181000Y-74876000D01*
X51181000Y-75444000D01*
X48473626Y-75444000D01*
X48461073Y-75413695D01*
X48279406Y-75141812D01*
X48048188Y-74910594D01*
X47776305Y-74728927D01*
X47474204Y-74603793D01*
X47153496Y-74540000D01*
X46826504Y-74540000D01*
X46505796Y-74603793D01*
X46203695Y-74728927D01*
X45931812Y-74910594D01*
X45700594Y-75141812D01*
X45518927Y-75413695D01*
X45393793Y-75715796D01*
X45330000Y-76036504D01*
X45330000Y-76363496D01*
X45393793Y-76684204D01*
X45518927Y-76986305D01*
X45700594Y-77258188D01*
X45931812Y-77489406D01*
X46203695Y-77671073D01*
X46505796Y-77796207D01*
X46826504Y-77860000D01*
X47153496Y-77860000D01*
X47474204Y-77796207D01*
X47776305Y-77671073D01*
X48048188Y-77489406D01*
X48073594Y-77464000D01*
X51181000Y-77464000D01*
X51181000Y-80305491D01*
X51173144Y-80344984D01*
X51157859Y-80367859D01*
X51134984Y-80383144D01*
X51095491Y-80391000D01*
X42884509Y-80391000D01*
X42845016Y-80383144D01*
X42822141Y-80367859D01*
X42806856Y-80344984D01*
X42799000Y-80305491D01*
X42799000Y-72094509D01*
X42806856Y-72055016D01*
X42822141Y-72032141D01*
X42845016Y-72016856D01*
X42884509Y-72009000D01*
X66304125Y-72009000D01*
X66350661Y-72020172D01*
G36*
X59429902Y-76084825D02*
G01*
X59454718Y-76106950D01*
X59466343Y-76138095D01*
X59460054Y-76186891D01*
X58714842Y-78103152D01*
X58694904Y-78135312D01*
X58664719Y-78158150D01*
X58291662Y-78344679D01*
X58230997Y-78359000D01*
X56600509Y-78359000D01*
X56561016Y-78351144D01*
X56538141Y-78335859D01*
X56522856Y-78312984D01*
X56515000Y-78273491D01*
X56515000Y-76158509D01*
X56522856Y-76119016D01*
X56538141Y-76096141D01*
X56561016Y-76080856D01*
X56600509Y-76073000D01*
X59382142Y-76073000D01*
X59429902Y-76084825D01*
G37*
X59429902Y-76084825D02*
X59454718Y-76106950D01*
X59466343Y-76138095D01*
X59460054Y-76186891D01*
X58714842Y-78103152D01*
X58694904Y-78135312D01*
X58664719Y-78158150D01*
X58291662Y-78344679D01*
X58230997Y-78359000D01*
X56600509Y-78359000D01*
X56561016Y-78351144D01*
X56538141Y-78335859D01*
X56522856Y-78312984D01*
X56515000Y-78273491D01*
X56515000Y-76158509D01*
X56522856Y-76119016D01*
X56538141Y-76096141D01*
X56561016Y-76080856D01*
X56600509Y-76073000D01*
X59382142Y-76073000D01*
X59429902Y-76084825D01*
M02*
