M48
; DRILL file {KiCad 5.1.6-c6e7f7d~87~ubuntu19.10.1} date Mon Aug  2 21:20:58 2021
; FORMAT={-:-/ absolute / metric / decimal}
; #@! TF.CreationDate,2021-08-02T21:20:58-04:00
; #@! TF.GenerationSoftware,Kicad,Pcbnew,5.1.6-c6e7f7d~87~ubuntu19.10.1
; #@! TF.FileFunction,Plated,1,2,PTH
FMAT,2
METRIC
T1C0.400
T2C0.900
T3C1.000
T4C1.100
T5C1.250
T6C1.500
T7C1.700
%
G90
G05
T1
X53.721Y-83.947
X71.247Y-100.965
X71.882Y-98.298
X84.328Y-93.726
X84.836Y-90.932
X89.027Y-93.091
X91.059Y-81.534
X92.202Y-85.217
X94.107Y-73.025
X98.552Y-77.089
T2
X47.117Y-83.947
X47.117Y-86.487
T4
X69.215Y-95.377
X71.755Y-95.377
X74.295Y-95.377
T5
X106.158Y-68.7
X106.158Y-83.7
X121.158Y-68.7
X121.158Y-83.7
X68.319Y-68.7
X68.319Y-83.7
X83.319Y-68.7
X83.319Y-83.7
T6
X46.99Y-76.2
X137.414Y-76.2
T7
X44.45Y-73.66
X44.45Y-78.74
X49.53Y-73.66
X49.53Y-78.74
X134.874Y-73.66
X134.874Y-78.74
X139.954Y-73.66
X139.954Y-78.74
T3
X48.483Y-93.869G85X48.483Y-95.869
G05
X50.483Y-99.569G85X52.483Y-99.569
G05
X54.483Y-93.619G85X54.483Y-96.119
G05
T0
M30
