%FSLAX45Y45*%
G04 Gerber Fmt 4.5, Leading zero omitted, Abs format (unit mm)*
G04 Created by KiCad (PCBNEW 5.1.6-c6e7f7d~87~ubuntu19.10.1) date 2021-08-02 21:21:00*
%MOMM*%
%LPD*%
G01*
G04 APERTURE LIST*
%TA.AperFunction,Profile*%
%ADD10C,0.050000*%
%TD*%
%ADD11C,0.200000*%
%ADD12C,0.300000*%
G04 APERTURE END LIST*
D10*
X4152900Y-6311900D02*
X4152900Y-10756900D01*
X4152900Y-10756900D02*
X14312900Y-10756900D01*
X14312900Y-6311900D02*
X14312900Y-10756900D01*
X4152900Y-6311900D02*
X14312900Y-6311900D01*
D11*
X5352100Y-8374700D02*
X5392100Y-8414700D01*
X5392100Y-8374700D02*
X5352100Y-8414700D01*
X7104700Y-10076500D02*
X7144700Y-10116500D01*
X7144700Y-10076500D02*
X7104700Y-10116500D01*
X7168200Y-9809800D02*
X7208200Y-9849800D01*
X7208200Y-9809800D02*
X7168200Y-9849800D01*
X8412800Y-9352600D02*
X8452800Y-9392600D01*
X8452800Y-9352600D02*
X8412800Y-9392600D01*
X8463600Y-9073200D02*
X8503600Y-9113200D01*
X8503600Y-9073200D02*
X8463600Y-9113200D01*
X8882700Y-9289100D02*
X8922700Y-9329100D01*
X8922700Y-9289100D02*
X8882700Y-9329100D01*
X9085900Y-8133400D02*
X9125900Y-8173400D01*
X9125900Y-8133400D02*
X9085900Y-8173400D01*
X9200200Y-8501700D02*
X9240200Y-8541700D01*
X9240200Y-8501700D02*
X9200200Y-8541700D01*
X9390700Y-7282500D02*
X9430700Y-7322500D01*
X9430700Y-7282500D02*
X9390700Y-7322500D01*
X9835200Y-7688900D02*
X9875200Y-7728900D01*
X9875200Y-7688900D02*
X9835200Y-7728900D01*
X4756700Y-8394700D02*
G75*
G03*
X4756700Y-8394700I-45000J0D01*
G01*
X4756700Y-8648700D02*
G75*
G03*
X4756700Y-8648700I-45000J0D01*
G01*
X4848300Y-9436900D02*
X4848300Y-9536900D01*
X4798300Y-9486900D02*
X4898300Y-9486900D01*
X4808300Y-9386900D02*
X4808300Y-9586900D01*
X4888300Y-9386900D02*
X4888300Y-9586900D01*
X4808300Y-9586900D02*
G75*
G03*
X4888300Y-9586900I40000J0D01*
G01*
X4888300Y-9386900D02*
G75*
G03*
X4808300Y-9386900I-40000J0D01*
G01*
X5148300Y-9906900D02*
X5148300Y-10006900D01*
X5098300Y-9956900D02*
X5198300Y-9956900D01*
X5048300Y-9996900D02*
X5248300Y-9996900D01*
X5048300Y-9916900D02*
X5248300Y-9916900D01*
X5248300Y-9996900D02*
G75*
G03*
X5248300Y-9916900I0J40000D01*
G01*
X5048300Y-9916900D02*
G75*
G03*
X5048300Y-9996900I0J-40000D01*
G01*
X5448300Y-9436900D02*
X5448300Y-9536900D01*
X5398300Y-9486900D02*
X5498300Y-9486900D01*
X5408300Y-9361900D02*
X5408300Y-9611900D01*
X5488300Y-9361900D02*
X5488300Y-9611900D01*
X5408300Y-9611900D02*
G75*
G03*
X5488300Y-9611900I40000J0D01*
G01*
X5488300Y-9361900D02*
G75*
G03*
X5408300Y-9361900I-40000J0D01*
G01*
X6960391Y-9576591D02*
X6960391Y-9498809D01*
X6882609Y-9498809D01*
X6882609Y-9576591D01*
X6960391Y-9576591D01*
X7214391Y-9576591D02*
X7214391Y-9498809D01*
X7136609Y-9498809D01*
X7136609Y-9576591D01*
X7214391Y-9576591D01*
X7468391Y-9576591D02*
X7468391Y-9498809D01*
X7390609Y-9498809D01*
X7390609Y-9576591D01*
X7468391Y-9576591D01*
X10615800Y-6932500D02*
X10678300Y-6870000D01*
X10615800Y-6807500D01*
X10553300Y-6870000D01*
X10615800Y-6932500D01*
X10615800Y-8432500D02*
X10678300Y-8370000D01*
X10615800Y-8307500D01*
X10553300Y-8370000D01*
X10615800Y-8432500D01*
X12115800Y-6932500D02*
X12178300Y-6870000D01*
X12115800Y-6807500D01*
X12053300Y-6870000D01*
X12115800Y-6932500D01*
X12115800Y-8432500D02*
X12178300Y-8370000D01*
X12115800Y-8307500D01*
X12053300Y-8370000D01*
X12115800Y-8432500D01*
X6831900Y-6932500D02*
X6894400Y-6870000D01*
X6831900Y-6807500D01*
X6769400Y-6870000D01*
X6831900Y-6932500D01*
X6831900Y-8432500D02*
X6894400Y-8370000D01*
X6831900Y-8307500D01*
X6769400Y-8370000D01*
X6831900Y-8432500D01*
X8331900Y-6932500D02*
X8394400Y-6870000D01*
X8331900Y-6807500D01*
X8269400Y-6870000D01*
X8331900Y-6932500D01*
X8331900Y-8432500D02*
X8394400Y-8370000D01*
X8331900Y-8307500D01*
X8269400Y-8370000D01*
X8331900Y-8432500D01*
X4624000Y-7545000D02*
X4774000Y-7695000D01*
X4774000Y-7545000D02*
X4624000Y-7695000D01*
X4774000Y-7620000D02*
G75*
G03*
X4774000Y-7620000I-75000J0D01*
G01*
X13666400Y-7545000D02*
X13816400Y-7695000D01*
X13816400Y-7545000D02*
X13666400Y-7695000D01*
X13816400Y-7620000D02*
G75*
G03*
X13816400Y-7620000I-75000J0D01*
G01*
X4360000Y-7281000D02*
X4530000Y-7451000D01*
X4530000Y-7281000D02*
X4360000Y-7451000D01*
X4445000Y-7281000D02*
X4445000Y-7451000D01*
X4360000Y-7366000D02*
X4530000Y-7366000D01*
X4360000Y-7789000D02*
X4530000Y-7959000D01*
X4530000Y-7789000D02*
X4360000Y-7959000D01*
X4445000Y-7789000D02*
X4445000Y-7959000D01*
X4360000Y-7874000D02*
X4530000Y-7874000D01*
X4868000Y-7281000D02*
X5038000Y-7451000D01*
X5038000Y-7281000D02*
X4868000Y-7451000D01*
X4953000Y-7281000D02*
X4953000Y-7451000D01*
X4868000Y-7366000D02*
X5038000Y-7366000D01*
X4868000Y-7789000D02*
X5038000Y-7959000D01*
X5038000Y-7789000D02*
X4868000Y-7959000D01*
X4953000Y-7789000D02*
X4953000Y-7959000D01*
X4868000Y-7874000D02*
X5038000Y-7874000D01*
X13402400Y-7281000D02*
X13572400Y-7451000D01*
X13572400Y-7281000D02*
X13402400Y-7451000D01*
X13487400Y-7281000D02*
X13487400Y-7451000D01*
X13402400Y-7366000D02*
X13572400Y-7366000D01*
X13402400Y-7789000D02*
X13572400Y-7959000D01*
X13572400Y-7789000D02*
X13402400Y-7959000D01*
X13487400Y-7789000D02*
X13487400Y-7959000D01*
X13402400Y-7874000D02*
X13572400Y-7874000D01*
X13910400Y-7281000D02*
X14080400Y-7451000D01*
X14080400Y-7281000D02*
X13910400Y-7451000D01*
X13995400Y-7281000D02*
X13995400Y-7451000D01*
X13910400Y-7366000D02*
X14080400Y-7366000D01*
X13910400Y-7789000D02*
X14080400Y-7959000D01*
X14080400Y-7789000D02*
X13910400Y-7959000D01*
X13995400Y-7789000D02*
X13995400Y-7959000D01*
X13910400Y-7874000D02*
X14080400Y-7874000D01*
D12*
X4436828Y-11225114D02*
X4436828Y-10925114D01*
X4508257Y-10925114D01*
X4551114Y-10939400D01*
X4579686Y-10967972D01*
X4593971Y-10996543D01*
X4608257Y-11053686D01*
X4608257Y-11096543D01*
X4593971Y-11153686D01*
X4579686Y-11182257D01*
X4551114Y-11210829D01*
X4508257Y-11225114D01*
X4436828Y-11225114D01*
X4736828Y-11225114D02*
X4736828Y-11025114D01*
X4736828Y-11082257D02*
X4751114Y-11053686D01*
X4765400Y-11039400D01*
X4793971Y-11025114D01*
X4822543Y-11025114D01*
X4922543Y-11225114D02*
X4922543Y-11025114D01*
X4922543Y-10925114D02*
X4908257Y-10939400D01*
X4922543Y-10953686D01*
X4936828Y-10939400D01*
X4922543Y-10925114D01*
X4922543Y-10953686D01*
X5108257Y-11225114D02*
X5079686Y-11210829D01*
X5065400Y-11182257D01*
X5065400Y-10925114D01*
X5265400Y-11225114D02*
X5236828Y-11210829D01*
X5222543Y-11182257D01*
X5222543Y-10925114D01*
X5608257Y-11225114D02*
X5608257Y-10925114D01*
X5708257Y-11139400D01*
X5808257Y-10925114D01*
X5808257Y-11225114D01*
X6079686Y-11225114D02*
X6079686Y-11067972D01*
X6065400Y-11039400D01*
X6036828Y-11025114D01*
X5979686Y-11025114D01*
X5951114Y-11039400D01*
X6079686Y-11210829D02*
X6051114Y-11225114D01*
X5979686Y-11225114D01*
X5951114Y-11210829D01*
X5936828Y-11182257D01*
X5936828Y-11153686D01*
X5951114Y-11125114D01*
X5979686Y-11110829D01*
X6051114Y-11110829D01*
X6079686Y-11096543D01*
X6222543Y-11025114D02*
X6222543Y-11325114D01*
X6222543Y-11039400D02*
X6251114Y-11025114D01*
X6308257Y-11025114D01*
X6336828Y-11039400D01*
X6351114Y-11053686D01*
X6365400Y-11082257D01*
X6365400Y-11167972D01*
X6351114Y-11196543D01*
X6336828Y-11210829D01*
X6308257Y-11225114D01*
X6251114Y-11225114D01*
X6222543Y-11210829D01*
X6493971Y-11196543D02*
X6508257Y-11210829D01*
X6493971Y-11225114D01*
X6479686Y-11210829D01*
X6493971Y-11196543D01*
X6493971Y-11225114D01*
X6493971Y-11039400D02*
X6508257Y-11053686D01*
X6493971Y-11067972D01*
X6479686Y-11053686D01*
X6493971Y-11039400D01*
X6493971Y-11067972D01*
X4110400Y-11699400D02*
X4150400Y-11739400D01*
X4150400Y-11699400D02*
X4110400Y-11739400D01*
X4493971Y-11555114D02*
X4522543Y-11555114D01*
X4551114Y-11569400D01*
X4565400Y-11583686D01*
X4579686Y-11612257D01*
X4593971Y-11669400D01*
X4593971Y-11740829D01*
X4579686Y-11797971D01*
X4565400Y-11826543D01*
X4551114Y-11840829D01*
X4522543Y-11855114D01*
X4493971Y-11855114D01*
X4465400Y-11840829D01*
X4451114Y-11826543D01*
X4436828Y-11797971D01*
X4422543Y-11740829D01*
X4422543Y-11669400D01*
X4436828Y-11612257D01*
X4451114Y-11583686D01*
X4465400Y-11569400D01*
X4493971Y-11555114D01*
X4722543Y-11826543D02*
X4736828Y-11840829D01*
X4722543Y-11855114D01*
X4708257Y-11840829D01*
X4722543Y-11826543D01*
X4722543Y-11855114D01*
X4993971Y-11655114D02*
X4993971Y-11855114D01*
X4922543Y-11540829D02*
X4851114Y-11755114D01*
X5036828Y-11755114D01*
X5208257Y-11555114D02*
X5236828Y-11555114D01*
X5265400Y-11569400D01*
X5279686Y-11583686D01*
X5293971Y-11612257D01*
X5308257Y-11669400D01*
X5308257Y-11740829D01*
X5293971Y-11797971D01*
X5279686Y-11826543D01*
X5265400Y-11840829D01*
X5236828Y-11855114D01*
X5208257Y-11855114D01*
X5179686Y-11840829D01*
X5165400Y-11826543D01*
X5151114Y-11797971D01*
X5136828Y-11740829D01*
X5136828Y-11669400D01*
X5151114Y-11612257D01*
X5165400Y-11583686D01*
X5179686Y-11569400D01*
X5208257Y-11555114D01*
X5436828Y-11855114D02*
X5436828Y-11655114D01*
X5436828Y-11683686D02*
X5451114Y-11669400D01*
X5479686Y-11655114D01*
X5522543Y-11655114D01*
X5551114Y-11669400D01*
X5565400Y-11697971D01*
X5565400Y-11855114D01*
X5565400Y-11697971D02*
X5579686Y-11669400D01*
X5608257Y-11655114D01*
X5651114Y-11655114D01*
X5679686Y-11669400D01*
X5693971Y-11697971D01*
X5693971Y-11855114D01*
X5836828Y-11855114D02*
X5836828Y-11655114D01*
X5836828Y-11683686D02*
X5851114Y-11669400D01*
X5879686Y-11655114D01*
X5922543Y-11655114D01*
X5951114Y-11669400D01*
X5965400Y-11697971D01*
X5965400Y-11855114D01*
X5965400Y-11697971D02*
X5979686Y-11669400D01*
X6008257Y-11655114D01*
X6051114Y-11655114D01*
X6079686Y-11669400D01*
X6093971Y-11697971D01*
X6093971Y-11855114D01*
X6679686Y-11540829D02*
X6422543Y-11926543D01*
X7065400Y-11555114D02*
X7093971Y-11555114D01*
X7122543Y-11569400D01*
X7136828Y-11583686D01*
X7151114Y-11612257D01*
X7165400Y-11669400D01*
X7165400Y-11740829D01*
X7151114Y-11797971D01*
X7136828Y-11826543D01*
X7122543Y-11840829D01*
X7093971Y-11855114D01*
X7065400Y-11855114D01*
X7036828Y-11840829D01*
X7022543Y-11826543D01*
X7008257Y-11797971D01*
X6993971Y-11740829D01*
X6993971Y-11669400D01*
X7008257Y-11612257D01*
X7022543Y-11583686D01*
X7036828Y-11569400D01*
X7065400Y-11555114D01*
X7293971Y-11826543D02*
X7308257Y-11840829D01*
X7293971Y-11855114D01*
X7279686Y-11840829D01*
X7293971Y-11826543D01*
X7293971Y-11855114D01*
X7493971Y-11555114D02*
X7522543Y-11555114D01*
X7551114Y-11569400D01*
X7565400Y-11583686D01*
X7579686Y-11612257D01*
X7593971Y-11669400D01*
X7593971Y-11740829D01*
X7579686Y-11797971D01*
X7565400Y-11826543D01*
X7551114Y-11840829D01*
X7522543Y-11855114D01*
X7493971Y-11855114D01*
X7465400Y-11840829D01*
X7451114Y-11826543D01*
X7436828Y-11797971D01*
X7422543Y-11740829D01*
X7422543Y-11669400D01*
X7436828Y-11612257D01*
X7451114Y-11583686D01*
X7465400Y-11569400D01*
X7493971Y-11555114D01*
X7879686Y-11855114D02*
X7708257Y-11855114D01*
X7793971Y-11855114D02*
X7793971Y-11555114D01*
X7765400Y-11597971D01*
X7736828Y-11626543D01*
X7708257Y-11640829D01*
X8136828Y-11555114D02*
X8079686Y-11555114D01*
X8051114Y-11569400D01*
X8036828Y-11583686D01*
X8008257Y-11626543D01*
X7993971Y-11683686D01*
X7993971Y-11797971D01*
X8008257Y-11826543D01*
X8022543Y-11840829D01*
X8051114Y-11855114D01*
X8108257Y-11855114D01*
X8136828Y-11840829D01*
X8151114Y-11826543D01*
X8165400Y-11797971D01*
X8165400Y-11726543D01*
X8151114Y-11697971D01*
X8136828Y-11683686D01*
X8108257Y-11669400D01*
X8051114Y-11669400D01*
X8022543Y-11683686D01*
X8008257Y-11697971D01*
X7993971Y-11726543D01*
X8279686Y-11555114D02*
X8279686Y-11612257D01*
X8393971Y-11555114D02*
X8393971Y-11612257D01*
X8836828Y-11969400D02*
X8822543Y-11955114D01*
X8793971Y-11912257D01*
X8779686Y-11883686D01*
X8765400Y-11840829D01*
X8751114Y-11769400D01*
X8751114Y-11712257D01*
X8765400Y-11640829D01*
X8779686Y-11597971D01*
X8793971Y-11569400D01*
X8822543Y-11526543D01*
X8836828Y-11512257D01*
X9108257Y-11855114D02*
X8936828Y-11855114D01*
X9022543Y-11855114D02*
X9022543Y-11555114D01*
X8993971Y-11597971D01*
X8965400Y-11626543D01*
X8936828Y-11640829D01*
X9293971Y-11555114D02*
X9322543Y-11555114D01*
X9351114Y-11569400D01*
X9365400Y-11583686D01*
X9379686Y-11612257D01*
X9393971Y-11669400D01*
X9393971Y-11740829D01*
X9379686Y-11797971D01*
X9365400Y-11826543D01*
X9351114Y-11840829D01*
X9322543Y-11855114D01*
X9293971Y-11855114D01*
X9265400Y-11840829D01*
X9251114Y-11826543D01*
X9236828Y-11797971D01*
X9222543Y-11740829D01*
X9222543Y-11669400D01*
X9236828Y-11612257D01*
X9251114Y-11583686D01*
X9265400Y-11569400D01*
X9293971Y-11555114D01*
X9751114Y-11855114D02*
X9751114Y-11555114D01*
X9879686Y-11855114D02*
X9879686Y-11697971D01*
X9865400Y-11669400D01*
X9836828Y-11655114D01*
X9793971Y-11655114D01*
X9765400Y-11669400D01*
X9751114Y-11683686D01*
X10065400Y-11855114D02*
X10036828Y-11840829D01*
X10022543Y-11826543D01*
X10008257Y-11797971D01*
X10008257Y-11712257D01*
X10022543Y-11683686D01*
X10036828Y-11669400D01*
X10065400Y-11655114D01*
X10108257Y-11655114D01*
X10136828Y-11669400D01*
X10151114Y-11683686D01*
X10165400Y-11712257D01*
X10165400Y-11797971D01*
X10151114Y-11826543D01*
X10136828Y-11840829D01*
X10108257Y-11855114D01*
X10065400Y-11855114D01*
X10336828Y-11855114D02*
X10308257Y-11840829D01*
X10293971Y-11812257D01*
X10293971Y-11555114D01*
X10565400Y-11840829D02*
X10536828Y-11855114D01*
X10479686Y-11855114D01*
X10451114Y-11840829D01*
X10436828Y-11812257D01*
X10436828Y-11697971D01*
X10451114Y-11669400D01*
X10479686Y-11655114D01*
X10536828Y-11655114D01*
X10565400Y-11669400D01*
X10579686Y-11697971D01*
X10579686Y-11726543D01*
X10436828Y-11755114D01*
X10693971Y-11840829D02*
X10722543Y-11855114D01*
X10779686Y-11855114D01*
X10808257Y-11840829D01*
X10822543Y-11812257D01*
X10822543Y-11797971D01*
X10808257Y-11769400D01*
X10779686Y-11755114D01*
X10736828Y-11755114D01*
X10708257Y-11740829D01*
X10693971Y-11712257D01*
X10693971Y-11697971D01*
X10708257Y-11669400D01*
X10736828Y-11655114D01*
X10779686Y-11655114D01*
X10808257Y-11669400D01*
X10922543Y-11969400D02*
X10936828Y-11955114D01*
X10965400Y-11912257D01*
X10979686Y-11883686D01*
X10993971Y-11840829D01*
X11008257Y-11769400D01*
X11008257Y-11712257D01*
X10993971Y-11640829D01*
X10979686Y-11597971D01*
X10965400Y-11569400D01*
X10936828Y-11526543D01*
X10922543Y-11512257D01*
X4150400Y-12115400D02*
G75*
G03*
X4150400Y-12115400I-45000J0D01*
G01*
X4493971Y-11951114D02*
X4522543Y-11951114D01*
X4551114Y-11965400D01*
X4565400Y-11979686D01*
X4579686Y-12008257D01*
X4593971Y-12065400D01*
X4593971Y-12136829D01*
X4579686Y-12193971D01*
X4565400Y-12222543D01*
X4551114Y-12236829D01*
X4522543Y-12251114D01*
X4493971Y-12251114D01*
X4465400Y-12236829D01*
X4451114Y-12222543D01*
X4436828Y-12193971D01*
X4422543Y-12136829D01*
X4422543Y-12065400D01*
X4436828Y-12008257D01*
X4451114Y-11979686D01*
X4465400Y-11965400D01*
X4493971Y-11951114D01*
X4722543Y-12222543D02*
X4736828Y-12236829D01*
X4722543Y-12251114D01*
X4708257Y-12236829D01*
X4722543Y-12222543D01*
X4722543Y-12251114D01*
X4879686Y-12251114D02*
X4936828Y-12251114D01*
X4965400Y-12236829D01*
X4979686Y-12222543D01*
X5008257Y-12179686D01*
X5022543Y-12122543D01*
X5022543Y-12008257D01*
X5008257Y-11979686D01*
X4993971Y-11965400D01*
X4965400Y-11951114D01*
X4908257Y-11951114D01*
X4879686Y-11965400D01*
X4865400Y-11979686D01*
X4851114Y-12008257D01*
X4851114Y-12079686D01*
X4865400Y-12108257D01*
X4879686Y-12122543D01*
X4908257Y-12136829D01*
X4965400Y-12136829D01*
X4993971Y-12122543D01*
X5008257Y-12108257D01*
X5022543Y-12079686D01*
X5208257Y-11951114D02*
X5236828Y-11951114D01*
X5265400Y-11965400D01*
X5279686Y-11979686D01*
X5293971Y-12008257D01*
X5308257Y-12065400D01*
X5308257Y-12136829D01*
X5293971Y-12193971D01*
X5279686Y-12222543D01*
X5265400Y-12236829D01*
X5236828Y-12251114D01*
X5208257Y-12251114D01*
X5179686Y-12236829D01*
X5165400Y-12222543D01*
X5151114Y-12193971D01*
X5136828Y-12136829D01*
X5136828Y-12065400D01*
X5151114Y-12008257D01*
X5165400Y-11979686D01*
X5179686Y-11965400D01*
X5208257Y-11951114D01*
X5436828Y-12251114D02*
X5436828Y-12051114D01*
X5436828Y-12079686D02*
X5451114Y-12065400D01*
X5479686Y-12051114D01*
X5522543Y-12051114D01*
X5551114Y-12065400D01*
X5565400Y-12093971D01*
X5565400Y-12251114D01*
X5565400Y-12093971D02*
X5579686Y-12065400D01*
X5608257Y-12051114D01*
X5651114Y-12051114D01*
X5679686Y-12065400D01*
X5693971Y-12093971D01*
X5693971Y-12251114D01*
X5836828Y-12251114D02*
X5836828Y-12051114D01*
X5836828Y-12079686D02*
X5851114Y-12065400D01*
X5879686Y-12051114D01*
X5922543Y-12051114D01*
X5951114Y-12065400D01*
X5965400Y-12093971D01*
X5965400Y-12251114D01*
X5965400Y-12093971D02*
X5979686Y-12065400D01*
X6008257Y-12051114D01*
X6051114Y-12051114D01*
X6079686Y-12065400D01*
X6093971Y-12093971D01*
X6093971Y-12251114D01*
X6679686Y-11936829D02*
X6422543Y-12322543D01*
X7065400Y-11951114D02*
X7093971Y-11951114D01*
X7122543Y-11965400D01*
X7136828Y-11979686D01*
X7151114Y-12008257D01*
X7165400Y-12065400D01*
X7165400Y-12136829D01*
X7151114Y-12193971D01*
X7136828Y-12222543D01*
X7122543Y-12236829D01*
X7093971Y-12251114D01*
X7065400Y-12251114D01*
X7036828Y-12236829D01*
X7022543Y-12222543D01*
X7008257Y-12193971D01*
X6993971Y-12136829D01*
X6993971Y-12065400D01*
X7008257Y-12008257D01*
X7022543Y-11979686D01*
X7036828Y-11965400D01*
X7065400Y-11951114D01*
X7293971Y-12222543D02*
X7308257Y-12236829D01*
X7293971Y-12251114D01*
X7279686Y-12236829D01*
X7293971Y-12222543D01*
X7293971Y-12251114D01*
X7493971Y-11951114D02*
X7522543Y-11951114D01*
X7551114Y-11965400D01*
X7565400Y-11979686D01*
X7579686Y-12008257D01*
X7593971Y-12065400D01*
X7593971Y-12136829D01*
X7579686Y-12193971D01*
X7565400Y-12222543D01*
X7551114Y-12236829D01*
X7522543Y-12251114D01*
X7493971Y-12251114D01*
X7465400Y-12236829D01*
X7451114Y-12222543D01*
X7436828Y-12193971D01*
X7422543Y-12136829D01*
X7422543Y-12065400D01*
X7436828Y-12008257D01*
X7451114Y-11979686D01*
X7465400Y-11965400D01*
X7493971Y-11951114D01*
X7693971Y-11951114D02*
X7879686Y-11951114D01*
X7779686Y-12065400D01*
X7822543Y-12065400D01*
X7851114Y-12079686D01*
X7865400Y-12093971D01*
X7879686Y-12122543D01*
X7879686Y-12193971D01*
X7865400Y-12222543D01*
X7851114Y-12236829D01*
X7822543Y-12251114D01*
X7736828Y-12251114D01*
X7708257Y-12236829D01*
X7693971Y-12222543D01*
X8151114Y-11951114D02*
X8008257Y-11951114D01*
X7993971Y-12093971D01*
X8008257Y-12079686D01*
X8036828Y-12065400D01*
X8108257Y-12065400D01*
X8136828Y-12079686D01*
X8151114Y-12093971D01*
X8165400Y-12122543D01*
X8165400Y-12193971D01*
X8151114Y-12222543D01*
X8136828Y-12236829D01*
X8108257Y-12251114D01*
X8036828Y-12251114D01*
X8008257Y-12236829D01*
X7993971Y-12222543D01*
X8279686Y-11951114D02*
X8279686Y-12008257D01*
X8393971Y-11951114D02*
X8393971Y-12008257D01*
X8836828Y-12365400D02*
X8822543Y-12351114D01*
X8793971Y-12308257D01*
X8779686Y-12279686D01*
X8765400Y-12236829D01*
X8751114Y-12165400D01*
X8751114Y-12108257D01*
X8765400Y-12036829D01*
X8779686Y-11993971D01*
X8793971Y-11965400D01*
X8822543Y-11922543D01*
X8836828Y-11908257D01*
X8936828Y-11979686D02*
X8951114Y-11965400D01*
X8979686Y-11951114D01*
X9051114Y-11951114D01*
X9079686Y-11965400D01*
X9093971Y-11979686D01*
X9108257Y-12008257D01*
X9108257Y-12036829D01*
X9093971Y-12079686D01*
X8922543Y-12251114D01*
X9108257Y-12251114D01*
X9465400Y-12251114D02*
X9465400Y-11951114D01*
X9593971Y-12251114D02*
X9593971Y-12093971D01*
X9579686Y-12065400D01*
X9551114Y-12051114D01*
X9508257Y-12051114D01*
X9479686Y-12065400D01*
X9465400Y-12079686D01*
X9779686Y-12251114D02*
X9751114Y-12236829D01*
X9736828Y-12222543D01*
X9722543Y-12193971D01*
X9722543Y-12108257D01*
X9736828Y-12079686D01*
X9751114Y-12065400D01*
X9779686Y-12051114D01*
X9822543Y-12051114D01*
X9851114Y-12065400D01*
X9865400Y-12079686D01*
X9879686Y-12108257D01*
X9879686Y-12193971D01*
X9865400Y-12222543D01*
X9851114Y-12236829D01*
X9822543Y-12251114D01*
X9779686Y-12251114D01*
X10051114Y-12251114D02*
X10022543Y-12236829D01*
X10008257Y-12208257D01*
X10008257Y-11951114D01*
X10279686Y-12236829D02*
X10251114Y-12251114D01*
X10193971Y-12251114D01*
X10165400Y-12236829D01*
X10151114Y-12208257D01*
X10151114Y-12093971D01*
X10165400Y-12065400D01*
X10193971Y-12051114D01*
X10251114Y-12051114D01*
X10279686Y-12065400D01*
X10293971Y-12093971D01*
X10293971Y-12122543D01*
X10151114Y-12151114D01*
X10408257Y-12236829D02*
X10436828Y-12251114D01*
X10493971Y-12251114D01*
X10522543Y-12236829D01*
X10536828Y-12208257D01*
X10536828Y-12193971D01*
X10522543Y-12165400D01*
X10493971Y-12151114D01*
X10451114Y-12151114D01*
X10422543Y-12136829D01*
X10408257Y-12108257D01*
X10408257Y-12093971D01*
X10422543Y-12065400D01*
X10451114Y-12051114D01*
X10493971Y-12051114D01*
X10522543Y-12065400D01*
X10636828Y-12365400D02*
X10651114Y-12351114D01*
X10679686Y-12308257D01*
X10693971Y-12279686D01*
X10708257Y-12236829D01*
X10722543Y-12165400D01*
X10722543Y-12108257D01*
X10708257Y-12036829D01*
X10693971Y-11993971D01*
X10679686Y-11965400D01*
X10651114Y-11922543D01*
X10636828Y-11908257D01*
X4100400Y-12461400D02*
X4100400Y-12561400D01*
X4050400Y-12511400D02*
X4150400Y-12511400D01*
X4593971Y-12647114D02*
X4422543Y-12647114D01*
X4508257Y-12647114D02*
X4508257Y-12347114D01*
X4479686Y-12389971D01*
X4451114Y-12418543D01*
X4422543Y-12432829D01*
X4722543Y-12618543D02*
X4736828Y-12632829D01*
X4722543Y-12647114D01*
X4708257Y-12632829D01*
X4722543Y-12618543D01*
X4722543Y-12647114D01*
X4922543Y-12347114D02*
X4951114Y-12347114D01*
X4979686Y-12361400D01*
X4993971Y-12375686D01*
X5008257Y-12404257D01*
X5022543Y-12461400D01*
X5022543Y-12532829D01*
X5008257Y-12589971D01*
X4993971Y-12618543D01*
X4979686Y-12632829D01*
X4951114Y-12647114D01*
X4922543Y-12647114D01*
X4893971Y-12632829D01*
X4879686Y-12618543D01*
X4865400Y-12589971D01*
X4851114Y-12532829D01*
X4851114Y-12461400D01*
X4865400Y-12404257D01*
X4879686Y-12375686D01*
X4893971Y-12361400D01*
X4922543Y-12347114D01*
X5208257Y-12347114D02*
X5236828Y-12347114D01*
X5265400Y-12361400D01*
X5279686Y-12375686D01*
X5293971Y-12404257D01*
X5308257Y-12461400D01*
X5308257Y-12532829D01*
X5293971Y-12589971D01*
X5279686Y-12618543D01*
X5265400Y-12632829D01*
X5236828Y-12647114D01*
X5208257Y-12647114D01*
X5179686Y-12632829D01*
X5165400Y-12618543D01*
X5151114Y-12589971D01*
X5136828Y-12532829D01*
X5136828Y-12461400D01*
X5151114Y-12404257D01*
X5165400Y-12375686D01*
X5179686Y-12361400D01*
X5208257Y-12347114D01*
X5436828Y-12647114D02*
X5436828Y-12447114D01*
X5436828Y-12475686D02*
X5451114Y-12461400D01*
X5479686Y-12447114D01*
X5522543Y-12447114D01*
X5551114Y-12461400D01*
X5565400Y-12489971D01*
X5565400Y-12647114D01*
X5565400Y-12489971D02*
X5579686Y-12461400D01*
X5608257Y-12447114D01*
X5651114Y-12447114D01*
X5679686Y-12461400D01*
X5693971Y-12489971D01*
X5693971Y-12647114D01*
X5836828Y-12647114D02*
X5836828Y-12447114D01*
X5836828Y-12475686D02*
X5851114Y-12461400D01*
X5879686Y-12447114D01*
X5922543Y-12447114D01*
X5951114Y-12461400D01*
X5965400Y-12489971D01*
X5965400Y-12647114D01*
X5965400Y-12489971D02*
X5979686Y-12461400D01*
X6008257Y-12447114D01*
X6051114Y-12447114D01*
X6079686Y-12461400D01*
X6093971Y-12489971D01*
X6093971Y-12647114D01*
X6679686Y-12332829D02*
X6422543Y-12718543D01*
X7065400Y-12347114D02*
X7093971Y-12347114D01*
X7122543Y-12361400D01*
X7136828Y-12375686D01*
X7151114Y-12404257D01*
X7165400Y-12461400D01*
X7165400Y-12532829D01*
X7151114Y-12589971D01*
X7136828Y-12618543D01*
X7122543Y-12632829D01*
X7093971Y-12647114D01*
X7065400Y-12647114D01*
X7036828Y-12632829D01*
X7022543Y-12618543D01*
X7008257Y-12589971D01*
X6993971Y-12532829D01*
X6993971Y-12461400D01*
X7008257Y-12404257D01*
X7022543Y-12375686D01*
X7036828Y-12361400D01*
X7065400Y-12347114D01*
X7293971Y-12618543D02*
X7308257Y-12632829D01*
X7293971Y-12647114D01*
X7279686Y-12632829D01*
X7293971Y-12618543D01*
X7293971Y-12647114D01*
X7493971Y-12347114D02*
X7522543Y-12347114D01*
X7551114Y-12361400D01*
X7565400Y-12375686D01*
X7579686Y-12404257D01*
X7593971Y-12461400D01*
X7593971Y-12532829D01*
X7579686Y-12589971D01*
X7565400Y-12618543D01*
X7551114Y-12632829D01*
X7522543Y-12647114D01*
X7493971Y-12647114D01*
X7465400Y-12632829D01*
X7451114Y-12618543D01*
X7436828Y-12589971D01*
X7422543Y-12532829D01*
X7422543Y-12461400D01*
X7436828Y-12404257D01*
X7451114Y-12375686D01*
X7465400Y-12361400D01*
X7493971Y-12347114D01*
X7693971Y-12347114D02*
X7879686Y-12347114D01*
X7779686Y-12461400D01*
X7822543Y-12461400D01*
X7851114Y-12475686D01*
X7865400Y-12489971D01*
X7879686Y-12518543D01*
X7879686Y-12589971D01*
X7865400Y-12618543D01*
X7851114Y-12632829D01*
X7822543Y-12647114D01*
X7736828Y-12647114D01*
X7708257Y-12632829D01*
X7693971Y-12618543D01*
X8022543Y-12647114D02*
X8079686Y-12647114D01*
X8108257Y-12632829D01*
X8122543Y-12618543D01*
X8151114Y-12575686D01*
X8165400Y-12518543D01*
X8165400Y-12404257D01*
X8151114Y-12375686D01*
X8136828Y-12361400D01*
X8108257Y-12347114D01*
X8051114Y-12347114D01*
X8022543Y-12361400D01*
X8008257Y-12375686D01*
X7993971Y-12404257D01*
X7993971Y-12475686D01*
X8008257Y-12504257D01*
X8022543Y-12518543D01*
X8051114Y-12532829D01*
X8108257Y-12532829D01*
X8136828Y-12518543D01*
X8151114Y-12504257D01*
X8165400Y-12475686D01*
X8279686Y-12347114D02*
X8279686Y-12404257D01*
X8393971Y-12347114D02*
X8393971Y-12404257D01*
X8836828Y-12761400D02*
X8822543Y-12747114D01*
X8793971Y-12704257D01*
X8779686Y-12675686D01*
X8765400Y-12632829D01*
X8751114Y-12561400D01*
X8751114Y-12504257D01*
X8765400Y-12432829D01*
X8779686Y-12389971D01*
X8793971Y-12361400D01*
X8822543Y-12318543D01*
X8836828Y-12304257D01*
X9008257Y-12347114D02*
X9036828Y-12347114D01*
X9065400Y-12361400D01*
X9079686Y-12375686D01*
X9093971Y-12404257D01*
X9108257Y-12461400D01*
X9108257Y-12532829D01*
X9093971Y-12589971D01*
X9079686Y-12618543D01*
X9065400Y-12632829D01*
X9036828Y-12647114D01*
X9008257Y-12647114D01*
X8979686Y-12632829D01*
X8965400Y-12618543D01*
X8951114Y-12589971D01*
X8936828Y-12532829D01*
X8936828Y-12461400D01*
X8951114Y-12404257D01*
X8965400Y-12375686D01*
X8979686Y-12361400D01*
X9008257Y-12347114D01*
X9465400Y-12647114D02*
X9465400Y-12347114D01*
X9593971Y-12647114D02*
X9593971Y-12489971D01*
X9579686Y-12461400D01*
X9551114Y-12447114D01*
X9508257Y-12447114D01*
X9479686Y-12461400D01*
X9465400Y-12475686D01*
X9779686Y-12647114D02*
X9751114Y-12632829D01*
X9736828Y-12618543D01*
X9722543Y-12589971D01*
X9722543Y-12504257D01*
X9736828Y-12475686D01*
X9751114Y-12461400D01*
X9779686Y-12447114D01*
X9822543Y-12447114D01*
X9851114Y-12461400D01*
X9865400Y-12475686D01*
X9879686Y-12504257D01*
X9879686Y-12589971D01*
X9865400Y-12618543D01*
X9851114Y-12632829D01*
X9822543Y-12647114D01*
X9779686Y-12647114D01*
X10051114Y-12647114D02*
X10022543Y-12632829D01*
X10008257Y-12604257D01*
X10008257Y-12347114D01*
X10279686Y-12632829D02*
X10251114Y-12647114D01*
X10193971Y-12647114D01*
X10165400Y-12632829D01*
X10151114Y-12604257D01*
X10151114Y-12489971D01*
X10165400Y-12461400D01*
X10193971Y-12447114D01*
X10251114Y-12447114D01*
X10279686Y-12461400D01*
X10293971Y-12489971D01*
X10293971Y-12518543D01*
X10151114Y-12547114D01*
X10408257Y-12632829D02*
X10436828Y-12647114D01*
X10493971Y-12647114D01*
X10522543Y-12632829D01*
X10536828Y-12604257D01*
X10536828Y-12589971D01*
X10522543Y-12561400D01*
X10493971Y-12547114D01*
X10451114Y-12547114D01*
X10422543Y-12532829D01*
X10408257Y-12504257D01*
X10408257Y-12489971D01*
X10422543Y-12461400D01*
X10451114Y-12447114D01*
X10493971Y-12447114D01*
X10522543Y-12461400D01*
X10893971Y-12532829D02*
X11122543Y-12532829D01*
X11008257Y-12647114D02*
X11008257Y-12418543D01*
X11465400Y-12347114D02*
X11651114Y-12347114D01*
X11551114Y-12461400D01*
X11593971Y-12461400D01*
X11622543Y-12475686D01*
X11636828Y-12489971D01*
X11651114Y-12518543D01*
X11651114Y-12589971D01*
X11636828Y-12618543D01*
X11622543Y-12632829D01*
X11593971Y-12647114D01*
X11508257Y-12647114D01*
X11479686Y-12632829D01*
X11465400Y-12618543D01*
X11993971Y-12632829D02*
X12022543Y-12647114D01*
X12079686Y-12647114D01*
X12108257Y-12632829D01*
X12122543Y-12604257D01*
X12122543Y-12589971D01*
X12108257Y-12561400D01*
X12079686Y-12547114D01*
X12036828Y-12547114D01*
X12008257Y-12532829D01*
X11993971Y-12504257D01*
X11993971Y-12489971D01*
X12008257Y-12461400D01*
X12036828Y-12447114D01*
X12079686Y-12447114D01*
X12108257Y-12461400D01*
X12293971Y-12647114D02*
X12265400Y-12632829D01*
X12251114Y-12604257D01*
X12251114Y-12347114D01*
X12451114Y-12647114D02*
X12422543Y-12632829D01*
X12408257Y-12618543D01*
X12393971Y-12589971D01*
X12393971Y-12504257D01*
X12408257Y-12475686D01*
X12422543Y-12461400D01*
X12451114Y-12447114D01*
X12493971Y-12447114D01*
X12522543Y-12461400D01*
X12536828Y-12475686D01*
X12551114Y-12504257D01*
X12551114Y-12589971D01*
X12536828Y-12618543D01*
X12522543Y-12632829D01*
X12493971Y-12647114D01*
X12451114Y-12647114D01*
X12636828Y-12447114D02*
X12751114Y-12447114D01*
X12679686Y-12347114D02*
X12679686Y-12604257D01*
X12693971Y-12632829D01*
X12722543Y-12647114D01*
X12751114Y-12647114D01*
X12836828Y-12632829D02*
X12865400Y-12647114D01*
X12922543Y-12647114D01*
X12951114Y-12632829D01*
X12965400Y-12604257D01*
X12965400Y-12589971D01*
X12951114Y-12561400D01*
X12922543Y-12547114D01*
X12879686Y-12547114D01*
X12851114Y-12532829D01*
X12836828Y-12504257D01*
X12836828Y-12489971D01*
X12851114Y-12461400D01*
X12879686Y-12447114D01*
X12922543Y-12447114D01*
X12951114Y-12461400D01*
X13065400Y-12761400D02*
X13079686Y-12747114D01*
X13108257Y-12704257D01*
X13122543Y-12675686D01*
X13136828Y-12632829D01*
X13151114Y-12561400D01*
X13151114Y-12504257D01*
X13136828Y-12432829D01*
X13122543Y-12389971D01*
X13108257Y-12361400D01*
X13079686Y-12318543D01*
X13065400Y-12304257D01*
X4134291Y-12946291D02*
X4134291Y-12868509D01*
X4056509Y-12868509D01*
X4056509Y-12946291D01*
X4134291Y-12946291D01*
X4593971Y-13043114D02*
X4422543Y-13043114D01*
X4508257Y-13043114D02*
X4508257Y-12743114D01*
X4479686Y-12785971D01*
X4451114Y-12814543D01*
X4422543Y-12828829D01*
X4722543Y-13014543D02*
X4736828Y-13028829D01*
X4722543Y-13043114D01*
X4708257Y-13028829D01*
X4722543Y-13014543D01*
X4722543Y-13043114D01*
X5022543Y-13043114D02*
X4851114Y-13043114D01*
X4936828Y-13043114D02*
X4936828Y-12743114D01*
X4908257Y-12785971D01*
X4879686Y-12814543D01*
X4851114Y-12828829D01*
X5208257Y-12743114D02*
X5236828Y-12743114D01*
X5265400Y-12757400D01*
X5279686Y-12771686D01*
X5293971Y-12800257D01*
X5308257Y-12857400D01*
X5308257Y-12928829D01*
X5293971Y-12985971D01*
X5279686Y-13014543D01*
X5265400Y-13028829D01*
X5236828Y-13043114D01*
X5208257Y-13043114D01*
X5179686Y-13028829D01*
X5165400Y-13014543D01*
X5151114Y-12985971D01*
X5136828Y-12928829D01*
X5136828Y-12857400D01*
X5151114Y-12800257D01*
X5165400Y-12771686D01*
X5179686Y-12757400D01*
X5208257Y-12743114D01*
X5436828Y-13043114D02*
X5436828Y-12843114D01*
X5436828Y-12871686D02*
X5451114Y-12857400D01*
X5479686Y-12843114D01*
X5522543Y-12843114D01*
X5551114Y-12857400D01*
X5565400Y-12885971D01*
X5565400Y-13043114D01*
X5565400Y-12885971D02*
X5579686Y-12857400D01*
X5608257Y-12843114D01*
X5651114Y-12843114D01*
X5679686Y-12857400D01*
X5693971Y-12885971D01*
X5693971Y-13043114D01*
X5836828Y-13043114D02*
X5836828Y-12843114D01*
X5836828Y-12871686D02*
X5851114Y-12857400D01*
X5879686Y-12843114D01*
X5922543Y-12843114D01*
X5951114Y-12857400D01*
X5965400Y-12885971D01*
X5965400Y-13043114D01*
X5965400Y-12885971D02*
X5979686Y-12857400D01*
X6008257Y-12843114D01*
X6051114Y-12843114D01*
X6079686Y-12857400D01*
X6093971Y-12885971D01*
X6093971Y-13043114D01*
X6679686Y-12728829D02*
X6422543Y-13114543D01*
X7065400Y-12743114D02*
X7093971Y-12743114D01*
X7122543Y-12757400D01*
X7136828Y-12771686D01*
X7151114Y-12800257D01*
X7165400Y-12857400D01*
X7165400Y-12928829D01*
X7151114Y-12985971D01*
X7136828Y-13014543D01*
X7122543Y-13028829D01*
X7093971Y-13043114D01*
X7065400Y-13043114D01*
X7036828Y-13028829D01*
X7022543Y-13014543D01*
X7008257Y-12985971D01*
X6993971Y-12928829D01*
X6993971Y-12857400D01*
X7008257Y-12800257D01*
X7022543Y-12771686D01*
X7036828Y-12757400D01*
X7065400Y-12743114D01*
X7293971Y-13014543D02*
X7308257Y-13028829D01*
X7293971Y-13043114D01*
X7279686Y-13028829D01*
X7293971Y-13014543D01*
X7293971Y-13043114D01*
X7493971Y-12743114D02*
X7522543Y-12743114D01*
X7551114Y-12757400D01*
X7565400Y-12771686D01*
X7579686Y-12800257D01*
X7593971Y-12857400D01*
X7593971Y-12928829D01*
X7579686Y-12985971D01*
X7565400Y-13014543D01*
X7551114Y-13028829D01*
X7522543Y-13043114D01*
X7493971Y-13043114D01*
X7465400Y-13028829D01*
X7451114Y-13014543D01*
X7436828Y-12985971D01*
X7422543Y-12928829D01*
X7422543Y-12857400D01*
X7436828Y-12800257D01*
X7451114Y-12771686D01*
X7465400Y-12757400D01*
X7493971Y-12743114D01*
X7851114Y-12843114D02*
X7851114Y-13043114D01*
X7779686Y-12728829D02*
X7708257Y-12943114D01*
X7893971Y-12943114D01*
X7979686Y-12743114D02*
X8165400Y-12743114D01*
X8065400Y-12857400D01*
X8108257Y-12857400D01*
X8136828Y-12871686D01*
X8151114Y-12885971D01*
X8165400Y-12914543D01*
X8165400Y-12985971D01*
X8151114Y-13014543D01*
X8136828Y-13028829D01*
X8108257Y-13043114D01*
X8022543Y-13043114D01*
X7993971Y-13028829D01*
X7979686Y-13014543D01*
X8279686Y-12743114D02*
X8279686Y-12800257D01*
X8393971Y-12743114D02*
X8393971Y-12800257D01*
X8836828Y-13157400D02*
X8822543Y-13143114D01*
X8793971Y-13100257D01*
X8779686Y-13071686D01*
X8765400Y-13028829D01*
X8751114Y-12957400D01*
X8751114Y-12900257D01*
X8765400Y-12828829D01*
X8779686Y-12785971D01*
X8793971Y-12757400D01*
X8822543Y-12714543D01*
X8836828Y-12700257D01*
X8922543Y-12743114D02*
X9108257Y-12743114D01*
X9008257Y-12857400D01*
X9051114Y-12857400D01*
X9079686Y-12871686D01*
X9093971Y-12885971D01*
X9108257Y-12914543D01*
X9108257Y-12985971D01*
X9093971Y-13014543D01*
X9079686Y-13028829D01*
X9051114Y-13043114D01*
X8965400Y-13043114D01*
X8936828Y-13028829D01*
X8922543Y-13014543D01*
X9465400Y-13043114D02*
X9465400Y-12743114D01*
X9593971Y-13043114D02*
X9593971Y-12885971D01*
X9579686Y-12857400D01*
X9551114Y-12843114D01*
X9508257Y-12843114D01*
X9479686Y-12857400D01*
X9465400Y-12871686D01*
X9779686Y-13043114D02*
X9751114Y-13028829D01*
X9736828Y-13014543D01*
X9722543Y-12985971D01*
X9722543Y-12900257D01*
X9736828Y-12871686D01*
X9751114Y-12857400D01*
X9779686Y-12843114D01*
X9822543Y-12843114D01*
X9851114Y-12857400D01*
X9865400Y-12871686D01*
X9879686Y-12900257D01*
X9879686Y-12985971D01*
X9865400Y-13014543D01*
X9851114Y-13028829D01*
X9822543Y-13043114D01*
X9779686Y-13043114D01*
X10051114Y-13043114D02*
X10022543Y-13028829D01*
X10008257Y-13000257D01*
X10008257Y-12743114D01*
X10279686Y-13028829D02*
X10251114Y-13043114D01*
X10193971Y-13043114D01*
X10165400Y-13028829D01*
X10151114Y-13000257D01*
X10151114Y-12885971D01*
X10165400Y-12857400D01*
X10193971Y-12843114D01*
X10251114Y-12843114D01*
X10279686Y-12857400D01*
X10293971Y-12885971D01*
X10293971Y-12914543D01*
X10151114Y-12943114D01*
X10408257Y-13028829D02*
X10436828Y-13043114D01*
X10493971Y-13043114D01*
X10522543Y-13028829D01*
X10536828Y-13000257D01*
X10536828Y-12985971D01*
X10522543Y-12957400D01*
X10493971Y-12943114D01*
X10451114Y-12943114D01*
X10422543Y-12928829D01*
X10408257Y-12900257D01*
X10408257Y-12885971D01*
X10422543Y-12857400D01*
X10451114Y-12843114D01*
X10493971Y-12843114D01*
X10522543Y-12857400D01*
X10636828Y-13157400D02*
X10651114Y-13143114D01*
X10679686Y-13100257D01*
X10693971Y-13071686D01*
X10708257Y-13028829D01*
X10722543Y-12957400D01*
X10722543Y-12900257D01*
X10708257Y-12828829D01*
X10693971Y-12785971D01*
X10679686Y-12757400D01*
X10651114Y-12714543D01*
X10636828Y-12700257D01*
X4087900Y-13365900D02*
X4150400Y-13303400D01*
X4087900Y-13240900D01*
X4025400Y-13303400D01*
X4087900Y-13365900D01*
X4593971Y-13439114D02*
X4422543Y-13439114D01*
X4508257Y-13439114D02*
X4508257Y-13139114D01*
X4479686Y-13181971D01*
X4451114Y-13210543D01*
X4422543Y-13224829D01*
X4722543Y-13410543D02*
X4736828Y-13424829D01*
X4722543Y-13439114D01*
X4708257Y-13424829D01*
X4722543Y-13410543D01*
X4722543Y-13439114D01*
X4851114Y-13167686D02*
X4865400Y-13153400D01*
X4893971Y-13139114D01*
X4965400Y-13139114D01*
X4993971Y-13153400D01*
X5008257Y-13167686D01*
X5022543Y-13196257D01*
X5022543Y-13224829D01*
X5008257Y-13267686D01*
X4836828Y-13439114D01*
X5022543Y-13439114D01*
X5293971Y-13139114D02*
X5151114Y-13139114D01*
X5136828Y-13281971D01*
X5151114Y-13267686D01*
X5179686Y-13253400D01*
X5251114Y-13253400D01*
X5279686Y-13267686D01*
X5293971Y-13281971D01*
X5308257Y-13310543D01*
X5308257Y-13381971D01*
X5293971Y-13410543D01*
X5279686Y-13424829D01*
X5251114Y-13439114D01*
X5179686Y-13439114D01*
X5151114Y-13424829D01*
X5136828Y-13410543D01*
X5436828Y-13439114D02*
X5436828Y-13239114D01*
X5436828Y-13267686D02*
X5451114Y-13253400D01*
X5479686Y-13239114D01*
X5522543Y-13239114D01*
X5551114Y-13253400D01*
X5565400Y-13281971D01*
X5565400Y-13439114D01*
X5565400Y-13281971D02*
X5579686Y-13253400D01*
X5608257Y-13239114D01*
X5651114Y-13239114D01*
X5679686Y-13253400D01*
X5693971Y-13281971D01*
X5693971Y-13439114D01*
X5836828Y-13439114D02*
X5836828Y-13239114D01*
X5836828Y-13267686D02*
X5851114Y-13253400D01*
X5879686Y-13239114D01*
X5922543Y-13239114D01*
X5951114Y-13253400D01*
X5965400Y-13281971D01*
X5965400Y-13439114D01*
X5965400Y-13281971D02*
X5979686Y-13253400D01*
X6008257Y-13239114D01*
X6051114Y-13239114D01*
X6079686Y-13253400D01*
X6093971Y-13281971D01*
X6093971Y-13439114D01*
X6679686Y-13124829D02*
X6422543Y-13510543D01*
X7065400Y-13139114D02*
X7093971Y-13139114D01*
X7122543Y-13153400D01*
X7136828Y-13167686D01*
X7151114Y-13196257D01*
X7165400Y-13253400D01*
X7165400Y-13324829D01*
X7151114Y-13381971D01*
X7136828Y-13410543D01*
X7122543Y-13424829D01*
X7093971Y-13439114D01*
X7065400Y-13439114D01*
X7036828Y-13424829D01*
X7022543Y-13410543D01*
X7008257Y-13381971D01*
X6993971Y-13324829D01*
X6993971Y-13253400D01*
X7008257Y-13196257D01*
X7022543Y-13167686D01*
X7036828Y-13153400D01*
X7065400Y-13139114D01*
X7293971Y-13410543D02*
X7308257Y-13424829D01*
X7293971Y-13439114D01*
X7279686Y-13424829D01*
X7293971Y-13410543D01*
X7293971Y-13439114D01*
X7493971Y-13139114D02*
X7522543Y-13139114D01*
X7551114Y-13153400D01*
X7565400Y-13167686D01*
X7579686Y-13196257D01*
X7593971Y-13253400D01*
X7593971Y-13324829D01*
X7579686Y-13381971D01*
X7565400Y-13410543D01*
X7551114Y-13424829D01*
X7522543Y-13439114D01*
X7493971Y-13439114D01*
X7465400Y-13424829D01*
X7451114Y-13410543D01*
X7436828Y-13381971D01*
X7422543Y-13324829D01*
X7422543Y-13253400D01*
X7436828Y-13196257D01*
X7451114Y-13167686D01*
X7465400Y-13153400D01*
X7493971Y-13139114D01*
X7851114Y-13239114D02*
X7851114Y-13439114D01*
X7779686Y-13124829D02*
X7708257Y-13339114D01*
X7893971Y-13339114D01*
X8022543Y-13439114D02*
X8079686Y-13439114D01*
X8108257Y-13424829D01*
X8122543Y-13410543D01*
X8151114Y-13367686D01*
X8165400Y-13310543D01*
X8165400Y-13196257D01*
X8151114Y-13167686D01*
X8136828Y-13153400D01*
X8108257Y-13139114D01*
X8051114Y-13139114D01*
X8022543Y-13153400D01*
X8008257Y-13167686D01*
X7993971Y-13196257D01*
X7993971Y-13267686D01*
X8008257Y-13296257D01*
X8022543Y-13310543D01*
X8051114Y-13324829D01*
X8108257Y-13324829D01*
X8136828Y-13310543D01*
X8151114Y-13296257D01*
X8165400Y-13267686D01*
X8279686Y-13139114D02*
X8279686Y-13196257D01*
X8393971Y-13139114D02*
X8393971Y-13196257D01*
X8836828Y-13553400D02*
X8822543Y-13539114D01*
X8793971Y-13496257D01*
X8779686Y-13467686D01*
X8765400Y-13424829D01*
X8751114Y-13353400D01*
X8751114Y-13296257D01*
X8765400Y-13224829D01*
X8779686Y-13181971D01*
X8793971Y-13153400D01*
X8822543Y-13110543D01*
X8836828Y-13096257D01*
X8993971Y-13267686D02*
X8965400Y-13253400D01*
X8951114Y-13239114D01*
X8936828Y-13210543D01*
X8936828Y-13196257D01*
X8951114Y-13167686D01*
X8965400Y-13153400D01*
X8993971Y-13139114D01*
X9051114Y-13139114D01*
X9079686Y-13153400D01*
X9093971Y-13167686D01*
X9108257Y-13196257D01*
X9108257Y-13210543D01*
X9093971Y-13239114D01*
X9079686Y-13253400D01*
X9051114Y-13267686D01*
X8993971Y-13267686D01*
X8965400Y-13281971D01*
X8951114Y-13296257D01*
X8936828Y-13324829D01*
X8936828Y-13381971D01*
X8951114Y-13410543D01*
X8965400Y-13424829D01*
X8993971Y-13439114D01*
X9051114Y-13439114D01*
X9079686Y-13424829D01*
X9093971Y-13410543D01*
X9108257Y-13381971D01*
X9108257Y-13324829D01*
X9093971Y-13296257D01*
X9079686Y-13281971D01*
X9051114Y-13267686D01*
X9465400Y-13439114D02*
X9465400Y-13139114D01*
X9593971Y-13439114D02*
X9593971Y-13281971D01*
X9579686Y-13253400D01*
X9551114Y-13239114D01*
X9508257Y-13239114D01*
X9479686Y-13253400D01*
X9465400Y-13267686D01*
X9779686Y-13439114D02*
X9751114Y-13424829D01*
X9736828Y-13410543D01*
X9722543Y-13381971D01*
X9722543Y-13296257D01*
X9736828Y-13267686D01*
X9751114Y-13253400D01*
X9779686Y-13239114D01*
X9822543Y-13239114D01*
X9851114Y-13253400D01*
X9865400Y-13267686D01*
X9879686Y-13296257D01*
X9879686Y-13381971D01*
X9865400Y-13410543D01*
X9851114Y-13424829D01*
X9822543Y-13439114D01*
X9779686Y-13439114D01*
X10051114Y-13439114D02*
X10022543Y-13424829D01*
X10008257Y-13396257D01*
X10008257Y-13139114D01*
X10279686Y-13424829D02*
X10251114Y-13439114D01*
X10193971Y-13439114D01*
X10165400Y-13424829D01*
X10151114Y-13396257D01*
X10151114Y-13281971D01*
X10165400Y-13253400D01*
X10193971Y-13239114D01*
X10251114Y-13239114D01*
X10279686Y-13253400D01*
X10293971Y-13281971D01*
X10293971Y-13310543D01*
X10151114Y-13339114D01*
X10408257Y-13424829D02*
X10436828Y-13439114D01*
X10493971Y-13439114D01*
X10522543Y-13424829D01*
X10536828Y-13396257D01*
X10536828Y-13381971D01*
X10522543Y-13353400D01*
X10493971Y-13339114D01*
X10451114Y-13339114D01*
X10422543Y-13324829D01*
X10408257Y-13296257D01*
X10408257Y-13281971D01*
X10422543Y-13253400D01*
X10451114Y-13239114D01*
X10493971Y-13239114D01*
X10522543Y-13253400D01*
X10636828Y-13553400D02*
X10651114Y-13539114D01*
X10679686Y-13496257D01*
X10693971Y-13467686D01*
X10708257Y-13424829D01*
X10722543Y-13353400D01*
X10722543Y-13296257D01*
X10708257Y-13224829D01*
X10693971Y-13181971D01*
X10679686Y-13153400D01*
X10651114Y-13110543D01*
X10636828Y-13096257D01*
X4000400Y-13624400D02*
X4150400Y-13774400D01*
X4150400Y-13624400D02*
X4000400Y-13774400D01*
X4150400Y-13699400D02*
G75*
G03*
X4150400Y-13699400I-75000J0D01*
G01*
X4593971Y-13835114D02*
X4422543Y-13835114D01*
X4508257Y-13835114D02*
X4508257Y-13535114D01*
X4479686Y-13577971D01*
X4451114Y-13606543D01*
X4422543Y-13620829D01*
X4722543Y-13806543D02*
X4736828Y-13820829D01*
X4722543Y-13835114D01*
X4708257Y-13820829D01*
X4722543Y-13806543D01*
X4722543Y-13835114D01*
X5008257Y-13535114D02*
X4865400Y-13535114D01*
X4851114Y-13677971D01*
X4865400Y-13663686D01*
X4893971Y-13649400D01*
X4965400Y-13649400D01*
X4993971Y-13663686D01*
X5008257Y-13677971D01*
X5022543Y-13706543D01*
X5022543Y-13777971D01*
X5008257Y-13806543D01*
X4993971Y-13820829D01*
X4965400Y-13835114D01*
X4893971Y-13835114D01*
X4865400Y-13820829D01*
X4851114Y-13806543D01*
X5208257Y-13535114D02*
X5236828Y-13535114D01*
X5265400Y-13549400D01*
X5279686Y-13563686D01*
X5293971Y-13592257D01*
X5308257Y-13649400D01*
X5308257Y-13720829D01*
X5293971Y-13777971D01*
X5279686Y-13806543D01*
X5265400Y-13820829D01*
X5236828Y-13835114D01*
X5208257Y-13835114D01*
X5179686Y-13820829D01*
X5165400Y-13806543D01*
X5151114Y-13777971D01*
X5136828Y-13720829D01*
X5136828Y-13649400D01*
X5151114Y-13592257D01*
X5165400Y-13563686D01*
X5179686Y-13549400D01*
X5208257Y-13535114D01*
X5436828Y-13835114D02*
X5436828Y-13635114D01*
X5436828Y-13663686D02*
X5451114Y-13649400D01*
X5479686Y-13635114D01*
X5522543Y-13635114D01*
X5551114Y-13649400D01*
X5565400Y-13677971D01*
X5565400Y-13835114D01*
X5565400Y-13677971D02*
X5579686Y-13649400D01*
X5608257Y-13635114D01*
X5651114Y-13635114D01*
X5679686Y-13649400D01*
X5693971Y-13677971D01*
X5693971Y-13835114D01*
X5836828Y-13835114D02*
X5836828Y-13635114D01*
X5836828Y-13663686D02*
X5851114Y-13649400D01*
X5879686Y-13635114D01*
X5922543Y-13635114D01*
X5951114Y-13649400D01*
X5965400Y-13677971D01*
X5965400Y-13835114D01*
X5965400Y-13677971D02*
X5979686Y-13649400D01*
X6008257Y-13635114D01*
X6051114Y-13635114D01*
X6079686Y-13649400D01*
X6093971Y-13677971D01*
X6093971Y-13835114D01*
X6679686Y-13520829D02*
X6422543Y-13906543D01*
X7065400Y-13535114D02*
X7093971Y-13535114D01*
X7122543Y-13549400D01*
X7136828Y-13563686D01*
X7151114Y-13592257D01*
X7165400Y-13649400D01*
X7165400Y-13720829D01*
X7151114Y-13777971D01*
X7136828Y-13806543D01*
X7122543Y-13820829D01*
X7093971Y-13835114D01*
X7065400Y-13835114D01*
X7036828Y-13820829D01*
X7022543Y-13806543D01*
X7008257Y-13777971D01*
X6993971Y-13720829D01*
X6993971Y-13649400D01*
X7008257Y-13592257D01*
X7022543Y-13563686D01*
X7036828Y-13549400D01*
X7065400Y-13535114D01*
X7293971Y-13806543D02*
X7308257Y-13820829D01*
X7293971Y-13835114D01*
X7279686Y-13820829D01*
X7293971Y-13806543D01*
X7293971Y-13835114D01*
X7493971Y-13535114D02*
X7522543Y-13535114D01*
X7551114Y-13549400D01*
X7565400Y-13563686D01*
X7579686Y-13592257D01*
X7593971Y-13649400D01*
X7593971Y-13720829D01*
X7579686Y-13777971D01*
X7565400Y-13806543D01*
X7551114Y-13820829D01*
X7522543Y-13835114D01*
X7493971Y-13835114D01*
X7465400Y-13820829D01*
X7451114Y-13806543D01*
X7436828Y-13777971D01*
X7422543Y-13720829D01*
X7422543Y-13649400D01*
X7436828Y-13592257D01*
X7451114Y-13563686D01*
X7465400Y-13549400D01*
X7493971Y-13535114D01*
X7865400Y-13535114D02*
X7722543Y-13535114D01*
X7708257Y-13677971D01*
X7722543Y-13663686D01*
X7751114Y-13649400D01*
X7822543Y-13649400D01*
X7851114Y-13663686D01*
X7865400Y-13677971D01*
X7879686Y-13706543D01*
X7879686Y-13777971D01*
X7865400Y-13806543D01*
X7851114Y-13820829D01*
X7822543Y-13835114D01*
X7751114Y-13835114D01*
X7722543Y-13820829D01*
X7708257Y-13806543D01*
X8022543Y-13835114D02*
X8079686Y-13835114D01*
X8108257Y-13820829D01*
X8122543Y-13806543D01*
X8151114Y-13763686D01*
X8165400Y-13706543D01*
X8165400Y-13592257D01*
X8151114Y-13563686D01*
X8136828Y-13549400D01*
X8108257Y-13535114D01*
X8051114Y-13535114D01*
X8022543Y-13549400D01*
X8008257Y-13563686D01*
X7993971Y-13592257D01*
X7993971Y-13663686D01*
X8008257Y-13692257D01*
X8022543Y-13706543D01*
X8051114Y-13720829D01*
X8108257Y-13720829D01*
X8136828Y-13706543D01*
X8151114Y-13692257D01*
X8165400Y-13663686D01*
X8279686Y-13535114D02*
X8279686Y-13592257D01*
X8393971Y-13535114D02*
X8393971Y-13592257D01*
X8836828Y-13949400D02*
X8822543Y-13935114D01*
X8793971Y-13892257D01*
X8779686Y-13863686D01*
X8765400Y-13820829D01*
X8751114Y-13749400D01*
X8751114Y-13692257D01*
X8765400Y-13620829D01*
X8779686Y-13577971D01*
X8793971Y-13549400D01*
X8822543Y-13506543D01*
X8836828Y-13492257D01*
X8936828Y-13563686D02*
X8951114Y-13549400D01*
X8979686Y-13535114D01*
X9051114Y-13535114D01*
X9079686Y-13549400D01*
X9093971Y-13563686D01*
X9108257Y-13592257D01*
X9108257Y-13620829D01*
X9093971Y-13663686D01*
X8922543Y-13835114D01*
X9108257Y-13835114D01*
X9465400Y-13835114D02*
X9465400Y-13535114D01*
X9593971Y-13835114D02*
X9593971Y-13677971D01*
X9579686Y-13649400D01*
X9551114Y-13635114D01*
X9508257Y-13635114D01*
X9479686Y-13649400D01*
X9465400Y-13663686D01*
X9779686Y-13835114D02*
X9751114Y-13820829D01*
X9736828Y-13806543D01*
X9722543Y-13777971D01*
X9722543Y-13692257D01*
X9736828Y-13663686D01*
X9751114Y-13649400D01*
X9779686Y-13635114D01*
X9822543Y-13635114D01*
X9851114Y-13649400D01*
X9865400Y-13663686D01*
X9879686Y-13692257D01*
X9879686Y-13777971D01*
X9865400Y-13806543D01*
X9851114Y-13820829D01*
X9822543Y-13835114D01*
X9779686Y-13835114D01*
X10051114Y-13835114D02*
X10022543Y-13820829D01*
X10008257Y-13792257D01*
X10008257Y-13535114D01*
X10279686Y-13820829D02*
X10251114Y-13835114D01*
X10193971Y-13835114D01*
X10165400Y-13820829D01*
X10151114Y-13792257D01*
X10151114Y-13677971D01*
X10165400Y-13649400D01*
X10193971Y-13635114D01*
X10251114Y-13635114D01*
X10279686Y-13649400D01*
X10293971Y-13677971D01*
X10293971Y-13706543D01*
X10151114Y-13735114D01*
X10408257Y-13820829D02*
X10436828Y-13835114D01*
X10493971Y-13835114D01*
X10522543Y-13820829D01*
X10536828Y-13792257D01*
X10536828Y-13777971D01*
X10522543Y-13749400D01*
X10493971Y-13735114D01*
X10451114Y-13735114D01*
X10422543Y-13720829D01*
X10408257Y-13692257D01*
X10408257Y-13677971D01*
X10422543Y-13649400D01*
X10451114Y-13635114D01*
X10493971Y-13635114D01*
X10522543Y-13649400D01*
X10636828Y-13949400D02*
X10651114Y-13935114D01*
X10679686Y-13892257D01*
X10693971Y-13863686D01*
X10708257Y-13820829D01*
X10722543Y-13749400D01*
X10722543Y-13692257D01*
X10708257Y-13620829D01*
X10693971Y-13577971D01*
X10679686Y-13549400D01*
X10651114Y-13506543D01*
X10636828Y-13492257D01*
X3980400Y-14010400D02*
X4150400Y-14180400D01*
X4150400Y-14010400D02*
X3980400Y-14180400D01*
X4065400Y-14010400D02*
X4065400Y-14180400D01*
X3980400Y-14095400D02*
X4150400Y-14095400D01*
X4593971Y-14231114D02*
X4422543Y-14231114D01*
X4508257Y-14231114D02*
X4508257Y-13931114D01*
X4479686Y-13973971D01*
X4451114Y-14002543D01*
X4422543Y-14016829D01*
X4722543Y-14202543D02*
X4736828Y-14216829D01*
X4722543Y-14231114D01*
X4708257Y-14216829D01*
X4722543Y-14202543D01*
X4722543Y-14231114D01*
X4836828Y-13931114D02*
X5036828Y-13931114D01*
X4908257Y-14231114D01*
X5208257Y-13931114D02*
X5236828Y-13931114D01*
X5265400Y-13945400D01*
X5279686Y-13959686D01*
X5293971Y-13988257D01*
X5308257Y-14045400D01*
X5308257Y-14116829D01*
X5293971Y-14173971D01*
X5279686Y-14202543D01*
X5265400Y-14216829D01*
X5236828Y-14231114D01*
X5208257Y-14231114D01*
X5179686Y-14216829D01*
X5165400Y-14202543D01*
X5151114Y-14173971D01*
X5136828Y-14116829D01*
X5136828Y-14045400D01*
X5151114Y-13988257D01*
X5165400Y-13959686D01*
X5179686Y-13945400D01*
X5208257Y-13931114D01*
X5436828Y-14231114D02*
X5436828Y-14031114D01*
X5436828Y-14059686D02*
X5451114Y-14045400D01*
X5479686Y-14031114D01*
X5522543Y-14031114D01*
X5551114Y-14045400D01*
X5565400Y-14073971D01*
X5565400Y-14231114D01*
X5565400Y-14073971D02*
X5579686Y-14045400D01*
X5608257Y-14031114D01*
X5651114Y-14031114D01*
X5679686Y-14045400D01*
X5693971Y-14073971D01*
X5693971Y-14231114D01*
X5836828Y-14231114D02*
X5836828Y-14031114D01*
X5836828Y-14059686D02*
X5851114Y-14045400D01*
X5879686Y-14031114D01*
X5922543Y-14031114D01*
X5951114Y-14045400D01*
X5965400Y-14073971D01*
X5965400Y-14231114D01*
X5965400Y-14073971D02*
X5979686Y-14045400D01*
X6008257Y-14031114D01*
X6051114Y-14031114D01*
X6079686Y-14045400D01*
X6093971Y-14073971D01*
X6093971Y-14231114D01*
X6679686Y-13916829D02*
X6422543Y-14302543D01*
X7065400Y-13931114D02*
X7093971Y-13931114D01*
X7122543Y-13945400D01*
X7136828Y-13959686D01*
X7151114Y-13988257D01*
X7165400Y-14045400D01*
X7165400Y-14116829D01*
X7151114Y-14173971D01*
X7136828Y-14202543D01*
X7122543Y-14216829D01*
X7093971Y-14231114D01*
X7065400Y-14231114D01*
X7036828Y-14216829D01*
X7022543Y-14202543D01*
X7008257Y-14173971D01*
X6993971Y-14116829D01*
X6993971Y-14045400D01*
X7008257Y-13988257D01*
X7022543Y-13959686D01*
X7036828Y-13945400D01*
X7065400Y-13931114D01*
X7293971Y-14202543D02*
X7308257Y-14216829D01*
X7293971Y-14231114D01*
X7279686Y-14216829D01*
X7293971Y-14202543D01*
X7293971Y-14231114D01*
X7493971Y-13931114D02*
X7522543Y-13931114D01*
X7551114Y-13945400D01*
X7565400Y-13959686D01*
X7579686Y-13988257D01*
X7593971Y-14045400D01*
X7593971Y-14116829D01*
X7579686Y-14173971D01*
X7565400Y-14202543D01*
X7551114Y-14216829D01*
X7522543Y-14231114D01*
X7493971Y-14231114D01*
X7465400Y-14216829D01*
X7451114Y-14202543D01*
X7436828Y-14173971D01*
X7422543Y-14116829D01*
X7422543Y-14045400D01*
X7436828Y-13988257D01*
X7451114Y-13959686D01*
X7465400Y-13945400D01*
X7493971Y-13931114D01*
X7851114Y-13931114D02*
X7793971Y-13931114D01*
X7765400Y-13945400D01*
X7751114Y-13959686D01*
X7722543Y-14002543D01*
X7708257Y-14059686D01*
X7708257Y-14173971D01*
X7722543Y-14202543D01*
X7736828Y-14216829D01*
X7765400Y-14231114D01*
X7822543Y-14231114D01*
X7851114Y-14216829D01*
X7865400Y-14202543D01*
X7879686Y-14173971D01*
X7879686Y-14102543D01*
X7865400Y-14073971D01*
X7851114Y-14059686D01*
X7822543Y-14045400D01*
X7765400Y-14045400D01*
X7736828Y-14059686D01*
X7722543Y-14073971D01*
X7708257Y-14102543D01*
X7979686Y-13931114D02*
X8179686Y-13931114D01*
X8051114Y-14231114D01*
X8279686Y-13931114D02*
X8279686Y-13988257D01*
X8393971Y-13931114D02*
X8393971Y-13988257D01*
X8836828Y-14345400D02*
X8822543Y-14331114D01*
X8793971Y-14288257D01*
X8779686Y-14259686D01*
X8765400Y-14216829D01*
X8751114Y-14145400D01*
X8751114Y-14088257D01*
X8765400Y-14016829D01*
X8779686Y-13973971D01*
X8793971Y-13945400D01*
X8822543Y-13902543D01*
X8836828Y-13888257D01*
X8993971Y-14059686D02*
X8965400Y-14045400D01*
X8951114Y-14031114D01*
X8936828Y-14002543D01*
X8936828Y-13988257D01*
X8951114Y-13959686D01*
X8965400Y-13945400D01*
X8993971Y-13931114D01*
X9051114Y-13931114D01*
X9079686Y-13945400D01*
X9093971Y-13959686D01*
X9108257Y-13988257D01*
X9108257Y-14002543D01*
X9093971Y-14031114D01*
X9079686Y-14045400D01*
X9051114Y-14059686D01*
X8993971Y-14059686D01*
X8965400Y-14073971D01*
X8951114Y-14088257D01*
X8936828Y-14116829D01*
X8936828Y-14173971D01*
X8951114Y-14202543D01*
X8965400Y-14216829D01*
X8993971Y-14231114D01*
X9051114Y-14231114D01*
X9079686Y-14216829D01*
X9093971Y-14202543D01*
X9108257Y-14173971D01*
X9108257Y-14116829D01*
X9093971Y-14088257D01*
X9079686Y-14073971D01*
X9051114Y-14059686D01*
X9465400Y-14231114D02*
X9465400Y-13931114D01*
X9593971Y-14231114D02*
X9593971Y-14073971D01*
X9579686Y-14045400D01*
X9551114Y-14031114D01*
X9508257Y-14031114D01*
X9479686Y-14045400D01*
X9465400Y-14059686D01*
X9779686Y-14231114D02*
X9751114Y-14216829D01*
X9736828Y-14202543D01*
X9722543Y-14173971D01*
X9722543Y-14088257D01*
X9736828Y-14059686D01*
X9751114Y-14045400D01*
X9779686Y-14031114D01*
X9822543Y-14031114D01*
X9851114Y-14045400D01*
X9865400Y-14059686D01*
X9879686Y-14088257D01*
X9879686Y-14173971D01*
X9865400Y-14202543D01*
X9851114Y-14216829D01*
X9822543Y-14231114D01*
X9779686Y-14231114D01*
X10051114Y-14231114D02*
X10022543Y-14216829D01*
X10008257Y-14188257D01*
X10008257Y-13931114D01*
X10279686Y-14216829D02*
X10251114Y-14231114D01*
X10193971Y-14231114D01*
X10165400Y-14216829D01*
X10151114Y-14188257D01*
X10151114Y-14073971D01*
X10165400Y-14045400D01*
X10193971Y-14031114D01*
X10251114Y-14031114D01*
X10279686Y-14045400D01*
X10293971Y-14073971D01*
X10293971Y-14102543D01*
X10151114Y-14131114D01*
X10408257Y-14216829D02*
X10436828Y-14231114D01*
X10493971Y-14231114D01*
X10522543Y-14216829D01*
X10536828Y-14188257D01*
X10536828Y-14173971D01*
X10522543Y-14145400D01*
X10493971Y-14131114D01*
X10451114Y-14131114D01*
X10422543Y-14116829D01*
X10408257Y-14088257D01*
X10408257Y-14073971D01*
X10422543Y-14045400D01*
X10451114Y-14031114D01*
X10493971Y-14031114D01*
X10522543Y-14045400D01*
X10636828Y-14345400D02*
X10651114Y-14331114D01*
X10679686Y-14288257D01*
X10693971Y-14259686D01*
X10708257Y-14216829D01*
X10722543Y-14145400D01*
X10722543Y-14088257D01*
X10708257Y-14016829D01*
X10693971Y-13973971D01*
X10679686Y-13945400D01*
X10651114Y-13902543D01*
X10636828Y-13888257D01*
M02*
