%FSLAX45Y45*%
G04 Gerber Fmt 4.5, Leading zero omitted, Abs format (unit mm)*
G04 Created by KiCad (PCBNEW 5.1.6-c6e7f7d~87~ubuntu19.10.1) date 2021-08-02 21:21:00*
%MOMM*%
%LPD*%
G01*
G04 APERTURE LIST*
%TA.AperFunction,Profile*%
%ADD10C,0.050000*%
%TD*%
%ADD11C,0.200000*%
%ADD12C,0.300000*%
G04 APERTURE END LIST*
D10*
X4152900Y-6311900D02*
X4152900Y-10756900D01*
X4152900Y-10756900D02*
X14312900Y-10756900D01*
X14312900Y-6311900D02*
X14312900Y-10756900D01*
X4152900Y-6311900D02*
X14312900Y-6311900D01*
D11*
X13810000Y-6494800D02*
X14130000Y-6814800D01*
X14130000Y-6494800D02*
X13810000Y-6814800D01*
X4335800Y-10254000D02*
X4655800Y-10574000D01*
X4655800Y-10254000D02*
X4335800Y-10574000D01*
X13810000Y-10254000D02*
X14130000Y-10574000D01*
X14130000Y-10254000D02*
X13810000Y-10574000D01*
X4335800Y-6494800D02*
X4655800Y-6814800D01*
X4655800Y-6494800D02*
X4335800Y-6814800D01*
D12*
X4436828Y-11225114D02*
X4436828Y-10925114D01*
X4508257Y-10925114D01*
X4551114Y-10939400D01*
X4579686Y-10967972D01*
X4593971Y-10996543D01*
X4608257Y-11053686D01*
X4608257Y-11096543D01*
X4593971Y-11153686D01*
X4579686Y-11182257D01*
X4551114Y-11210829D01*
X4508257Y-11225114D01*
X4436828Y-11225114D01*
X4736828Y-11225114D02*
X4736828Y-11025114D01*
X4736828Y-11082257D02*
X4751114Y-11053686D01*
X4765400Y-11039400D01*
X4793971Y-11025114D01*
X4822543Y-11025114D01*
X4922543Y-11225114D02*
X4922543Y-11025114D01*
X4922543Y-10925114D02*
X4908257Y-10939400D01*
X4922543Y-10953686D01*
X4936828Y-10939400D01*
X4922543Y-10925114D01*
X4922543Y-10953686D01*
X5108257Y-11225114D02*
X5079686Y-11210829D01*
X5065400Y-11182257D01*
X5065400Y-10925114D01*
X5265400Y-11225114D02*
X5236828Y-11210829D01*
X5222543Y-11182257D01*
X5222543Y-10925114D01*
X5608257Y-11225114D02*
X5608257Y-10925114D01*
X5708257Y-11139400D01*
X5808257Y-10925114D01*
X5808257Y-11225114D01*
X6079686Y-11225114D02*
X6079686Y-11067972D01*
X6065400Y-11039400D01*
X6036828Y-11025114D01*
X5979686Y-11025114D01*
X5951114Y-11039400D01*
X6079686Y-11210829D02*
X6051114Y-11225114D01*
X5979686Y-11225114D01*
X5951114Y-11210829D01*
X5936828Y-11182257D01*
X5936828Y-11153686D01*
X5951114Y-11125114D01*
X5979686Y-11110829D01*
X6051114Y-11110829D01*
X6079686Y-11096543D01*
X6222543Y-11025114D02*
X6222543Y-11325114D01*
X6222543Y-11039400D02*
X6251114Y-11025114D01*
X6308257Y-11025114D01*
X6336828Y-11039400D01*
X6351114Y-11053686D01*
X6365400Y-11082257D01*
X6365400Y-11167972D01*
X6351114Y-11196543D01*
X6336828Y-11210829D01*
X6308257Y-11225114D01*
X6251114Y-11225114D01*
X6222543Y-11210829D01*
X6493971Y-11196543D02*
X6508257Y-11210829D01*
X6493971Y-11225114D01*
X6479686Y-11210829D01*
X6493971Y-11196543D01*
X6493971Y-11225114D01*
X6493971Y-11039400D02*
X6508257Y-11053686D01*
X6493971Y-11067972D01*
X6479686Y-11053686D01*
X6493971Y-11039400D01*
X6493971Y-11067972D01*
X3830400Y-11559400D02*
X4150400Y-11879400D01*
X4150400Y-11559400D02*
X3830400Y-11879400D01*
X4408257Y-11555114D02*
X4593971Y-11555114D01*
X4493971Y-11669400D01*
X4536828Y-11669400D01*
X4565400Y-11683686D01*
X4579686Y-11697971D01*
X4593971Y-11726543D01*
X4593971Y-11797971D01*
X4579686Y-11826543D01*
X4565400Y-11840829D01*
X4536828Y-11855114D01*
X4451114Y-11855114D01*
X4422543Y-11840829D01*
X4408257Y-11826543D01*
X4722543Y-11826543D02*
X4736828Y-11840829D01*
X4722543Y-11855114D01*
X4708257Y-11840829D01*
X4722543Y-11826543D01*
X4722543Y-11855114D01*
X4851114Y-11583686D02*
X4865400Y-11569400D01*
X4893971Y-11555114D01*
X4965400Y-11555114D01*
X4993971Y-11569400D01*
X5008257Y-11583686D01*
X5022543Y-11612257D01*
X5022543Y-11640829D01*
X5008257Y-11683686D01*
X4836828Y-11855114D01*
X5022543Y-11855114D01*
X5208257Y-11555114D02*
X5236828Y-11555114D01*
X5265400Y-11569400D01*
X5279686Y-11583686D01*
X5293971Y-11612257D01*
X5308257Y-11669400D01*
X5308257Y-11740829D01*
X5293971Y-11797971D01*
X5279686Y-11826543D01*
X5265400Y-11840829D01*
X5236828Y-11855114D01*
X5208257Y-11855114D01*
X5179686Y-11840829D01*
X5165400Y-11826543D01*
X5151114Y-11797971D01*
X5136828Y-11740829D01*
X5136828Y-11669400D01*
X5151114Y-11612257D01*
X5165400Y-11583686D01*
X5179686Y-11569400D01*
X5208257Y-11555114D01*
X5436828Y-11855114D02*
X5436828Y-11655114D01*
X5436828Y-11683686D02*
X5451114Y-11669400D01*
X5479686Y-11655114D01*
X5522543Y-11655114D01*
X5551114Y-11669400D01*
X5565400Y-11697971D01*
X5565400Y-11855114D01*
X5565400Y-11697971D02*
X5579686Y-11669400D01*
X5608257Y-11655114D01*
X5651114Y-11655114D01*
X5679686Y-11669400D01*
X5693971Y-11697971D01*
X5693971Y-11855114D01*
X5836828Y-11855114D02*
X5836828Y-11655114D01*
X5836828Y-11683686D02*
X5851114Y-11669400D01*
X5879686Y-11655114D01*
X5922543Y-11655114D01*
X5951114Y-11669400D01*
X5965400Y-11697971D01*
X5965400Y-11855114D01*
X5965400Y-11697971D02*
X5979686Y-11669400D01*
X6008257Y-11655114D01*
X6051114Y-11655114D01*
X6079686Y-11669400D01*
X6093971Y-11697971D01*
X6093971Y-11855114D01*
X6679686Y-11540829D02*
X6422543Y-11926543D01*
X7065400Y-11555114D02*
X7093971Y-11555114D01*
X7122543Y-11569400D01*
X7136828Y-11583686D01*
X7151114Y-11612257D01*
X7165400Y-11669400D01*
X7165400Y-11740829D01*
X7151114Y-11797971D01*
X7136828Y-11826543D01*
X7122543Y-11840829D01*
X7093971Y-11855114D01*
X7065400Y-11855114D01*
X7036828Y-11840829D01*
X7022543Y-11826543D01*
X7008257Y-11797971D01*
X6993971Y-11740829D01*
X6993971Y-11669400D01*
X7008257Y-11612257D01*
X7022543Y-11583686D01*
X7036828Y-11569400D01*
X7065400Y-11555114D01*
X7293971Y-11826543D02*
X7308257Y-11840829D01*
X7293971Y-11855114D01*
X7279686Y-11840829D01*
X7293971Y-11826543D01*
X7293971Y-11855114D01*
X7593971Y-11855114D02*
X7422543Y-11855114D01*
X7508257Y-11855114D02*
X7508257Y-11555114D01*
X7479686Y-11597971D01*
X7451114Y-11626543D01*
X7422543Y-11640829D01*
X7708257Y-11583686D02*
X7722543Y-11569400D01*
X7751114Y-11555114D01*
X7822543Y-11555114D01*
X7851114Y-11569400D01*
X7865400Y-11583686D01*
X7879686Y-11612257D01*
X7879686Y-11640829D01*
X7865400Y-11683686D01*
X7693971Y-11855114D01*
X7879686Y-11855114D01*
X8136828Y-11555114D02*
X8079686Y-11555114D01*
X8051114Y-11569400D01*
X8036828Y-11583686D01*
X8008257Y-11626543D01*
X7993971Y-11683686D01*
X7993971Y-11797971D01*
X8008257Y-11826543D01*
X8022543Y-11840829D01*
X8051114Y-11855114D01*
X8108257Y-11855114D01*
X8136828Y-11840829D01*
X8151114Y-11826543D01*
X8165400Y-11797971D01*
X8165400Y-11726543D01*
X8151114Y-11697971D01*
X8136828Y-11683686D01*
X8108257Y-11669400D01*
X8051114Y-11669400D01*
X8022543Y-11683686D01*
X8008257Y-11697971D01*
X7993971Y-11726543D01*
X8279686Y-11555114D02*
X8279686Y-11612257D01*
X8393971Y-11555114D02*
X8393971Y-11612257D01*
X8836828Y-11969400D02*
X8822543Y-11955114D01*
X8793971Y-11912257D01*
X8779686Y-11883686D01*
X8765400Y-11840829D01*
X8751114Y-11769400D01*
X8751114Y-11712257D01*
X8765400Y-11640829D01*
X8779686Y-11597971D01*
X8793971Y-11569400D01*
X8822543Y-11526543D01*
X8836828Y-11512257D01*
X9079686Y-11655114D02*
X9079686Y-11855114D01*
X9008257Y-11540829D02*
X8936828Y-11755114D01*
X9122543Y-11755114D01*
X9465400Y-11855114D02*
X9465400Y-11555114D01*
X9593971Y-11855114D02*
X9593971Y-11697971D01*
X9579686Y-11669400D01*
X9551114Y-11655114D01*
X9508257Y-11655114D01*
X9479686Y-11669400D01*
X9465400Y-11683686D01*
X9779686Y-11855114D02*
X9751114Y-11840829D01*
X9736828Y-11826543D01*
X9722543Y-11797971D01*
X9722543Y-11712257D01*
X9736828Y-11683686D01*
X9751114Y-11669400D01*
X9779686Y-11655114D01*
X9822543Y-11655114D01*
X9851114Y-11669400D01*
X9865400Y-11683686D01*
X9879686Y-11712257D01*
X9879686Y-11797971D01*
X9865400Y-11826543D01*
X9851114Y-11840829D01*
X9822543Y-11855114D01*
X9779686Y-11855114D01*
X10051114Y-11855114D02*
X10022543Y-11840829D01*
X10008257Y-11812257D01*
X10008257Y-11555114D01*
X10279686Y-11840829D02*
X10251114Y-11855114D01*
X10193971Y-11855114D01*
X10165400Y-11840829D01*
X10151114Y-11812257D01*
X10151114Y-11697971D01*
X10165400Y-11669400D01*
X10193971Y-11655114D01*
X10251114Y-11655114D01*
X10279686Y-11669400D01*
X10293971Y-11697971D01*
X10293971Y-11726543D01*
X10151114Y-11755114D01*
X10408257Y-11840829D02*
X10436828Y-11855114D01*
X10493971Y-11855114D01*
X10522543Y-11840829D01*
X10536828Y-11812257D01*
X10536828Y-11797971D01*
X10522543Y-11769400D01*
X10493971Y-11755114D01*
X10451114Y-11755114D01*
X10422543Y-11740829D01*
X10408257Y-11712257D01*
X10408257Y-11697971D01*
X10422543Y-11669400D01*
X10451114Y-11655114D01*
X10493971Y-11655114D01*
X10522543Y-11669400D01*
X10636828Y-11969400D02*
X10651114Y-11955114D01*
X10679686Y-11912257D01*
X10693971Y-11883686D01*
X10708257Y-11840829D01*
X10722543Y-11769400D01*
X10722543Y-11712257D01*
X10708257Y-11640829D01*
X10693971Y-11597971D01*
X10679686Y-11569400D01*
X10651114Y-11526543D01*
X10636828Y-11512257D01*
X11179686Y-11969400D02*
X11165400Y-11955114D01*
X11136828Y-11912257D01*
X11122543Y-11883686D01*
X11108257Y-11840829D01*
X11093971Y-11769400D01*
X11093971Y-11712257D01*
X11108257Y-11640829D01*
X11122543Y-11597971D01*
X11136828Y-11569400D01*
X11165400Y-11526543D01*
X11179686Y-11512257D01*
X11293971Y-11655114D02*
X11293971Y-11855114D01*
X11293971Y-11683686D02*
X11308257Y-11669400D01*
X11336828Y-11655114D01*
X11379686Y-11655114D01*
X11408257Y-11669400D01*
X11422543Y-11697971D01*
X11422543Y-11855114D01*
X11608257Y-11855114D02*
X11579686Y-11840829D01*
X11565400Y-11826543D01*
X11551114Y-11797971D01*
X11551114Y-11712257D01*
X11565400Y-11683686D01*
X11579686Y-11669400D01*
X11608257Y-11655114D01*
X11651114Y-11655114D01*
X11679686Y-11669400D01*
X11693971Y-11683686D01*
X11708257Y-11712257D01*
X11708257Y-11797971D01*
X11693971Y-11826543D01*
X11679686Y-11840829D01*
X11651114Y-11855114D01*
X11608257Y-11855114D01*
X11793971Y-11655114D02*
X11908257Y-11655114D01*
X11836828Y-11555114D02*
X11836828Y-11812257D01*
X11851114Y-11840829D01*
X11879686Y-11855114D01*
X11908257Y-11855114D01*
X12236828Y-11655114D02*
X12236828Y-11955114D01*
X12236828Y-11669400D02*
X12265400Y-11655114D01*
X12322543Y-11655114D01*
X12351114Y-11669400D01*
X12365400Y-11683686D01*
X12379686Y-11712257D01*
X12379686Y-11797971D01*
X12365400Y-11826543D01*
X12351114Y-11840829D01*
X12322543Y-11855114D01*
X12265400Y-11855114D01*
X12236828Y-11840829D01*
X12551114Y-11855114D02*
X12522543Y-11840829D01*
X12508257Y-11812257D01*
X12508257Y-11555114D01*
X12793971Y-11855114D02*
X12793971Y-11697971D01*
X12779686Y-11669400D01*
X12751114Y-11655114D01*
X12693971Y-11655114D01*
X12665400Y-11669400D01*
X12793971Y-11840829D02*
X12765400Y-11855114D01*
X12693971Y-11855114D01*
X12665400Y-11840829D01*
X12651114Y-11812257D01*
X12651114Y-11783686D01*
X12665400Y-11755114D01*
X12693971Y-11740829D01*
X12765400Y-11740829D01*
X12793971Y-11726543D01*
X12893971Y-11655114D02*
X13008257Y-11655114D01*
X12936828Y-11555114D02*
X12936828Y-11812257D01*
X12951114Y-11840829D01*
X12979686Y-11855114D01*
X13008257Y-11855114D01*
X13222543Y-11840829D02*
X13193971Y-11855114D01*
X13136828Y-11855114D01*
X13108257Y-11840829D01*
X13093971Y-11812257D01*
X13093971Y-11697971D01*
X13108257Y-11669400D01*
X13136828Y-11655114D01*
X13193971Y-11655114D01*
X13222543Y-11669400D01*
X13236828Y-11697971D01*
X13236828Y-11726543D01*
X13093971Y-11755114D01*
X13493971Y-11855114D02*
X13493971Y-11555114D01*
X13493971Y-11840829D02*
X13465400Y-11855114D01*
X13408257Y-11855114D01*
X13379686Y-11840829D01*
X13365400Y-11826543D01*
X13351114Y-11797971D01*
X13351114Y-11712257D01*
X13365400Y-11683686D01*
X13379686Y-11669400D01*
X13408257Y-11655114D01*
X13465400Y-11655114D01*
X13493971Y-11669400D01*
X13608257Y-11969400D02*
X13622543Y-11955114D01*
X13651114Y-11912257D01*
X13665400Y-11883686D01*
X13679686Y-11840829D01*
X13693971Y-11769400D01*
X13693971Y-11712257D01*
X13679686Y-11640829D01*
X13665400Y-11597971D01*
X13651114Y-11569400D01*
X13622543Y-11526543D01*
X13608257Y-11512257D01*
M02*
