G04 #@! TF.GenerationSoftware,KiCad,Pcbnew,5.1.6-c6e7f7d~87~ubuntu19.10.1*
G04 #@! TF.CreationDate,2021-08-02T21:19:55-04:00*
G04 #@! TF.ProjectId,upconverter,7570636f-6e76-4657-9274-65722e6b6963,rev?*
G04 #@! TF.SameCoordinates,Original*
G04 #@! TF.FileFunction,Legend,Top*
G04 #@! TF.FilePolarity,Positive*
%FSLAX46Y46*%
G04 Gerber Fmt 4.6, Leading zero omitted, Abs format (unit mm)*
G04 Created by KiCad (PCBNEW 5.1.6-c6e7f7d~87~ubuntu19.10.1) date 2021-08-02 21:19:55*
%MOMM*%
%LPD*%
G01*
G04 APERTURE LIST*
%ADD10C,0.300000*%
%ADD11C,0.050000*%
%ADD12C,0.120000*%
%ADD13C,0.150000*%
%ADD14C,3.300000*%
%ADD15C,2.050000*%
%ADD16C,2.350000*%
%ADD17C,2.150000*%
%ADD18R,2.600000X2.400000*%
%ADD19R,1.900000X1.900000*%
%ADD20C,1.900000*%
%ADD21O,2.100000X4.600000*%
%ADD22O,2.100000X4.100000*%
%ADD23O,4.100000X2.100000*%
%ADD24R,2.005000X2.100000*%
%ADD25O,2.005000X2.100000*%
%ADD26R,0.500000X0.750000*%
%ADD27R,1.900000X2.100000*%
G04 APERTURE END LIST*
D10*
X47972571Y-104588571D02*
X47972571Y-105802857D01*
X48043999Y-105945714D01*
X48115428Y-106017142D01*
X48258285Y-106088571D01*
X48543999Y-106088571D01*
X48686857Y-106017142D01*
X48758285Y-105945714D01*
X48829714Y-105802857D01*
X48829714Y-104588571D01*
X49543999Y-105088571D02*
X49543999Y-106588571D01*
X49543999Y-105160000D02*
X49686857Y-105088571D01*
X49972571Y-105088571D01*
X50115428Y-105160000D01*
X50186857Y-105231428D01*
X50258285Y-105374285D01*
X50258285Y-105802857D01*
X50186857Y-105945714D01*
X50115428Y-106017142D01*
X49972571Y-106088571D01*
X49686857Y-106088571D01*
X49543999Y-106017142D01*
X51543999Y-106017142D02*
X51401142Y-106088571D01*
X51115428Y-106088571D01*
X50972571Y-106017142D01*
X50901142Y-105945714D01*
X50829714Y-105802857D01*
X50829714Y-105374285D01*
X50901142Y-105231428D01*
X50972571Y-105160000D01*
X51115428Y-105088571D01*
X51401142Y-105088571D01*
X51543999Y-105160000D01*
X52401142Y-106088571D02*
X52258285Y-106017142D01*
X52186857Y-105945714D01*
X52115428Y-105802857D01*
X52115428Y-105374285D01*
X52186857Y-105231428D01*
X52258285Y-105160000D01*
X52401142Y-105088571D01*
X52615428Y-105088571D01*
X52758285Y-105160000D01*
X52829714Y-105231428D01*
X52901142Y-105374285D01*
X52901142Y-105802857D01*
X52829714Y-105945714D01*
X52758285Y-106017142D01*
X52615428Y-106088571D01*
X52401142Y-106088571D01*
X53543999Y-105088571D02*
X53543999Y-106088571D01*
X53543999Y-105231428D02*
X53615428Y-105160000D01*
X53758285Y-105088571D01*
X53972571Y-105088571D01*
X54115428Y-105160000D01*
X54186857Y-105302857D01*
X54186857Y-106088571D01*
X54758285Y-105088571D02*
X55115428Y-106088571D01*
X55472571Y-105088571D01*
X56615428Y-106017142D02*
X56472571Y-106088571D01*
X56186857Y-106088571D01*
X56043999Y-106017142D01*
X55972571Y-105874285D01*
X55972571Y-105302857D01*
X56043999Y-105160000D01*
X56186857Y-105088571D01*
X56472571Y-105088571D01*
X56615428Y-105160000D01*
X56686857Y-105302857D01*
X56686857Y-105445714D01*
X55972571Y-105588571D01*
X57329714Y-106088571D02*
X57329714Y-105088571D01*
X57329714Y-105374285D02*
X57401142Y-105231428D01*
X57472571Y-105160000D01*
X57615428Y-105088571D01*
X57758285Y-105088571D01*
X58044000Y-105088571D02*
X58615428Y-105088571D01*
X58258285Y-104588571D02*
X58258285Y-105874285D01*
X58329714Y-106017142D01*
X58472571Y-106088571D01*
X58615428Y-106088571D01*
X59686857Y-106017142D02*
X59543999Y-106088571D01*
X59258285Y-106088571D01*
X59115428Y-106017142D01*
X59043999Y-105874285D01*
X59043999Y-105302857D01*
X59115428Y-105160000D01*
X59258285Y-105088571D01*
X59543999Y-105088571D01*
X59686857Y-105160000D01*
X59758285Y-105302857D01*
X59758285Y-105445714D01*
X59043999Y-105588571D01*
X60401142Y-106088571D02*
X60401142Y-105088571D01*
X60401142Y-105374285D02*
X60472571Y-105231428D01*
X60543999Y-105160000D01*
X60686857Y-105088571D01*
X60829714Y-105088571D01*
X62472571Y-106088571D02*
X62472571Y-105088571D01*
X62472571Y-105374285D02*
X62544000Y-105231428D01*
X62615428Y-105160000D01*
X62758285Y-105088571D01*
X62901142Y-105088571D01*
X63972571Y-106017142D02*
X63829714Y-106088571D01*
X63544000Y-106088571D01*
X63401142Y-106017142D01*
X63329714Y-105874285D01*
X63329714Y-105302857D01*
X63401142Y-105160000D01*
X63544000Y-105088571D01*
X63829714Y-105088571D01*
X63972571Y-105160000D01*
X64044000Y-105302857D01*
X64044000Y-105445714D01*
X63329714Y-105588571D01*
X64544000Y-105088571D02*
X64901142Y-106088571D01*
X65258285Y-105088571D01*
X67258285Y-104588571D02*
X67401142Y-104588571D01*
X67544000Y-104660000D01*
X67615428Y-104731428D01*
X67686857Y-104874285D01*
X67758285Y-105160000D01*
X67758285Y-105517142D01*
X67686857Y-105802857D01*
X67615428Y-105945714D01*
X67544000Y-106017142D01*
X67401142Y-106088571D01*
X67258285Y-106088571D01*
X67115428Y-106017142D01*
X67044000Y-105945714D01*
X66972571Y-105802857D01*
X66901142Y-105517142D01*
X66901142Y-105160000D01*
X66972571Y-104874285D01*
X67044000Y-104731428D01*
X67115428Y-104660000D01*
X67258285Y-104588571D01*
X71686857Y-104588571D02*
X72686857Y-104588571D01*
X71686857Y-106088571D01*
X72686857Y-106088571D01*
X73901142Y-106088571D02*
X73901142Y-105302857D01*
X73829714Y-105160000D01*
X73686857Y-105088571D01*
X73401142Y-105088571D01*
X73258285Y-105160000D01*
X73901142Y-106017142D02*
X73758285Y-106088571D01*
X73401142Y-106088571D01*
X73258285Y-106017142D01*
X73186857Y-105874285D01*
X73186857Y-105731428D01*
X73258285Y-105588571D01*
X73401142Y-105517142D01*
X73758285Y-105517142D01*
X73901142Y-105445714D01*
X75258285Y-106017142D02*
X75115428Y-106088571D01*
X74829714Y-106088571D01*
X74686857Y-106017142D01*
X74615428Y-105945714D01*
X74544000Y-105802857D01*
X74544000Y-105374285D01*
X74615428Y-105231428D01*
X74686857Y-105160000D01*
X74829714Y-105088571D01*
X75115428Y-105088571D01*
X75258285Y-105160000D01*
X75901142Y-106088571D02*
X75901142Y-104588571D01*
X76544000Y-106088571D02*
X76544000Y-105302857D01*
X76472571Y-105160000D01*
X76329714Y-105088571D01*
X76115428Y-105088571D01*
X75972571Y-105160000D01*
X75901142Y-105231428D01*
X78401142Y-106088571D02*
X78401142Y-104588571D01*
X78901142Y-105660000D01*
X79401142Y-104588571D01*
X79401142Y-106088571D01*
X80758285Y-106088571D02*
X80758285Y-105302857D01*
X80686857Y-105160000D01*
X80544000Y-105088571D01*
X80258285Y-105088571D01*
X80115428Y-105160000D01*
X80758285Y-106017142D02*
X80615428Y-106088571D01*
X80258285Y-106088571D01*
X80115428Y-106017142D01*
X80044000Y-105874285D01*
X80044000Y-105731428D01*
X80115428Y-105588571D01*
X80258285Y-105517142D01*
X80615428Y-105517142D01*
X80758285Y-105445714D01*
X81472571Y-106088571D02*
X81472571Y-105088571D01*
X81472571Y-105374285D02*
X81544000Y-105231428D01*
X81615428Y-105160000D01*
X81758285Y-105088571D01*
X81901142Y-105088571D01*
X82186857Y-105088571D02*
X82758285Y-105088571D01*
X82401142Y-104588571D02*
X82401142Y-105874285D01*
X82472571Y-106017142D01*
X82615428Y-106088571D01*
X82758285Y-106088571D01*
X83258285Y-106088571D02*
X83258285Y-105088571D01*
X83258285Y-104588571D02*
X83186857Y-104660000D01*
X83258285Y-104731428D01*
X83329714Y-104660000D01*
X83258285Y-104588571D01*
X83258285Y-104731428D01*
X83972571Y-105088571D02*
X83972571Y-106088571D01*
X83972571Y-105231428D02*
X84044000Y-105160000D01*
X84186857Y-105088571D01*
X84401142Y-105088571D01*
X84544000Y-105160000D01*
X84615428Y-105302857D01*
X84615428Y-106088571D01*
D11*
X45580761Y-91146380D02*
X45580761Y-91860666D01*
X45542666Y-92003523D01*
X45466476Y-92098761D01*
X45352190Y-92146380D01*
X45276000Y-92146380D01*
X46342666Y-92146380D02*
X45961714Y-92146380D01*
X45961714Y-91146380D01*
X47066476Y-92051142D02*
X47028380Y-92098761D01*
X46914095Y-92146380D01*
X46837904Y-92146380D01*
X46723619Y-92098761D01*
X46647428Y-92003523D01*
X46609333Y-91908285D01*
X46571238Y-91717809D01*
X46571238Y-91574952D01*
X46609333Y-91384476D01*
X46647428Y-91289238D01*
X46723619Y-91194000D01*
X46837904Y-91146380D01*
X46914095Y-91146380D01*
X47028380Y-91194000D01*
X47066476Y-91241619D01*
X47637904Y-91146380D02*
X47637904Y-91860666D01*
X47599809Y-92003523D01*
X47523619Y-92098761D01*
X47409333Y-92146380D01*
X47333142Y-92146380D01*
X48399809Y-92146380D02*
X48018857Y-92146380D01*
X48018857Y-91146380D01*
X49123619Y-92051142D02*
X49085523Y-92098761D01*
X48971238Y-92146380D01*
X48895047Y-92146380D01*
X48780761Y-92098761D01*
X48704571Y-92003523D01*
X48666476Y-91908285D01*
X48628380Y-91717809D01*
X48628380Y-91574952D01*
X48666476Y-91384476D01*
X48704571Y-91289238D01*
X48780761Y-91194000D01*
X48895047Y-91146380D01*
X48971238Y-91146380D01*
X49085523Y-91194000D01*
X49123619Y-91241619D01*
X49695047Y-91146380D02*
X49695047Y-91860666D01*
X49656952Y-92003523D01*
X49580761Y-92098761D01*
X49466476Y-92146380D01*
X49390285Y-92146380D01*
X50456952Y-92146380D02*
X50076000Y-92146380D01*
X50076000Y-91146380D01*
X51180761Y-92051142D02*
X51142666Y-92098761D01*
X51028380Y-92146380D01*
X50952190Y-92146380D01*
X50837904Y-92098761D01*
X50761714Y-92003523D01*
X50723619Y-91908285D01*
X50685523Y-91717809D01*
X50685523Y-91574952D01*
X50723619Y-91384476D01*
X50761714Y-91289238D01*
X50837904Y-91194000D01*
X50952190Y-91146380D01*
X51028380Y-91146380D01*
X51142666Y-91194000D01*
X51180761Y-91241619D01*
X51752190Y-91146380D02*
X51752190Y-91860666D01*
X51714095Y-92003523D01*
X51637904Y-92098761D01*
X51523619Y-92146380D01*
X51447428Y-92146380D01*
X52514095Y-92146380D02*
X52133142Y-92146380D01*
X52133142Y-91146380D01*
X53237904Y-92051142D02*
X53199809Y-92098761D01*
X53085523Y-92146380D01*
X53009333Y-92146380D01*
X52895047Y-92098761D01*
X52818857Y-92003523D01*
X52780761Y-91908285D01*
X52742666Y-91717809D01*
X52742666Y-91574952D01*
X52780761Y-91384476D01*
X52818857Y-91289238D01*
X52895047Y-91194000D01*
X53009333Y-91146380D01*
X53085523Y-91146380D01*
X53199809Y-91194000D01*
X53237904Y-91241619D01*
D12*
X83920000Y-94175252D02*
X83920000Y-93652748D01*
X82450000Y-94175252D02*
X82450000Y-93652748D01*
X56767000Y-75337580D02*
X56767000Y-75056420D01*
X57787000Y-75337580D02*
X57787000Y-75056420D01*
X55551000Y-74991878D02*
X55551000Y-75791122D01*
X54431000Y-74991878D02*
X54431000Y-75791122D01*
X59615000Y-74737878D02*
X59615000Y-75537122D01*
X58495000Y-74737878D02*
X58495000Y-75537122D01*
X62663000Y-76769878D02*
X62663000Y-77569122D01*
X61543000Y-76769878D02*
X61543000Y-77569122D01*
X53694000Y-75242748D02*
X53694000Y-75765252D01*
X52224000Y-75242748D02*
X52224000Y-75765252D01*
X59155420Y-77722000D02*
X59436580Y-77722000D01*
X59155420Y-78742000D02*
X59436580Y-78742000D01*
X65280000Y-76567420D02*
X65280000Y-76848580D01*
X64260000Y-76567420D02*
X64260000Y-76848580D01*
X79569000Y-76200000D02*
G75*
G03*
X79569000Y-76200000I-3750000J0D01*
G01*
X84069000Y-76200000D02*
G75*
G03*
X84069000Y-76200000I-8250000J0D01*
G01*
X117408000Y-76200000D02*
G75*
G03*
X117408000Y-76200000I-3750000J0D01*
G01*
X121908000Y-76200000D02*
G75*
G03*
X121908000Y-76200000I-8250000J0D01*
G01*
X50345000Y-77650000D02*
X50345000Y-74750000D01*
X43635000Y-77650000D02*
X43635000Y-74750000D01*
X48440000Y-72845000D02*
X45540000Y-72845000D01*
X48440000Y-79555000D02*
X45540000Y-79555000D01*
X69669922Y-97715000D02*
X70187078Y-97715000D01*
X69669922Y-99135000D02*
X70187078Y-99135000D01*
X130883922Y-75490000D02*
X131401078Y-75490000D01*
X130883922Y-76910000D02*
X131401078Y-76910000D01*
X127899279Y-75694000D02*
X127573721Y-75694000D01*
X127899279Y-74674000D02*
X127573721Y-74674000D01*
X73870078Y-97715000D02*
X73352922Y-97715000D01*
X73870078Y-99135000D02*
X73352922Y-99135000D01*
X125478000Y-76362779D02*
X125478000Y-76037221D01*
X124458000Y-76362779D02*
X124458000Y-76037221D01*
X73362078Y-101548000D02*
X72844922Y-101548000D01*
X73362078Y-100128000D02*
X72844922Y-100128000D01*
X86697078Y-90095000D02*
X86179922Y-90095000D01*
X86697078Y-91515000D02*
X86179922Y-91515000D01*
X96403279Y-72646000D02*
X96077721Y-72646000D01*
X96403279Y-71626000D02*
X96077721Y-71626000D01*
X88317000Y-94922078D02*
X88317000Y-94404922D01*
X89737000Y-94922078D02*
X89737000Y-94404922D01*
X56090078Y-77522000D02*
X55572922Y-77522000D01*
X56090078Y-78942000D02*
X55572922Y-78942000D01*
X99262000Y-78305922D02*
X99262000Y-78823078D01*
X97842000Y-78305922D02*
X97842000Y-78823078D01*
X94944000Y-82476078D02*
X94944000Y-81958922D01*
X93524000Y-82476078D02*
X93524000Y-81958922D01*
X65154000Y-96892000D02*
X65154000Y-92592000D01*
X65154000Y-92592000D02*
X59454000Y-92592000D01*
X65154000Y-96892000D02*
X59454000Y-96892000D01*
X48353000Y-83657000D02*
X48197000Y-83657000D01*
X46037000Y-83657000D02*
X45881000Y-83657000D01*
X48195608Y-86889335D02*
G75*
G03*
X48352516Y-83657000I-1078608J1672335D01*
G01*
X46038392Y-86889335D02*
G75*
G02*
X45881484Y-83657000I1078608J1672335D01*
G01*
X48196837Y-86258130D02*
G75*
G03*
X48197000Y-84176039I-1079837J1041130D01*
G01*
X46037163Y-86258130D02*
G75*
G02*
X46037000Y-84176039I1079837J1041130D01*
G01*
X56583000Y-99619000D02*
X56583000Y-90119000D01*
X56583000Y-90109000D02*
X42183000Y-90109000D01*
X56583000Y-99639000D02*
X42183000Y-99639000D01*
X42183000Y-99649000D02*
X42183000Y-90149000D01*
X140769000Y-77650000D02*
X140769000Y-74750000D01*
X134059000Y-77650000D02*
X134059000Y-74750000D01*
X138864000Y-72845000D02*
X135964000Y-72845000D01*
X138864000Y-79555000D02*
X135964000Y-79555000D01*
X127688078Y-78180000D02*
X127170922Y-78180000D01*
X127688078Y-76760000D02*
X127170922Y-76760000D01*
X51381922Y-83237000D02*
X51899078Y-83237000D01*
X51381922Y-84657000D02*
X51899078Y-84657000D01*
X89397721Y-81024000D02*
X89723279Y-81024000D01*
X89397721Y-82044000D02*
X89723279Y-82044000D01*
X89697779Y-82548000D02*
X89372221Y-82548000D01*
X89697779Y-83568000D02*
X89372221Y-83568000D01*
X91311000Y-82484279D02*
X91311000Y-82158721D01*
X92331000Y-82484279D02*
X92331000Y-82158721D01*
X66635000Y-92107000D02*
X76875000Y-92107000D01*
X66635000Y-96748000D02*
X76875000Y-96748000D01*
X66635000Y-92107000D02*
X66635000Y-96748000D01*
X76875000Y-92107000D02*
X76875000Y-96748000D01*
X66635000Y-93617000D02*
X76875000Y-93617000D01*
X69905000Y-92107000D02*
X69905000Y-93617000D01*
X73606000Y-92107000D02*
X73606000Y-93617000D01*
X86997000Y-94487000D02*
X86997000Y-92587000D01*
X84677000Y-93087000D02*
X84677000Y-94487000D01*
X92182000Y-76708000D02*
X92182000Y-78658000D01*
X92182000Y-76708000D02*
X92182000Y-74758000D01*
X97302000Y-76708000D02*
X97302000Y-78658000D01*
X97302000Y-76708000D02*
X97302000Y-73258000D01*
X91102000Y-91061000D02*
X90762000Y-91061000D01*
X93302000Y-85841000D02*
X93642000Y-85841000D01*
X95822000Y-88451000D02*
X95822000Y-91061000D01*
X93642000Y-91061000D02*
X93302000Y-91061000D01*
X88582000Y-91061000D02*
X88582000Y-85841000D01*
X90762000Y-85841000D02*
X91102000Y-85841000D01*
D13*
X81862142Y-94556857D02*
X81909761Y-94604476D01*
X81957380Y-94747333D01*
X81957380Y-94842571D01*
X81909761Y-94985428D01*
X81814523Y-95080666D01*
X81719285Y-95128285D01*
X81528809Y-95175904D01*
X81385952Y-95175904D01*
X81195476Y-95128285D01*
X81100238Y-95080666D01*
X81005000Y-94985428D01*
X80957380Y-94842571D01*
X80957380Y-94747333D01*
X81005000Y-94604476D01*
X81052619Y-94556857D01*
X81957380Y-93604476D02*
X81957380Y-94175904D01*
X81957380Y-93890190D02*
X80957380Y-93890190D01*
X81100238Y-93985428D01*
X81195476Y-94080666D01*
X81243095Y-94175904D01*
X80957380Y-93271142D02*
X80957380Y-92604476D01*
X81957380Y-93033047D01*
X56204142Y-75839857D02*
X56251761Y-75887476D01*
X56299380Y-76030333D01*
X56299380Y-76125571D01*
X56251761Y-76268428D01*
X56156523Y-76363666D01*
X56061285Y-76411285D01*
X55870809Y-76458904D01*
X55727952Y-76458904D01*
X55537476Y-76411285D01*
X55442238Y-76363666D01*
X55347000Y-76268428D01*
X55299380Y-76125571D01*
X55299380Y-76030333D01*
X55347000Y-75887476D01*
X55394619Y-75839857D01*
X56299380Y-74887476D02*
X56299380Y-75458904D01*
X56299380Y-75173190D02*
X55299380Y-75173190D01*
X55442238Y-75268428D01*
X55537476Y-75363666D01*
X55585095Y-75458904D01*
X55299380Y-73982714D02*
X55299380Y-74458904D01*
X55775571Y-74506523D01*
X55727952Y-74458904D01*
X55680333Y-74363666D01*
X55680333Y-74125571D01*
X55727952Y-74030333D01*
X55775571Y-73982714D01*
X55870809Y-73935095D01*
X56108904Y-73935095D01*
X56204142Y-73982714D01*
X56251761Y-74030333D01*
X56299380Y-74125571D01*
X56299380Y-74363666D01*
X56251761Y-74458904D01*
X56204142Y-74506523D01*
X56993380Y-75558166D02*
X56993380Y-76034357D01*
X55993380Y-76034357D01*
X56326714Y-74796261D02*
X56993380Y-74796261D01*
X55945761Y-75034357D02*
X56660047Y-75272452D01*
X56660047Y-74653404D01*
X61057380Y-75304166D02*
X61057380Y-75780357D01*
X60057380Y-75780357D01*
X60057380Y-75066071D02*
X60057380Y-74447023D01*
X60438333Y-74780357D01*
X60438333Y-74637500D01*
X60485952Y-74542261D01*
X60533571Y-74494642D01*
X60628809Y-74447023D01*
X60866904Y-74447023D01*
X60962142Y-74494642D01*
X61009761Y-74542261D01*
X61057380Y-74637500D01*
X61057380Y-74923214D01*
X61009761Y-75018452D01*
X60962142Y-75066071D01*
X64105380Y-77336166D02*
X64105380Y-77812357D01*
X63105380Y-77812357D01*
X63200619Y-77050452D02*
X63153000Y-77002833D01*
X63105380Y-76907595D01*
X63105380Y-76669500D01*
X63153000Y-76574261D01*
X63200619Y-76526642D01*
X63295857Y-76479023D01*
X63391095Y-76479023D01*
X63533952Y-76526642D01*
X64105380Y-77098071D01*
X64105380Y-76479023D01*
X54996142Y-76146857D02*
X55043761Y-76194476D01*
X55091380Y-76337333D01*
X55091380Y-76432571D01*
X55043761Y-76575428D01*
X54948523Y-76670666D01*
X54853285Y-76718285D01*
X54662809Y-76765904D01*
X54519952Y-76765904D01*
X54329476Y-76718285D01*
X54234238Y-76670666D01*
X54139000Y-76575428D01*
X54091380Y-76432571D01*
X54091380Y-76337333D01*
X54139000Y-76194476D01*
X54186619Y-76146857D01*
X55091380Y-75194476D02*
X55091380Y-75765904D01*
X55091380Y-75480190D02*
X54091380Y-75480190D01*
X54234238Y-75575428D01*
X54329476Y-75670666D01*
X54377095Y-75765904D01*
X54091380Y-74337333D02*
X54091380Y-74527809D01*
X54139000Y-74623047D01*
X54186619Y-74670666D01*
X54329476Y-74765904D01*
X54519952Y-74813523D01*
X54900904Y-74813523D01*
X54996142Y-74765904D01*
X55043761Y-74718285D01*
X55091380Y-74623047D01*
X55091380Y-74432571D01*
X55043761Y-74337333D01*
X54996142Y-74289714D01*
X54900904Y-74242095D01*
X54662809Y-74242095D01*
X54567571Y-74289714D01*
X54519952Y-74337333D01*
X54472333Y-74432571D01*
X54472333Y-74623047D01*
X54519952Y-74718285D01*
X54567571Y-74765904D01*
X54662809Y-74813523D01*
X58653142Y-77159142D02*
X58605523Y-77206761D01*
X58462666Y-77254380D01*
X58367428Y-77254380D01*
X58224571Y-77206761D01*
X58129333Y-77111523D01*
X58081714Y-77016285D01*
X58034095Y-76825809D01*
X58034095Y-76682952D01*
X58081714Y-76492476D01*
X58129333Y-76397238D01*
X58224571Y-76302000D01*
X58367428Y-76254380D01*
X58462666Y-76254380D01*
X58605523Y-76302000D01*
X58653142Y-76349619D01*
X59605523Y-77254380D02*
X59034095Y-77254380D01*
X59319809Y-77254380D02*
X59319809Y-76254380D01*
X59224571Y-76397238D01*
X59129333Y-76492476D01*
X59034095Y-76540095D01*
X60462666Y-76587714D02*
X60462666Y-77254380D01*
X60224571Y-76206761D02*
X59986476Y-76921047D01*
X60605523Y-76921047D01*
X66557142Y-77350857D02*
X66604761Y-77398476D01*
X66652380Y-77541333D01*
X66652380Y-77636571D01*
X66604761Y-77779428D01*
X66509523Y-77874666D01*
X66414285Y-77922285D01*
X66223809Y-77969904D01*
X66080952Y-77969904D01*
X65890476Y-77922285D01*
X65795238Y-77874666D01*
X65700000Y-77779428D01*
X65652380Y-77636571D01*
X65652380Y-77541333D01*
X65700000Y-77398476D01*
X65747619Y-77350857D01*
X66652380Y-76398476D02*
X66652380Y-76969904D01*
X66652380Y-76684190D02*
X65652380Y-76684190D01*
X65795238Y-76779428D01*
X65890476Y-76874666D01*
X65938095Y-76969904D01*
X65652380Y-76065142D02*
X65652380Y-75446095D01*
X66033333Y-75779428D01*
X66033333Y-75636571D01*
X66080952Y-75541333D01*
X66128571Y-75493714D01*
X66223809Y-75446095D01*
X66461904Y-75446095D01*
X66557142Y-75493714D01*
X66604761Y-75541333D01*
X66652380Y-75636571D01*
X66652380Y-75922285D01*
X66604761Y-76017523D01*
X66557142Y-76065142D01*
X74557095Y-64652380D02*
X75128523Y-64652380D01*
X74842809Y-65652380D02*
X74842809Y-64652380D01*
X76033285Y-65652380D02*
X75699952Y-65176190D01*
X75461857Y-65652380D02*
X75461857Y-64652380D01*
X75842809Y-64652380D01*
X75938047Y-64700000D01*
X75985666Y-64747619D01*
X76033285Y-64842857D01*
X76033285Y-64985714D01*
X75985666Y-65080952D01*
X75938047Y-65128571D01*
X75842809Y-65176190D01*
X75461857Y-65176190D01*
X76414238Y-64747619D02*
X76461857Y-64700000D01*
X76557095Y-64652380D01*
X76795190Y-64652380D01*
X76890428Y-64700000D01*
X76938047Y-64747619D01*
X76985666Y-64842857D01*
X76985666Y-64938095D01*
X76938047Y-65080952D01*
X76366619Y-65652380D01*
X76985666Y-65652380D01*
X112396095Y-64652380D02*
X112967523Y-64652380D01*
X112681809Y-65652380D02*
X112681809Y-64652380D01*
X113872285Y-65652380D02*
X113538952Y-65176190D01*
X113300857Y-65652380D02*
X113300857Y-64652380D01*
X113681809Y-64652380D01*
X113777047Y-64700000D01*
X113824666Y-64747619D01*
X113872285Y-64842857D01*
X113872285Y-64985714D01*
X113824666Y-65080952D01*
X113777047Y-65128571D01*
X113681809Y-65176190D01*
X113300857Y-65176190D01*
X114824666Y-65652380D02*
X114253238Y-65652380D01*
X114538952Y-65652380D02*
X114538952Y-64652380D01*
X114443714Y-64795238D01*
X114348476Y-64890476D01*
X114253238Y-64938095D01*
X46656666Y-80402380D02*
X46656666Y-81116666D01*
X46609047Y-81259523D01*
X46513809Y-81354761D01*
X46370952Y-81402380D01*
X46275714Y-81402380D01*
X47037619Y-80402380D02*
X47656666Y-80402380D01*
X47323333Y-80783333D01*
X47466190Y-80783333D01*
X47561428Y-80830952D01*
X47609047Y-80878571D01*
X47656666Y-80973809D01*
X47656666Y-81211904D01*
X47609047Y-81307142D01*
X47561428Y-81354761D01*
X47466190Y-81402380D01*
X47180476Y-81402380D01*
X47085238Y-81354761D01*
X47037619Y-81307142D01*
X69761833Y-97132142D02*
X69714214Y-97179761D01*
X69571357Y-97227380D01*
X69476119Y-97227380D01*
X69333261Y-97179761D01*
X69238023Y-97084523D01*
X69190404Y-96989285D01*
X69142785Y-96798809D01*
X69142785Y-96655952D01*
X69190404Y-96465476D01*
X69238023Y-96370238D01*
X69333261Y-96275000D01*
X69476119Y-96227380D01*
X69571357Y-96227380D01*
X69714214Y-96275000D01*
X69761833Y-96322619D01*
X70714214Y-97227380D02*
X70142785Y-97227380D01*
X70428500Y-97227380D02*
X70428500Y-96227380D01*
X70333261Y-96370238D01*
X70238023Y-96465476D01*
X70142785Y-96513095D01*
X130975833Y-74907142D02*
X130928214Y-74954761D01*
X130785357Y-75002380D01*
X130690119Y-75002380D01*
X130547261Y-74954761D01*
X130452023Y-74859523D01*
X130404404Y-74764285D01*
X130356785Y-74573809D01*
X130356785Y-74430952D01*
X130404404Y-74240476D01*
X130452023Y-74145238D01*
X130547261Y-74050000D01*
X130690119Y-74002380D01*
X130785357Y-74002380D01*
X130928214Y-74050000D01*
X130975833Y-74097619D01*
X131356785Y-74097619D02*
X131404404Y-74050000D01*
X131499642Y-74002380D01*
X131737738Y-74002380D01*
X131832976Y-74050000D01*
X131880595Y-74097619D01*
X131928214Y-74192857D01*
X131928214Y-74288095D01*
X131880595Y-74430952D01*
X131309166Y-75002380D01*
X131928214Y-75002380D01*
X127569833Y-76971142D02*
X127522214Y-77018761D01*
X127379357Y-77066380D01*
X127284119Y-77066380D01*
X127141261Y-77018761D01*
X127046023Y-76923523D01*
X126998404Y-76828285D01*
X126950785Y-76637809D01*
X126950785Y-76494952D01*
X126998404Y-76304476D01*
X127046023Y-76209238D01*
X127141261Y-76114000D01*
X127284119Y-76066380D01*
X127379357Y-76066380D01*
X127522214Y-76114000D01*
X127569833Y-76161619D01*
X127903166Y-76066380D02*
X128522214Y-76066380D01*
X128188880Y-76447333D01*
X128331738Y-76447333D01*
X128426976Y-76494952D01*
X128474595Y-76542571D01*
X128522214Y-76637809D01*
X128522214Y-76875904D01*
X128474595Y-76971142D01*
X128426976Y-77018761D01*
X128331738Y-77066380D01*
X128046023Y-77066380D01*
X127950785Y-77018761D01*
X127903166Y-76971142D01*
X73444833Y-100432142D02*
X73397214Y-100479761D01*
X73254357Y-100527380D01*
X73159119Y-100527380D01*
X73016261Y-100479761D01*
X72921023Y-100384523D01*
X72873404Y-100289285D01*
X72825785Y-100098809D01*
X72825785Y-99955952D01*
X72873404Y-99765476D01*
X72921023Y-99670238D01*
X73016261Y-99575000D01*
X73159119Y-99527380D01*
X73254357Y-99527380D01*
X73397214Y-99575000D01*
X73444833Y-99622619D01*
X74301976Y-99860714D02*
X74301976Y-100527380D01*
X74063880Y-99479761D02*
X73825785Y-100194047D01*
X74444833Y-100194047D01*
X123895142Y-76366666D02*
X123942761Y-76414285D01*
X123990380Y-76557142D01*
X123990380Y-76652380D01*
X123942761Y-76795238D01*
X123847523Y-76890476D01*
X123752285Y-76938095D01*
X123561809Y-76985714D01*
X123418952Y-76985714D01*
X123228476Y-76938095D01*
X123133238Y-76890476D01*
X123038000Y-76795238D01*
X122990380Y-76652380D01*
X122990380Y-76557142D01*
X123038000Y-76414285D01*
X123085619Y-76366666D01*
X122990380Y-75461904D02*
X122990380Y-75938095D01*
X123466571Y-75985714D01*
X123418952Y-75938095D01*
X123371333Y-75842857D01*
X123371333Y-75604761D01*
X123418952Y-75509523D01*
X123466571Y-75461904D01*
X123561809Y-75414285D01*
X123799904Y-75414285D01*
X123895142Y-75461904D01*
X123942761Y-75509523D01*
X123990380Y-75604761D01*
X123990380Y-75842857D01*
X123942761Y-75938095D01*
X123895142Y-75985714D01*
X72936833Y-102845142D02*
X72889214Y-102892761D01*
X72746357Y-102940380D01*
X72651119Y-102940380D01*
X72508261Y-102892761D01*
X72413023Y-102797523D01*
X72365404Y-102702285D01*
X72317785Y-102511809D01*
X72317785Y-102368952D01*
X72365404Y-102178476D01*
X72413023Y-102083238D01*
X72508261Y-101988000D01*
X72651119Y-101940380D01*
X72746357Y-101940380D01*
X72889214Y-101988000D01*
X72936833Y-102035619D01*
X73793976Y-101940380D02*
X73603500Y-101940380D01*
X73508261Y-101988000D01*
X73460642Y-102035619D01*
X73365404Y-102178476D01*
X73317785Y-102368952D01*
X73317785Y-102749904D01*
X73365404Y-102845142D01*
X73413023Y-102892761D01*
X73508261Y-102940380D01*
X73698738Y-102940380D01*
X73793976Y-102892761D01*
X73841595Y-102845142D01*
X73889214Y-102749904D01*
X73889214Y-102511809D01*
X73841595Y-102416571D01*
X73793976Y-102368952D01*
X73698738Y-102321333D01*
X73508261Y-102321333D01*
X73413023Y-102368952D01*
X73365404Y-102416571D01*
X73317785Y-102511809D01*
X86271833Y-92812142D02*
X86224214Y-92859761D01*
X86081357Y-92907380D01*
X85986119Y-92907380D01*
X85843261Y-92859761D01*
X85748023Y-92764523D01*
X85700404Y-92669285D01*
X85652785Y-92478809D01*
X85652785Y-92335952D01*
X85700404Y-92145476D01*
X85748023Y-92050238D01*
X85843261Y-91955000D01*
X85986119Y-91907380D01*
X86081357Y-91907380D01*
X86224214Y-91955000D01*
X86271833Y-92002619D01*
X86605166Y-91907380D02*
X87271833Y-91907380D01*
X86843261Y-92907380D01*
X96073833Y-73923142D02*
X96026214Y-73970761D01*
X95883357Y-74018380D01*
X95788119Y-74018380D01*
X95645261Y-73970761D01*
X95550023Y-73875523D01*
X95502404Y-73780285D01*
X95454785Y-73589809D01*
X95454785Y-73446952D01*
X95502404Y-73256476D01*
X95550023Y-73161238D01*
X95645261Y-73066000D01*
X95788119Y-73018380D01*
X95883357Y-73018380D01*
X96026214Y-73066000D01*
X96073833Y-73113619D01*
X96645261Y-73446952D02*
X96550023Y-73399333D01*
X96502404Y-73351714D01*
X96454785Y-73256476D01*
X96454785Y-73208857D01*
X96502404Y-73113619D01*
X96550023Y-73066000D01*
X96645261Y-73018380D01*
X96835738Y-73018380D01*
X96930976Y-73066000D01*
X96978595Y-73113619D01*
X97026214Y-73208857D01*
X97026214Y-73256476D01*
X96978595Y-73351714D01*
X96930976Y-73399333D01*
X96835738Y-73446952D01*
X96645261Y-73446952D01*
X96550023Y-73494571D01*
X96502404Y-73542190D01*
X96454785Y-73637428D01*
X96454785Y-73827904D01*
X96502404Y-73923142D01*
X96550023Y-73970761D01*
X96645261Y-74018380D01*
X96835738Y-74018380D01*
X96930976Y-73970761D01*
X96978595Y-73923142D01*
X97026214Y-73827904D01*
X97026214Y-73637428D01*
X96978595Y-73542190D01*
X96930976Y-73494571D01*
X96835738Y-73446952D01*
X87734142Y-94830166D02*
X87781761Y-94877785D01*
X87829380Y-95020642D01*
X87829380Y-95115880D01*
X87781761Y-95258738D01*
X87686523Y-95353976D01*
X87591285Y-95401595D01*
X87400809Y-95449214D01*
X87257952Y-95449214D01*
X87067476Y-95401595D01*
X86972238Y-95353976D01*
X86877000Y-95258738D01*
X86829380Y-95115880D01*
X86829380Y-95020642D01*
X86877000Y-94877785D01*
X86924619Y-94830166D01*
X87829380Y-94353976D02*
X87829380Y-94163500D01*
X87781761Y-94068261D01*
X87734142Y-94020642D01*
X87591285Y-93925404D01*
X87400809Y-93877785D01*
X87019857Y-93877785D01*
X86924619Y-93925404D01*
X86877000Y-93973023D01*
X86829380Y-94068261D01*
X86829380Y-94258738D01*
X86877000Y-94353976D01*
X86924619Y-94401595D01*
X87019857Y-94449214D01*
X87257952Y-94449214D01*
X87353190Y-94401595D01*
X87400809Y-94353976D01*
X87448428Y-94258738D01*
X87448428Y-94068261D01*
X87400809Y-93973023D01*
X87353190Y-93925404D01*
X87257952Y-93877785D01*
X55188642Y-80239142D02*
X55141023Y-80286761D01*
X54998166Y-80334380D01*
X54902928Y-80334380D01*
X54760071Y-80286761D01*
X54664833Y-80191523D01*
X54617214Y-80096285D01*
X54569595Y-79905809D01*
X54569595Y-79762952D01*
X54617214Y-79572476D01*
X54664833Y-79477238D01*
X54760071Y-79382000D01*
X54902928Y-79334380D01*
X54998166Y-79334380D01*
X55141023Y-79382000D01*
X55188642Y-79429619D01*
X56141023Y-80334380D02*
X55569595Y-80334380D01*
X55855309Y-80334380D02*
X55855309Y-79334380D01*
X55760071Y-79477238D01*
X55664833Y-79572476D01*
X55569595Y-79620095D01*
X56760071Y-79334380D02*
X56855309Y-79334380D01*
X56950547Y-79382000D01*
X56998166Y-79429619D01*
X57045785Y-79524857D01*
X57093404Y-79715333D01*
X57093404Y-79953428D01*
X57045785Y-80143904D01*
X56998166Y-80239142D01*
X56950547Y-80286761D01*
X56855309Y-80334380D01*
X56760071Y-80334380D01*
X56664833Y-80286761D01*
X56617214Y-80239142D01*
X56569595Y-80143904D01*
X56521976Y-79953428D01*
X56521976Y-79715333D01*
X56569595Y-79524857D01*
X56617214Y-79429619D01*
X56664833Y-79382000D01*
X56760071Y-79334380D01*
X100559142Y-79207357D02*
X100606761Y-79254976D01*
X100654380Y-79397833D01*
X100654380Y-79493071D01*
X100606761Y-79635928D01*
X100511523Y-79731166D01*
X100416285Y-79778785D01*
X100225809Y-79826404D01*
X100082952Y-79826404D01*
X99892476Y-79778785D01*
X99797238Y-79731166D01*
X99702000Y-79635928D01*
X99654380Y-79493071D01*
X99654380Y-79397833D01*
X99702000Y-79254976D01*
X99749619Y-79207357D01*
X100654380Y-78254976D02*
X100654380Y-78826404D01*
X100654380Y-78540690D02*
X99654380Y-78540690D01*
X99797238Y-78635928D01*
X99892476Y-78731166D01*
X99940095Y-78826404D01*
X100654380Y-77302595D02*
X100654380Y-77874023D01*
X100654380Y-77588309D02*
X99654380Y-77588309D01*
X99797238Y-77683547D01*
X99892476Y-77778785D01*
X99940095Y-77874023D01*
X92941142Y-82860357D02*
X92988761Y-82907976D01*
X93036380Y-83050833D01*
X93036380Y-83146071D01*
X92988761Y-83288928D01*
X92893523Y-83384166D01*
X92798285Y-83431785D01*
X92607809Y-83479404D01*
X92464952Y-83479404D01*
X92274476Y-83431785D01*
X92179238Y-83384166D01*
X92084000Y-83288928D01*
X92036380Y-83146071D01*
X92036380Y-83050833D01*
X92084000Y-82907976D01*
X92131619Y-82860357D01*
X93036380Y-81907976D02*
X93036380Y-82479404D01*
X93036380Y-82193690D02*
X92036380Y-82193690D01*
X92179238Y-82288928D01*
X92274476Y-82384166D01*
X92322095Y-82479404D01*
X92131619Y-81527023D02*
X92084000Y-81479404D01*
X92036380Y-81384166D01*
X92036380Y-81146071D01*
X92084000Y-81050833D01*
X92131619Y-81003214D01*
X92226857Y-80955595D01*
X92322095Y-80955595D01*
X92464952Y-81003214D01*
X93036380Y-81574642D01*
X93036380Y-80955595D01*
X60865904Y-98194380D02*
X60865904Y-97194380D01*
X61104000Y-97194380D01*
X61246857Y-97242000D01*
X61342095Y-97337238D01*
X61389714Y-97432476D01*
X61437333Y-97622952D01*
X61437333Y-97765809D01*
X61389714Y-97956285D01*
X61342095Y-98051523D01*
X61246857Y-98146761D01*
X61104000Y-98194380D01*
X60865904Y-98194380D01*
X62389714Y-98194380D02*
X61818285Y-98194380D01*
X62104000Y-98194380D02*
X62104000Y-97194380D01*
X62008761Y-97337238D01*
X61913523Y-97432476D01*
X61818285Y-97480095D01*
X50529380Y-85955095D02*
X49529380Y-85955095D01*
X49529380Y-85717000D01*
X49577000Y-85574142D01*
X49672238Y-85478904D01*
X49767476Y-85431285D01*
X49957952Y-85383666D01*
X50100809Y-85383666D01*
X50291285Y-85431285D01*
X50386523Y-85478904D01*
X50481761Y-85574142D01*
X50529380Y-85717000D01*
X50529380Y-85955095D01*
X49624619Y-85002714D02*
X49577000Y-84955095D01*
X49529380Y-84859857D01*
X49529380Y-84621761D01*
X49577000Y-84526523D01*
X49624619Y-84478904D01*
X49719857Y-84431285D01*
X49815095Y-84431285D01*
X49957952Y-84478904D01*
X50529380Y-85050333D01*
X50529380Y-84431285D01*
X55839666Y-100241380D02*
X55839666Y-100955666D01*
X55792047Y-101098523D01*
X55696809Y-101193761D01*
X55553952Y-101241380D01*
X55458714Y-101241380D01*
X56839666Y-101241380D02*
X56268238Y-101241380D01*
X56553952Y-101241380D02*
X56553952Y-100241380D01*
X56458714Y-100384238D01*
X56363476Y-100479476D01*
X56268238Y-100527095D01*
X137080666Y-80402380D02*
X137080666Y-81116666D01*
X137033047Y-81259523D01*
X136937809Y-81354761D01*
X136794952Y-81402380D01*
X136699714Y-81402380D01*
X137509238Y-80497619D02*
X137556857Y-80450000D01*
X137652095Y-80402380D01*
X137890190Y-80402380D01*
X137985428Y-80450000D01*
X138033047Y-80497619D01*
X138080666Y-80592857D01*
X138080666Y-80688095D01*
X138033047Y-80830952D01*
X137461619Y-81402380D01*
X138080666Y-81402380D01*
X127262833Y-79572380D02*
X126786642Y-79572380D01*
X126786642Y-78572380D01*
X128119976Y-79572380D02*
X127548547Y-79572380D01*
X127834261Y-79572380D02*
X127834261Y-78572380D01*
X127739023Y-78715238D01*
X127643785Y-78810476D01*
X127548547Y-78858095D01*
X51473833Y-82749380D02*
X51140500Y-82273190D01*
X50902404Y-82749380D02*
X50902404Y-81749380D01*
X51283357Y-81749380D01*
X51378595Y-81797000D01*
X51426214Y-81844619D01*
X51473833Y-81939857D01*
X51473833Y-82082714D01*
X51426214Y-82177952D01*
X51378595Y-82225571D01*
X51283357Y-82273190D01*
X50902404Y-82273190D01*
X52426214Y-82749380D02*
X51854785Y-82749380D01*
X52140500Y-82749380D02*
X52140500Y-81749380D01*
X52045261Y-81892238D01*
X51950023Y-81987476D01*
X51854785Y-82035095D01*
X89393833Y-80556380D02*
X89060500Y-80080190D01*
X88822404Y-80556380D02*
X88822404Y-79556380D01*
X89203357Y-79556380D01*
X89298595Y-79604000D01*
X89346214Y-79651619D01*
X89393833Y-79746857D01*
X89393833Y-79889714D01*
X89346214Y-79984952D01*
X89298595Y-80032571D01*
X89203357Y-80080190D01*
X88822404Y-80080190D01*
X89774785Y-79651619D02*
X89822404Y-79604000D01*
X89917642Y-79556380D01*
X90155738Y-79556380D01*
X90250976Y-79604000D01*
X90298595Y-79651619D01*
X90346214Y-79746857D01*
X90346214Y-79842095D01*
X90298595Y-79984952D01*
X89727166Y-80556380D01*
X90346214Y-80556380D01*
X89368333Y-84940380D02*
X89035000Y-84464190D01*
X88796904Y-84940380D02*
X88796904Y-83940380D01*
X89177857Y-83940380D01*
X89273095Y-83988000D01*
X89320714Y-84035619D01*
X89368333Y-84130857D01*
X89368333Y-84273714D01*
X89320714Y-84368952D01*
X89273095Y-84416571D01*
X89177857Y-84464190D01*
X88796904Y-84464190D01*
X89701666Y-83940380D02*
X90320714Y-83940380D01*
X89987380Y-84321333D01*
X90130238Y-84321333D01*
X90225476Y-84368952D01*
X90273095Y-84416571D01*
X90320714Y-84511809D01*
X90320714Y-84749904D01*
X90273095Y-84845142D01*
X90225476Y-84892761D01*
X90130238Y-84940380D01*
X89844523Y-84940380D01*
X89749285Y-84892761D01*
X89701666Y-84845142D01*
X90843380Y-82488166D02*
X90367190Y-82821500D01*
X90843380Y-83059595D02*
X89843380Y-83059595D01*
X89843380Y-82678642D01*
X89891000Y-82583404D01*
X89938619Y-82535785D01*
X90033857Y-82488166D01*
X90176714Y-82488166D01*
X90271952Y-82535785D01*
X90319571Y-82583404D01*
X90367190Y-82678642D01*
X90367190Y-83059595D01*
X90176714Y-81631023D02*
X90843380Y-81631023D01*
X89795761Y-81869119D02*
X90510047Y-82107214D01*
X90510047Y-81488166D01*
X70993095Y-90559380D02*
X70993095Y-91368904D01*
X71040714Y-91464142D01*
X71088333Y-91511761D01*
X71183571Y-91559380D01*
X71374047Y-91559380D01*
X71469285Y-91511761D01*
X71516904Y-91464142D01*
X71564523Y-91368904D01*
X71564523Y-90559380D01*
X72564523Y-91559380D02*
X71993095Y-91559380D01*
X72278809Y-91559380D02*
X72278809Y-90559380D01*
X72183571Y-90702238D01*
X72088333Y-90797476D01*
X71993095Y-90845095D01*
X87289380Y-94548904D02*
X88098904Y-94548904D01*
X88194142Y-94501285D01*
X88241761Y-94453666D01*
X88289380Y-94358428D01*
X88289380Y-94167952D01*
X88241761Y-94072714D01*
X88194142Y-94025095D01*
X88098904Y-93977476D01*
X87289380Y-93977476D01*
X87384619Y-93548904D02*
X87337000Y-93501285D01*
X87289380Y-93406047D01*
X87289380Y-93167952D01*
X87337000Y-93072714D01*
X87384619Y-93025095D01*
X87479857Y-92977476D01*
X87575095Y-92977476D01*
X87717952Y-93025095D01*
X88289380Y-93596523D01*
X88289380Y-92977476D01*
X97594380Y-77469904D02*
X98403904Y-77469904D01*
X98499142Y-77422285D01*
X98546761Y-77374666D01*
X98594380Y-77279428D01*
X98594380Y-77088952D01*
X98546761Y-76993714D01*
X98499142Y-76946095D01*
X98403904Y-76898476D01*
X97594380Y-76898476D01*
X97594380Y-76517523D02*
X97594380Y-75898476D01*
X97975333Y-76231809D01*
X97975333Y-76088952D01*
X98022952Y-75993714D01*
X98070571Y-75946095D01*
X98165809Y-75898476D01*
X98403904Y-75898476D01*
X98499142Y-75946095D01*
X98546761Y-75993714D01*
X98594380Y-76088952D01*
X98594380Y-76374666D01*
X98546761Y-76469904D01*
X98499142Y-76517523D01*
X96284380Y-89260523D02*
X97284380Y-88593857D01*
X96284380Y-88593857D02*
X97284380Y-89260523D01*
X97284380Y-87689095D02*
X97284380Y-88260523D01*
X97284380Y-87974809D02*
X96284380Y-87974809D01*
X96427238Y-88070047D01*
X96522476Y-88165285D01*
X96570095Y-88260523D01*
%LPC*%
D14*
X139700000Y-104140000D03*
X44958000Y-104140000D03*
X139700000Y-66548000D03*
X44958000Y-66548000D03*
G36*
G01*
X83685000Y-93514000D02*
X82685000Y-93514000D01*
G75*
G02*
X82410000Y-93239000I0J275000D01*
G01*
X82410000Y-92689000D01*
G75*
G02*
X82685000Y-92414000I275000J0D01*
G01*
X83685000Y-92414000D01*
G75*
G02*
X83960000Y-92689000I0J-275000D01*
G01*
X83960000Y-93239000D01*
G75*
G02*
X83685000Y-93514000I-275000J0D01*
G01*
G37*
G36*
G01*
X83685000Y-95414000D02*
X82685000Y-95414000D01*
G75*
G02*
X82410000Y-95139000I0J275000D01*
G01*
X82410000Y-94589000D01*
G75*
G02*
X82685000Y-94314000I275000J0D01*
G01*
X83685000Y-94314000D01*
G75*
G02*
X83960000Y-94589000I0J-275000D01*
G01*
X83960000Y-95139000D01*
G75*
G02*
X83685000Y-95414000I-275000J0D01*
G01*
G37*
G36*
G01*
X57552000Y-74922000D02*
X57002000Y-74922000D01*
G75*
G02*
X56752000Y-74672000I0J250000D01*
G01*
X56752000Y-74172000D01*
G75*
G02*
X57002000Y-73922000I250000J0D01*
G01*
X57552000Y-73922000D01*
G75*
G02*
X57802000Y-74172000I0J-250000D01*
G01*
X57802000Y-74672000D01*
G75*
G02*
X57552000Y-74922000I-250000J0D01*
G01*
G37*
G36*
G01*
X57552000Y-76472000D02*
X57002000Y-76472000D01*
G75*
G02*
X56752000Y-76222000I0J250000D01*
G01*
X56752000Y-75722000D01*
G75*
G02*
X57002000Y-75472000I250000J0D01*
G01*
X57552000Y-75472000D01*
G75*
G02*
X57802000Y-75722000I0J-250000D01*
G01*
X57802000Y-76222000D01*
G75*
G02*
X57552000Y-76472000I-250000J0D01*
G01*
G37*
G36*
G01*
X54584750Y-75966500D02*
X55397250Y-75966500D01*
G75*
G02*
X55641000Y-76210250I0J-243750D01*
G01*
X55641000Y-76697750D01*
G75*
G02*
X55397250Y-76941500I-243750J0D01*
G01*
X54584750Y-76941500D01*
G75*
G02*
X54341000Y-76697750I0J243750D01*
G01*
X54341000Y-76210250D01*
G75*
G02*
X54584750Y-75966500I243750J0D01*
G01*
G37*
G36*
G01*
X54584750Y-73841500D02*
X55397250Y-73841500D01*
G75*
G02*
X55641000Y-74085250I0J-243750D01*
G01*
X55641000Y-74572750D01*
G75*
G02*
X55397250Y-74816500I-243750J0D01*
G01*
X54584750Y-74816500D01*
G75*
G02*
X54341000Y-74572750I0J243750D01*
G01*
X54341000Y-74085250D01*
G75*
G02*
X54584750Y-73841500I243750J0D01*
G01*
G37*
G36*
G01*
X58648750Y-75712500D02*
X59461250Y-75712500D01*
G75*
G02*
X59705000Y-75956250I0J-243750D01*
G01*
X59705000Y-76443750D01*
G75*
G02*
X59461250Y-76687500I-243750J0D01*
G01*
X58648750Y-76687500D01*
G75*
G02*
X58405000Y-76443750I0J243750D01*
G01*
X58405000Y-75956250D01*
G75*
G02*
X58648750Y-75712500I243750J0D01*
G01*
G37*
G36*
G01*
X58648750Y-73587500D02*
X59461250Y-73587500D01*
G75*
G02*
X59705000Y-73831250I0J-243750D01*
G01*
X59705000Y-74318750D01*
G75*
G02*
X59461250Y-74562500I-243750J0D01*
G01*
X58648750Y-74562500D01*
G75*
G02*
X58405000Y-74318750I0J243750D01*
G01*
X58405000Y-73831250D01*
G75*
G02*
X58648750Y-73587500I243750J0D01*
G01*
G37*
G36*
G01*
X61696750Y-77744500D02*
X62509250Y-77744500D01*
G75*
G02*
X62753000Y-77988250I0J-243750D01*
G01*
X62753000Y-78475750D01*
G75*
G02*
X62509250Y-78719500I-243750J0D01*
G01*
X61696750Y-78719500D01*
G75*
G02*
X61453000Y-78475750I0J243750D01*
G01*
X61453000Y-77988250D01*
G75*
G02*
X61696750Y-77744500I243750J0D01*
G01*
G37*
G36*
G01*
X61696750Y-75619500D02*
X62509250Y-75619500D01*
G75*
G02*
X62753000Y-75863250I0J-243750D01*
G01*
X62753000Y-76350750D01*
G75*
G02*
X62509250Y-76594500I-243750J0D01*
G01*
X61696750Y-76594500D01*
G75*
G02*
X61453000Y-76350750I0J243750D01*
G01*
X61453000Y-75863250D01*
G75*
G02*
X61696750Y-75619500I243750J0D01*
G01*
G37*
G36*
G01*
X52459000Y-75904000D02*
X53459000Y-75904000D01*
G75*
G02*
X53734000Y-76179000I0J-275000D01*
G01*
X53734000Y-76729000D01*
G75*
G02*
X53459000Y-77004000I-275000J0D01*
G01*
X52459000Y-77004000D01*
G75*
G02*
X52184000Y-76729000I0J275000D01*
G01*
X52184000Y-76179000D01*
G75*
G02*
X52459000Y-75904000I275000J0D01*
G01*
G37*
G36*
G01*
X52459000Y-74004000D02*
X53459000Y-74004000D01*
G75*
G02*
X53734000Y-74279000I0J-275000D01*
G01*
X53734000Y-74829000D01*
G75*
G02*
X53459000Y-75104000I-275000J0D01*
G01*
X52459000Y-75104000D01*
G75*
G02*
X52184000Y-74829000I0J275000D01*
G01*
X52184000Y-74279000D01*
G75*
G02*
X52459000Y-74004000I275000J0D01*
G01*
G37*
G36*
G01*
X59571000Y-78507000D02*
X59571000Y-77957000D01*
G75*
G02*
X59821000Y-77707000I250000J0D01*
G01*
X60321000Y-77707000D01*
G75*
G02*
X60571000Y-77957000I0J-250000D01*
G01*
X60571000Y-78507000D01*
G75*
G02*
X60321000Y-78757000I-250000J0D01*
G01*
X59821000Y-78757000D01*
G75*
G02*
X59571000Y-78507000I0J250000D01*
G01*
G37*
G36*
G01*
X58021000Y-78507000D02*
X58021000Y-77957000D01*
G75*
G02*
X58271000Y-77707000I250000J0D01*
G01*
X58771000Y-77707000D01*
G75*
G02*
X59021000Y-77957000I0J-250000D01*
G01*
X59021000Y-78507000D01*
G75*
G02*
X58771000Y-78757000I-250000J0D01*
G01*
X58271000Y-78757000D01*
G75*
G02*
X58021000Y-78507000I0J250000D01*
G01*
G37*
G36*
G01*
X64495000Y-76983000D02*
X65045000Y-76983000D01*
G75*
G02*
X65295000Y-77233000I0J-250000D01*
G01*
X65295000Y-77733000D01*
G75*
G02*
X65045000Y-77983000I-250000J0D01*
G01*
X64495000Y-77983000D01*
G75*
G02*
X64245000Y-77733000I0J250000D01*
G01*
X64245000Y-77233000D01*
G75*
G02*
X64495000Y-76983000I250000J0D01*
G01*
G37*
G36*
G01*
X64495000Y-75433000D02*
X65045000Y-75433000D01*
G75*
G02*
X65295000Y-75683000I0J-250000D01*
G01*
X65295000Y-76183000D01*
G75*
G02*
X65045000Y-76433000I-250000J0D01*
G01*
X64495000Y-76433000D01*
G75*
G02*
X64245000Y-76183000I0J250000D01*
G01*
X64245000Y-75683000D01*
G75*
G02*
X64495000Y-75433000I250000J0D01*
G01*
G37*
D15*
X68319000Y-68700000D03*
X68319000Y-83700000D03*
X83319000Y-68700000D03*
X83319000Y-83700000D03*
X106158000Y-68700000D03*
X106158000Y-83700000D03*
X121158000Y-68700000D03*
X121158000Y-83700000D03*
D16*
X49530000Y-73660000D03*
X49530000Y-78740000D03*
X44450000Y-78740000D03*
X44450000Y-73660000D03*
D17*
X46990000Y-76200000D03*
G36*
G01*
X68453500Y-98906250D02*
X68453500Y-97943750D01*
G75*
G02*
X68722250Y-97675000I268750J0D01*
G01*
X69259750Y-97675000D01*
G75*
G02*
X69528500Y-97943750I0J-268750D01*
G01*
X69528500Y-98906250D01*
G75*
G02*
X69259750Y-99175000I-268750J0D01*
G01*
X68722250Y-99175000D01*
G75*
G02*
X68453500Y-98906250I0J268750D01*
G01*
G37*
G36*
G01*
X70328500Y-98906250D02*
X70328500Y-97943750D01*
G75*
G02*
X70597250Y-97675000I268750J0D01*
G01*
X71134750Y-97675000D01*
G75*
G02*
X71403500Y-97943750I0J-268750D01*
G01*
X71403500Y-98906250D01*
G75*
G02*
X71134750Y-99175000I-268750J0D01*
G01*
X70597250Y-99175000D01*
G75*
G02*
X70328500Y-98906250I0J268750D01*
G01*
G37*
G36*
G01*
X129667500Y-76681250D02*
X129667500Y-75718750D01*
G75*
G02*
X129936250Y-75450000I268750J0D01*
G01*
X130473750Y-75450000D01*
G75*
G02*
X130742500Y-75718750I0J-268750D01*
G01*
X130742500Y-76681250D01*
G75*
G02*
X130473750Y-76950000I-268750J0D01*
G01*
X129936250Y-76950000D01*
G75*
G02*
X129667500Y-76681250I0J268750D01*
G01*
G37*
G36*
G01*
X131542500Y-76681250D02*
X131542500Y-75718750D01*
G75*
G02*
X131811250Y-75450000I268750J0D01*
G01*
X132348750Y-75450000D01*
G75*
G02*
X132617500Y-75718750I0J-268750D01*
G01*
X132617500Y-76681250D01*
G75*
G02*
X132348750Y-76950000I-268750J0D01*
G01*
X131811250Y-76950000D01*
G75*
G02*
X131542500Y-76681250I0J268750D01*
G01*
G37*
G36*
G01*
X129011500Y-74902750D02*
X129011500Y-75465250D01*
G75*
G02*
X128767750Y-75709000I-243750J0D01*
G01*
X128280250Y-75709000D01*
G75*
G02*
X128036500Y-75465250I0J243750D01*
G01*
X128036500Y-74902750D01*
G75*
G02*
X128280250Y-74659000I243750J0D01*
G01*
X128767750Y-74659000D01*
G75*
G02*
X129011500Y-74902750I0J-243750D01*
G01*
G37*
G36*
G01*
X127436500Y-74902750D02*
X127436500Y-75465250D01*
G75*
G02*
X127192750Y-75709000I-243750J0D01*
G01*
X126705250Y-75709000D01*
G75*
G02*
X126461500Y-75465250I0J243750D01*
G01*
X126461500Y-74902750D01*
G75*
G02*
X126705250Y-74659000I243750J0D01*
G01*
X127192750Y-74659000D01*
G75*
G02*
X127436500Y-74902750I0J-243750D01*
G01*
G37*
G36*
G01*
X73211500Y-97943750D02*
X73211500Y-98906250D01*
G75*
G02*
X72942750Y-99175000I-268750J0D01*
G01*
X72405250Y-99175000D01*
G75*
G02*
X72136500Y-98906250I0J268750D01*
G01*
X72136500Y-97943750D01*
G75*
G02*
X72405250Y-97675000I268750J0D01*
G01*
X72942750Y-97675000D01*
G75*
G02*
X73211500Y-97943750I0J-268750D01*
G01*
G37*
G36*
G01*
X75086500Y-97943750D02*
X75086500Y-98906250D01*
G75*
G02*
X74817750Y-99175000I-268750J0D01*
G01*
X74280250Y-99175000D01*
G75*
G02*
X74011500Y-98906250I0J268750D01*
G01*
X74011500Y-97943750D01*
G75*
G02*
X74280250Y-97675000I268750J0D01*
G01*
X74817750Y-97675000D01*
G75*
G02*
X75086500Y-97943750I0J-268750D01*
G01*
G37*
G36*
G01*
X125249250Y-75900000D02*
X124686750Y-75900000D01*
G75*
G02*
X124443000Y-75656250I0J243750D01*
G01*
X124443000Y-75168750D01*
G75*
G02*
X124686750Y-74925000I243750J0D01*
G01*
X125249250Y-74925000D01*
G75*
G02*
X125493000Y-75168750I0J-243750D01*
G01*
X125493000Y-75656250D01*
G75*
G02*
X125249250Y-75900000I-243750J0D01*
G01*
G37*
G36*
G01*
X125249250Y-77475000D02*
X124686750Y-77475000D01*
G75*
G02*
X124443000Y-77231250I0J243750D01*
G01*
X124443000Y-76743750D01*
G75*
G02*
X124686750Y-76500000I243750J0D01*
G01*
X125249250Y-76500000D01*
G75*
G02*
X125493000Y-76743750I0J-243750D01*
G01*
X125493000Y-77231250D01*
G75*
G02*
X125249250Y-77475000I-243750J0D01*
G01*
G37*
G36*
G01*
X74578500Y-100356750D02*
X74578500Y-101319250D01*
G75*
G02*
X74309750Y-101588000I-268750J0D01*
G01*
X73772250Y-101588000D01*
G75*
G02*
X73503500Y-101319250I0J268750D01*
G01*
X73503500Y-100356750D01*
G75*
G02*
X73772250Y-100088000I268750J0D01*
G01*
X74309750Y-100088000D01*
G75*
G02*
X74578500Y-100356750I0J-268750D01*
G01*
G37*
G36*
G01*
X72703500Y-100356750D02*
X72703500Y-101319250D01*
G75*
G02*
X72434750Y-101588000I-268750J0D01*
G01*
X71897250Y-101588000D01*
G75*
G02*
X71628500Y-101319250I0J268750D01*
G01*
X71628500Y-100356750D01*
G75*
G02*
X71897250Y-100088000I268750J0D01*
G01*
X72434750Y-100088000D01*
G75*
G02*
X72703500Y-100356750I0J-268750D01*
G01*
G37*
G36*
G01*
X86038500Y-90323750D02*
X86038500Y-91286250D01*
G75*
G02*
X85769750Y-91555000I-268750J0D01*
G01*
X85232250Y-91555000D01*
G75*
G02*
X84963500Y-91286250I0J268750D01*
G01*
X84963500Y-90323750D01*
G75*
G02*
X85232250Y-90055000I268750J0D01*
G01*
X85769750Y-90055000D01*
G75*
G02*
X86038500Y-90323750I0J-268750D01*
G01*
G37*
G36*
G01*
X87913500Y-90323750D02*
X87913500Y-91286250D01*
G75*
G02*
X87644750Y-91555000I-268750J0D01*
G01*
X87107250Y-91555000D01*
G75*
G02*
X86838500Y-91286250I0J268750D01*
G01*
X86838500Y-90323750D01*
G75*
G02*
X87107250Y-90055000I268750J0D01*
G01*
X87644750Y-90055000D01*
G75*
G02*
X87913500Y-90323750I0J-268750D01*
G01*
G37*
G36*
G01*
X97515500Y-71854750D02*
X97515500Y-72417250D01*
G75*
G02*
X97271750Y-72661000I-243750J0D01*
G01*
X96784250Y-72661000D01*
G75*
G02*
X96540500Y-72417250I0J243750D01*
G01*
X96540500Y-71854750D01*
G75*
G02*
X96784250Y-71611000I243750J0D01*
G01*
X97271750Y-71611000D01*
G75*
G02*
X97515500Y-71854750I0J-243750D01*
G01*
G37*
G36*
G01*
X95940500Y-71854750D02*
X95940500Y-72417250D01*
G75*
G02*
X95696750Y-72661000I-243750J0D01*
G01*
X95209250Y-72661000D01*
G75*
G02*
X94965500Y-72417250I0J243750D01*
G01*
X94965500Y-71854750D01*
G75*
G02*
X95209250Y-71611000I243750J0D01*
G01*
X95696750Y-71611000D01*
G75*
G02*
X95940500Y-71854750I0J-243750D01*
G01*
G37*
G36*
G01*
X89508250Y-96138500D02*
X88545750Y-96138500D01*
G75*
G02*
X88277000Y-95869750I0J268750D01*
G01*
X88277000Y-95332250D01*
G75*
G02*
X88545750Y-95063500I268750J0D01*
G01*
X89508250Y-95063500D01*
G75*
G02*
X89777000Y-95332250I0J-268750D01*
G01*
X89777000Y-95869750D01*
G75*
G02*
X89508250Y-96138500I-268750J0D01*
G01*
G37*
G36*
G01*
X89508250Y-94263500D02*
X88545750Y-94263500D01*
G75*
G02*
X88277000Y-93994750I0J268750D01*
G01*
X88277000Y-93457250D01*
G75*
G02*
X88545750Y-93188500I268750J0D01*
G01*
X89508250Y-93188500D01*
G75*
G02*
X89777000Y-93457250I0J-268750D01*
G01*
X89777000Y-93994750D01*
G75*
G02*
X89508250Y-94263500I-268750J0D01*
G01*
G37*
G36*
G01*
X55431500Y-77750750D02*
X55431500Y-78713250D01*
G75*
G02*
X55162750Y-78982000I-268750J0D01*
G01*
X54625250Y-78982000D01*
G75*
G02*
X54356500Y-78713250I0J268750D01*
G01*
X54356500Y-77750750D01*
G75*
G02*
X54625250Y-77482000I268750J0D01*
G01*
X55162750Y-77482000D01*
G75*
G02*
X55431500Y-77750750I0J-268750D01*
G01*
G37*
G36*
G01*
X57306500Y-77750750D02*
X57306500Y-78713250D01*
G75*
G02*
X57037750Y-78982000I-268750J0D01*
G01*
X56500250Y-78982000D01*
G75*
G02*
X56231500Y-78713250I0J268750D01*
G01*
X56231500Y-77750750D01*
G75*
G02*
X56500250Y-77482000I268750J0D01*
G01*
X57037750Y-77482000D01*
G75*
G02*
X57306500Y-77750750I0J-268750D01*
G01*
G37*
G36*
G01*
X98070750Y-77089500D02*
X99033250Y-77089500D01*
G75*
G02*
X99302000Y-77358250I0J-268750D01*
G01*
X99302000Y-77895750D01*
G75*
G02*
X99033250Y-78164500I-268750J0D01*
G01*
X98070750Y-78164500D01*
G75*
G02*
X97802000Y-77895750I0J268750D01*
G01*
X97802000Y-77358250D01*
G75*
G02*
X98070750Y-77089500I268750J0D01*
G01*
G37*
G36*
G01*
X98070750Y-78964500D02*
X99033250Y-78964500D01*
G75*
G02*
X99302000Y-79233250I0J-268750D01*
G01*
X99302000Y-79770750D01*
G75*
G02*
X99033250Y-80039500I-268750J0D01*
G01*
X98070750Y-80039500D01*
G75*
G02*
X97802000Y-79770750I0J268750D01*
G01*
X97802000Y-79233250D01*
G75*
G02*
X98070750Y-78964500I268750J0D01*
G01*
G37*
G36*
G01*
X94715250Y-81817500D02*
X93752750Y-81817500D01*
G75*
G02*
X93484000Y-81548750I0J268750D01*
G01*
X93484000Y-81011250D01*
G75*
G02*
X93752750Y-80742500I268750J0D01*
G01*
X94715250Y-80742500D01*
G75*
G02*
X94984000Y-81011250I0J-268750D01*
G01*
X94984000Y-81548750D01*
G75*
G02*
X94715250Y-81817500I-268750J0D01*
G01*
G37*
G36*
G01*
X94715250Y-83692500D02*
X93752750Y-83692500D01*
G75*
G02*
X93484000Y-83423750I0J268750D01*
G01*
X93484000Y-82886250D01*
G75*
G02*
X93752750Y-82617500I268750J0D01*
G01*
X94715250Y-82617500D01*
G75*
G02*
X94984000Y-82886250I0J-268750D01*
G01*
X94984000Y-83423750D01*
G75*
G02*
X94715250Y-83692500I-268750J0D01*
G01*
G37*
D18*
X63754000Y-94742000D03*
X59454000Y-94742000D03*
D19*
X47117000Y-83947000D03*
D20*
X47117000Y-86487000D03*
D21*
X54483000Y-94869000D03*
D22*
X48483000Y-94869000D03*
D23*
X51483000Y-99569000D03*
D17*
X137414000Y-76200000D03*
D16*
X134874000Y-73660000D03*
X134874000Y-78740000D03*
X139954000Y-78740000D03*
X139954000Y-73660000D03*
G36*
G01*
X128904500Y-76988750D02*
X128904500Y-77951250D01*
G75*
G02*
X128635750Y-78220000I-268750J0D01*
G01*
X128098250Y-78220000D01*
G75*
G02*
X127829500Y-77951250I0J268750D01*
G01*
X127829500Y-76988750D01*
G75*
G02*
X128098250Y-76720000I268750J0D01*
G01*
X128635750Y-76720000D01*
G75*
G02*
X128904500Y-76988750I0J-268750D01*
G01*
G37*
G36*
G01*
X127029500Y-76988750D02*
X127029500Y-77951250D01*
G75*
G02*
X126760750Y-78220000I-268750J0D01*
G01*
X126223250Y-78220000D01*
G75*
G02*
X125954500Y-77951250I0J268750D01*
G01*
X125954500Y-76988750D01*
G75*
G02*
X126223250Y-76720000I268750J0D01*
G01*
X126760750Y-76720000D01*
G75*
G02*
X127029500Y-76988750I0J-268750D01*
G01*
G37*
G36*
G01*
X50165500Y-84428250D02*
X50165500Y-83465750D01*
G75*
G02*
X50434250Y-83197000I268750J0D01*
G01*
X50971750Y-83197000D01*
G75*
G02*
X51240500Y-83465750I0J-268750D01*
G01*
X51240500Y-84428250D01*
G75*
G02*
X50971750Y-84697000I-268750J0D01*
G01*
X50434250Y-84697000D01*
G75*
G02*
X50165500Y-84428250I0J268750D01*
G01*
G37*
G36*
G01*
X52040500Y-84428250D02*
X52040500Y-83465750D01*
G75*
G02*
X52309250Y-83197000I268750J0D01*
G01*
X52846750Y-83197000D01*
G75*
G02*
X53115500Y-83465750I0J-268750D01*
G01*
X53115500Y-84428250D01*
G75*
G02*
X52846750Y-84697000I-268750J0D01*
G01*
X52309250Y-84697000D01*
G75*
G02*
X52040500Y-84428250I0J268750D01*
G01*
G37*
G36*
G01*
X88285500Y-81815250D02*
X88285500Y-81252750D01*
G75*
G02*
X88529250Y-81009000I243750J0D01*
G01*
X89016750Y-81009000D01*
G75*
G02*
X89260500Y-81252750I0J-243750D01*
G01*
X89260500Y-81815250D01*
G75*
G02*
X89016750Y-82059000I-243750J0D01*
G01*
X88529250Y-82059000D01*
G75*
G02*
X88285500Y-81815250I0J243750D01*
G01*
G37*
G36*
G01*
X89860500Y-81815250D02*
X89860500Y-81252750D01*
G75*
G02*
X90104250Y-81009000I243750J0D01*
G01*
X90591750Y-81009000D01*
G75*
G02*
X90835500Y-81252750I0J-243750D01*
G01*
X90835500Y-81815250D01*
G75*
G02*
X90591750Y-82059000I-243750J0D01*
G01*
X90104250Y-82059000D01*
G75*
G02*
X89860500Y-81815250I0J243750D01*
G01*
G37*
G36*
G01*
X89235000Y-82776750D02*
X89235000Y-83339250D01*
G75*
G02*
X88991250Y-83583000I-243750J0D01*
G01*
X88503750Y-83583000D01*
G75*
G02*
X88260000Y-83339250I0J243750D01*
G01*
X88260000Y-82776750D01*
G75*
G02*
X88503750Y-82533000I243750J0D01*
G01*
X88991250Y-82533000D01*
G75*
G02*
X89235000Y-82776750I0J-243750D01*
G01*
G37*
G36*
G01*
X90810000Y-82776750D02*
X90810000Y-83339250D01*
G75*
G02*
X90566250Y-83583000I-243750J0D01*
G01*
X90078750Y-83583000D01*
G75*
G02*
X89835000Y-83339250I0J243750D01*
G01*
X89835000Y-82776750D01*
G75*
G02*
X90078750Y-82533000I243750J0D01*
G01*
X90566250Y-82533000D01*
G75*
G02*
X90810000Y-82776750I0J-243750D01*
G01*
G37*
G36*
G01*
X92102250Y-83596500D02*
X91539750Y-83596500D01*
G75*
G02*
X91296000Y-83352750I0J243750D01*
G01*
X91296000Y-82865250D01*
G75*
G02*
X91539750Y-82621500I243750J0D01*
G01*
X92102250Y-82621500D01*
G75*
G02*
X92346000Y-82865250I0J-243750D01*
G01*
X92346000Y-83352750D01*
G75*
G02*
X92102250Y-83596500I-243750J0D01*
G01*
G37*
G36*
G01*
X92102250Y-82021500D02*
X91539750Y-82021500D01*
G75*
G02*
X91296000Y-81777750I0J243750D01*
G01*
X91296000Y-81290250D01*
G75*
G02*
X91539750Y-81046500I243750J0D01*
G01*
X92102250Y-81046500D01*
G75*
G02*
X92346000Y-81290250I0J-243750D01*
G01*
X92346000Y-81777750D01*
G75*
G02*
X92102250Y-82021500I-243750J0D01*
G01*
G37*
D24*
X69215000Y-95377000D03*
D25*
X71755000Y-95377000D03*
X74295000Y-95377000D03*
D26*
X86487000Y-92837000D03*
X85187000Y-92837000D03*
X85837000Y-92837000D03*
X85187000Y-94737000D03*
X86487000Y-94737000D03*
G36*
G01*
X96472000Y-73208000D02*
X96822000Y-73208000D01*
G75*
G02*
X96997000Y-73383000I0J-175000D01*
G01*
X96997000Y-74883000D01*
G75*
G02*
X96822000Y-75058000I-175000J0D01*
G01*
X96472000Y-75058000D01*
G75*
G02*
X96297000Y-74883000I0J175000D01*
G01*
X96297000Y-73383000D01*
G75*
G02*
X96472000Y-73208000I175000J0D01*
G01*
G37*
G36*
G01*
X95202000Y-73208000D02*
X95552000Y-73208000D01*
G75*
G02*
X95727000Y-73383000I0J-175000D01*
G01*
X95727000Y-74883000D01*
G75*
G02*
X95552000Y-75058000I-175000J0D01*
G01*
X95202000Y-75058000D01*
G75*
G02*
X95027000Y-74883000I0J175000D01*
G01*
X95027000Y-73383000D01*
G75*
G02*
X95202000Y-73208000I175000J0D01*
G01*
G37*
G36*
G01*
X93932000Y-73208000D02*
X94282000Y-73208000D01*
G75*
G02*
X94457000Y-73383000I0J-175000D01*
G01*
X94457000Y-74883000D01*
G75*
G02*
X94282000Y-75058000I-175000J0D01*
G01*
X93932000Y-75058000D01*
G75*
G02*
X93757000Y-74883000I0J175000D01*
G01*
X93757000Y-73383000D01*
G75*
G02*
X93932000Y-73208000I175000J0D01*
G01*
G37*
G36*
G01*
X92662000Y-73208000D02*
X93012000Y-73208000D01*
G75*
G02*
X93187000Y-73383000I0J-175000D01*
G01*
X93187000Y-74883000D01*
G75*
G02*
X93012000Y-75058000I-175000J0D01*
G01*
X92662000Y-75058000D01*
G75*
G02*
X92487000Y-74883000I0J175000D01*
G01*
X92487000Y-73383000D01*
G75*
G02*
X92662000Y-73208000I175000J0D01*
G01*
G37*
G36*
G01*
X92662000Y-78358000D02*
X93012000Y-78358000D01*
G75*
G02*
X93187000Y-78533000I0J-175000D01*
G01*
X93187000Y-80033000D01*
G75*
G02*
X93012000Y-80208000I-175000J0D01*
G01*
X92662000Y-80208000D01*
G75*
G02*
X92487000Y-80033000I0J175000D01*
G01*
X92487000Y-78533000D01*
G75*
G02*
X92662000Y-78358000I175000J0D01*
G01*
G37*
G36*
G01*
X93932000Y-78358000D02*
X94282000Y-78358000D01*
G75*
G02*
X94457000Y-78533000I0J-175000D01*
G01*
X94457000Y-80033000D01*
G75*
G02*
X94282000Y-80208000I-175000J0D01*
G01*
X93932000Y-80208000D01*
G75*
G02*
X93757000Y-80033000I0J175000D01*
G01*
X93757000Y-78533000D01*
G75*
G02*
X93932000Y-78358000I175000J0D01*
G01*
G37*
G36*
G01*
X95202000Y-78358000D02*
X95552000Y-78358000D01*
G75*
G02*
X95727000Y-78533000I0J-175000D01*
G01*
X95727000Y-80033000D01*
G75*
G02*
X95552000Y-80208000I-175000J0D01*
G01*
X95202000Y-80208000D01*
G75*
G02*
X95027000Y-80033000I0J175000D01*
G01*
X95027000Y-78533000D01*
G75*
G02*
X95202000Y-78358000I175000J0D01*
G01*
G37*
G36*
G01*
X96472000Y-78358000D02*
X96822000Y-78358000D01*
G75*
G02*
X96997000Y-78533000I0J-175000D01*
G01*
X96997000Y-80033000D01*
G75*
G02*
X96822000Y-80208000I-175000J0D01*
G01*
X96472000Y-80208000D01*
G75*
G02*
X96297000Y-80033000I0J175000D01*
G01*
X96297000Y-78533000D01*
G75*
G02*
X96472000Y-78358000I175000J0D01*
G01*
G37*
D27*
X92202000Y-90551000D03*
X92202000Y-86351000D03*
X94742000Y-90551000D03*
X89662000Y-90551000D03*
X89662000Y-86351000D03*
X94742000Y-86351000D03*
M02*
