G04 #@! TF.GenerationSoftware,KiCad,Pcbnew,5.1.6-c6e7f7d~87~ubuntu19.10.1*
G04 #@! TF.CreationDate,2021-08-02T21:19:55-04:00*
G04 #@! TF.ProjectId,upconverter,7570636f-6e76-4657-9274-65722e6b6963,rev?*
G04 #@! TF.SameCoordinates,Original*
G04 #@! TF.FileFunction,Paste,Top*
G04 #@! TF.FilePolarity,Positive*
%FSLAX46Y46*%
G04 Gerber Fmt 4.6, Leading zero omitted, Abs format (unit mm)*
G04 Created by KiCad (PCBNEW 5.1.6-c6e7f7d~87~ubuntu19.10.1) date 2021-08-02 21:19:55*
%MOMM*%
%LPD*%
G01*
G04 APERTURE LIST*
%ADD10R,2.500000X2.300000*%
%ADD11R,0.400000X0.650000*%
%ADD12R,1.800000X2.000000*%
G04 APERTURE END LIST*
G36*
G01*
X83660000Y-93464000D02*
X82710000Y-93464000D01*
G75*
G02*
X82460000Y-93214000I0J250000D01*
G01*
X82460000Y-92714000D01*
G75*
G02*
X82710000Y-92464000I250000J0D01*
G01*
X83660000Y-92464000D01*
G75*
G02*
X83910000Y-92714000I0J-250000D01*
G01*
X83910000Y-93214000D01*
G75*
G02*
X83660000Y-93464000I-250000J0D01*
G01*
G37*
G36*
G01*
X83660000Y-95364000D02*
X82710000Y-95364000D01*
G75*
G02*
X82460000Y-95114000I0J250000D01*
G01*
X82460000Y-94614000D01*
G75*
G02*
X82710000Y-94364000I250000J0D01*
G01*
X83660000Y-94364000D01*
G75*
G02*
X83910000Y-94614000I0J-250000D01*
G01*
X83910000Y-95114000D01*
G75*
G02*
X83660000Y-95364000I-250000J0D01*
G01*
G37*
G36*
G01*
X57527000Y-74872000D02*
X57027000Y-74872000D01*
G75*
G02*
X56802000Y-74647000I0J225000D01*
G01*
X56802000Y-74197000D01*
G75*
G02*
X57027000Y-73972000I225000J0D01*
G01*
X57527000Y-73972000D01*
G75*
G02*
X57752000Y-74197000I0J-225000D01*
G01*
X57752000Y-74647000D01*
G75*
G02*
X57527000Y-74872000I-225000J0D01*
G01*
G37*
G36*
G01*
X57527000Y-76422000D02*
X57027000Y-76422000D01*
G75*
G02*
X56802000Y-76197000I0J225000D01*
G01*
X56802000Y-75747000D01*
G75*
G02*
X57027000Y-75522000I225000J0D01*
G01*
X57527000Y-75522000D01*
G75*
G02*
X57752000Y-75747000I0J-225000D01*
G01*
X57752000Y-76197000D01*
G75*
G02*
X57527000Y-76422000I-225000J0D01*
G01*
G37*
G36*
G01*
X54609750Y-76016500D02*
X55372250Y-76016500D01*
G75*
G02*
X55591000Y-76235250I0J-218750D01*
G01*
X55591000Y-76672750D01*
G75*
G02*
X55372250Y-76891500I-218750J0D01*
G01*
X54609750Y-76891500D01*
G75*
G02*
X54391000Y-76672750I0J218750D01*
G01*
X54391000Y-76235250D01*
G75*
G02*
X54609750Y-76016500I218750J0D01*
G01*
G37*
G36*
G01*
X54609750Y-73891500D02*
X55372250Y-73891500D01*
G75*
G02*
X55591000Y-74110250I0J-218750D01*
G01*
X55591000Y-74547750D01*
G75*
G02*
X55372250Y-74766500I-218750J0D01*
G01*
X54609750Y-74766500D01*
G75*
G02*
X54391000Y-74547750I0J218750D01*
G01*
X54391000Y-74110250D01*
G75*
G02*
X54609750Y-73891500I218750J0D01*
G01*
G37*
G36*
G01*
X58673750Y-75762500D02*
X59436250Y-75762500D01*
G75*
G02*
X59655000Y-75981250I0J-218750D01*
G01*
X59655000Y-76418750D01*
G75*
G02*
X59436250Y-76637500I-218750J0D01*
G01*
X58673750Y-76637500D01*
G75*
G02*
X58455000Y-76418750I0J218750D01*
G01*
X58455000Y-75981250D01*
G75*
G02*
X58673750Y-75762500I218750J0D01*
G01*
G37*
G36*
G01*
X58673750Y-73637500D02*
X59436250Y-73637500D01*
G75*
G02*
X59655000Y-73856250I0J-218750D01*
G01*
X59655000Y-74293750D01*
G75*
G02*
X59436250Y-74512500I-218750J0D01*
G01*
X58673750Y-74512500D01*
G75*
G02*
X58455000Y-74293750I0J218750D01*
G01*
X58455000Y-73856250D01*
G75*
G02*
X58673750Y-73637500I218750J0D01*
G01*
G37*
G36*
G01*
X61721750Y-77794500D02*
X62484250Y-77794500D01*
G75*
G02*
X62703000Y-78013250I0J-218750D01*
G01*
X62703000Y-78450750D01*
G75*
G02*
X62484250Y-78669500I-218750J0D01*
G01*
X61721750Y-78669500D01*
G75*
G02*
X61503000Y-78450750I0J218750D01*
G01*
X61503000Y-78013250D01*
G75*
G02*
X61721750Y-77794500I218750J0D01*
G01*
G37*
G36*
G01*
X61721750Y-75669500D02*
X62484250Y-75669500D01*
G75*
G02*
X62703000Y-75888250I0J-218750D01*
G01*
X62703000Y-76325750D01*
G75*
G02*
X62484250Y-76544500I-218750J0D01*
G01*
X61721750Y-76544500D01*
G75*
G02*
X61503000Y-76325750I0J218750D01*
G01*
X61503000Y-75888250D01*
G75*
G02*
X61721750Y-75669500I218750J0D01*
G01*
G37*
G36*
G01*
X52484000Y-75954000D02*
X53434000Y-75954000D01*
G75*
G02*
X53684000Y-76204000I0J-250000D01*
G01*
X53684000Y-76704000D01*
G75*
G02*
X53434000Y-76954000I-250000J0D01*
G01*
X52484000Y-76954000D01*
G75*
G02*
X52234000Y-76704000I0J250000D01*
G01*
X52234000Y-76204000D01*
G75*
G02*
X52484000Y-75954000I250000J0D01*
G01*
G37*
G36*
G01*
X52484000Y-74054000D02*
X53434000Y-74054000D01*
G75*
G02*
X53684000Y-74304000I0J-250000D01*
G01*
X53684000Y-74804000D01*
G75*
G02*
X53434000Y-75054000I-250000J0D01*
G01*
X52484000Y-75054000D01*
G75*
G02*
X52234000Y-74804000I0J250000D01*
G01*
X52234000Y-74304000D01*
G75*
G02*
X52484000Y-74054000I250000J0D01*
G01*
G37*
G36*
G01*
X59621000Y-78482000D02*
X59621000Y-77982000D01*
G75*
G02*
X59846000Y-77757000I225000J0D01*
G01*
X60296000Y-77757000D01*
G75*
G02*
X60521000Y-77982000I0J-225000D01*
G01*
X60521000Y-78482000D01*
G75*
G02*
X60296000Y-78707000I-225000J0D01*
G01*
X59846000Y-78707000D01*
G75*
G02*
X59621000Y-78482000I0J225000D01*
G01*
G37*
G36*
G01*
X58071000Y-78482000D02*
X58071000Y-77982000D01*
G75*
G02*
X58296000Y-77757000I225000J0D01*
G01*
X58746000Y-77757000D01*
G75*
G02*
X58971000Y-77982000I0J-225000D01*
G01*
X58971000Y-78482000D01*
G75*
G02*
X58746000Y-78707000I-225000J0D01*
G01*
X58296000Y-78707000D01*
G75*
G02*
X58071000Y-78482000I0J225000D01*
G01*
G37*
G36*
G01*
X64520000Y-77033000D02*
X65020000Y-77033000D01*
G75*
G02*
X65245000Y-77258000I0J-225000D01*
G01*
X65245000Y-77708000D01*
G75*
G02*
X65020000Y-77933000I-225000J0D01*
G01*
X64520000Y-77933000D01*
G75*
G02*
X64295000Y-77708000I0J225000D01*
G01*
X64295000Y-77258000D01*
G75*
G02*
X64520000Y-77033000I225000J0D01*
G01*
G37*
G36*
G01*
X64520000Y-75483000D02*
X65020000Y-75483000D01*
G75*
G02*
X65245000Y-75708000I0J-225000D01*
G01*
X65245000Y-76158000D01*
G75*
G02*
X65020000Y-76383000I-225000J0D01*
G01*
X64520000Y-76383000D01*
G75*
G02*
X64295000Y-76158000I0J225000D01*
G01*
X64295000Y-75708000D01*
G75*
G02*
X64520000Y-75483000I225000J0D01*
G01*
G37*
G36*
G01*
X68503500Y-98881250D02*
X68503500Y-97968750D01*
G75*
G02*
X68747250Y-97725000I243750J0D01*
G01*
X69234750Y-97725000D01*
G75*
G02*
X69478500Y-97968750I0J-243750D01*
G01*
X69478500Y-98881250D01*
G75*
G02*
X69234750Y-99125000I-243750J0D01*
G01*
X68747250Y-99125000D01*
G75*
G02*
X68503500Y-98881250I0J243750D01*
G01*
G37*
G36*
G01*
X70378500Y-98881250D02*
X70378500Y-97968750D01*
G75*
G02*
X70622250Y-97725000I243750J0D01*
G01*
X71109750Y-97725000D01*
G75*
G02*
X71353500Y-97968750I0J-243750D01*
G01*
X71353500Y-98881250D01*
G75*
G02*
X71109750Y-99125000I-243750J0D01*
G01*
X70622250Y-99125000D01*
G75*
G02*
X70378500Y-98881250I0J243750D01*
G01*
G37*
G36*
G01*
X129717500Y-76656250D02*
X129717500Y-75743750D01*
G75*
G02*
X129961250Y-75500000I243750J0D01*
G01*
X130448750Y-75500000D01*
G75*
G02*
X130692500Y-75743750I0J-243750D01*
G01*
X130692500Y-76656250D01*
G75*
G02*
X130448750Y-76900000I-243750J0D01*
G01*
X129961250Y-76900000D01*
G75*
G02*
X129717500Y-76656250I0J243750D01*
G01*
G37*
G36*
G01*
X131592500Y-76656250D02*
X131592500Y-75743750D01*
G75*
G02*
X131836250Y-75500000I243750J0D01*
G01*
X132323750Y-75500000D01*
G75*
G02*
X132567500Y-75743750I0J-243750D01*
G01*
X132567500Y-76656250D01*
G75*
G02*
X132323750Y-76900000I-243750J0D01*
G01*
X131836250Y-76900000D01*
G75*
G02*
X131592500Y-76656250I0J243750D01*
G01*
G37*
G36*
G01*
X128961500Y-74927750D02*
X128961500Y-75440250D01*
G75*
G02*
X128742750Y-75659000I-218750J0D01*
G01*
X128305250Y-75659000D01*
G75*
G02*
X128086500Y-75440250I0J218750D01*
G01*
X128086500Y-74927750D01*
G75*
G02*
X128305250Y-74709000I218750J0D01*
G01*
X128742750Y-74709000D01*
G75*
G02*
X128961500Y-74927750I0J-218750D01*
G01*
G37*
G36*
G01*
X127386500Y-74927750D02*
X127386500Y-75440250D01*
G75*
G02*
X127167750Y-75659000I-218750J0D01*
G01*
X126730250Y-75659000D01*
G75*
G02*
X126511500Y-75440250I0J218750D01*
G01*
X126511500Y-74927750D01*
G75*
G02*
X126730250Y-74709000I218750J0D01*
G01*
X127167750Y-74709000D01*
G75*
G02*
X127386500Y-74927750I0J-218750D01*
G01*
G37*
G36*
G01*
X73161500Y-97968750D02*
X73161500Y-98881250D01*
G75*
G02*
X72917750Y-99125000I-243750J0D01*
G01*
X72430250Y-99125000D01*
G75*
G02*
X72186500Y-98881250I0J243750D01*
G01*
X72186500Y-97968750D01*
G75*
G02*
X72430250Y-97725000I243750J0D01*
G01*
X72917750Y-97725000D01*
G75*
G02*
X73161500Y-97968750I0J-243750D01*
G01*
G37*
G36*
G01*
X75036500Y-97968750D02*
X75036500Y-98881250D01*
G75*
G02*
X74792750Y-99125000I-243750J0D01*
G01*
X74305250Y-99125000D01*
G75*
G02*
X74061500Y-98881250I0J243750D01*
G01*
X74061500Y-97968750D01*
G75*
G02*
X74305250Y-97725000I243750J0D01*
G01*
X74792750Y-97725000D01*
G75*
G02*
X75036500Y-97968750I0J-243750D01*
G01*
G37*
G36*
G01*
X125224250Y-75850000D02*
X124711750Y-75850000D01*
G75*
G02*
X124493000Y-75631250I0J218750D01*
G01*
X124493000Y-75193750D01*
G75*
G02*
X124711750Y-74975000I218750J0D01*
G01*
X125224250Y-74975000D01*
G75*
G02*
X125443000Y-75193750I0J-218750D01*
G01*
X125443000Y-75631250D01*
G75*
G02*
X125224250Y-75850000I-218750J0D01*
G01*
G37*
G36*
G01*
X125224250Y-77425000D02*
X124711750Y-77425000D01*
G75*
G02*
X124493000Y-77206250I0J218750D01*
G01*
X124493000Y-76768750D01*
G75*
G02*
X124711750Y-76550000I218750J0D01*
G01*
X125224250Y-76550000D01*
G75*
G02*
X125443000Y-76768750I0J-218750D01*
G01*
X125443000Y-77206250D01*
G75*
G02*
X125224250Y-77425000I-218750J0D01*
G01*
G37*
G36*
G01*
X74528500Y-100381750D02*
X74528500Y-101294250D01*
G75*
G02*
X74284750Y-101538000I-243750J0D01*
G01*
X73797250Y-101538000D01*
G75*
G02*
X73553500Y-101294250I0J243750D01*
G01*
X73553500Y-100381750D01*
G75*
G02*
X73797250Y-100138000I243750J0D01*
G01*
X74284750Y-100138000D01*
G75*
G02*
X74528500Y-100381750I0J-243750D01*
G01*
G37*
G36*
G01*
X72653500Y-100381750D02*
X72653500Y-101294250D01*
G75*
G02*
X72409750Y-101538000I-243750J0D01*
G01*
X71922250Y-101538000D01*
G75*
G02*
X71678500Y-101294250I0J243750D01*
G01*
X71678500Y-100381750D01*
G75*
G02*
X71922250Y-100138000I243750J0D01*
G01*
X72409750Y-100138000D01*
G75*
G02*
X72653500Y-100381750I0J-243750D01*
G01*
G37*
G36*
G01*
X85988500Y-90348750D02*
X85988500Y-91261250D01*
G75*
G02*
X85744750Y-91505000I-243750J0D01*
G01*
X85257250Y-91505000D01*
G75*
G02*
X85013500Y-91261250I0J243750D01*
G01*
X85013500Y-90348750D01*
G75*
G02*
X85257250Y-90105000I243750J0D01*
G01*
X85744750Y-90105000D01*
G75*
G02*
X85988500Y-90348750I0J-243750D01*
G01*
G37*
G36*
G01*
X87863500Y-90348750D02*
X87863500Y-91261250D01*
G75*
G02*
X87619750Y-91505000I-243750J0D01*
G01*
X87132250Y-91505000D01*
G75*
G02*
X86888500Y-91261250I0J243750D01*
G01*
X86888500Y-90348750D01*
G75*
G02*
X87132250Y-90105000I243750J0D01*
G01*
X87619750Y-90105000D01*
G75*
G02*
X87863500Y-90348750I0J-243750D01*
G01*
G37*
G36*
G01*
X97465500Y-71879750D02*
X97465500Y-72392250D01*
G75*
G02*
X97246750Y-72611000I-218750J0D01*
G01*
X96809250Y-72611000D01*
G75*
G02*
X96590500Y-72392250I0J218750D01*
G01*
X96590500Y-71879750D01*
G75*
G02*
X96809250Y-71661000I218750J0D01*
G01*
X97246750Y-71661000D01*
G75*
G02*
X97465500Y-71879750I0J-218750D01*
G01*
G37*
G36*
G01*
X95890500Y-71879750D02*
X95890500Y-72392250D01*
G75*
G02*
X95671750Y-72611000I-218750J0D01*
G01*
X95234250Y-72611000D01*
G75*
G02*
X95015500Y-72392250I0J218750D01*
G01*
X95015500Y-71879750D01*
G75*
G02*
X95234250Y-71661000I218750J0D01*
G01*
X95671750Y-71661000D01*
G75*
G02*
X95890500Y-71879750I0J-218750D01*
G01*
G37*
G36*
G01*
X89483250Y-96088500D02*
X88570750Y-96088500D01*
G75*
G02*
X88327000Y-95844750I0J243750D01*
G01*
X88327000Y-95357250D01*
G75*
G02*
X88570750Y-95113500I243750J0D01*
G01*
X89483250Y-95113500D01*
G75*
G02*
X89727000Y-95357250I0J-243750D01*
G01*
X89727000Y-95844750D01*
G75*
G02*
X89483250Y-96088500I-243750J0D01*
G01*
G37*
G36*
G01*
X89483250Y-94213500D02*
X88570750Y-94213500D01*
G75*
G02*
X88327000Y-93969750I0J243750D01*
G01*
X88327000Y-93482250D01*
G75*
G02*
X88570750Y-93238500I243750J0D01*
G01*
X89483250Y-93238500D01*
G75*
G02*
X89727000Y-93482250I0J-243750D01*
G01*
X89727000Y-93969750D01*
G75*
G02*
X89483250Y-94213500I-243750J0D01*
G01*
G37*
G36*
G01*
X55381500Y-77775750D02*
X55381500Y-78688250D01*
G75*
G02*
X55137750Y-78932000I-243750J0D01*
G01*
X54650250Y-78932000D01*
G75*
G02*
X54406500Y-78688250I0J243750D01*
G01*
X54406500Y-77775750D01*
G75*
G02*
X54650250Y-77532000I243750J0D01*
G01*
X55137750Y-77532000D01*
G75*
G02*
X55381500Y-77775750I0J-243750D01*
G01*
G37*
G36*
G01*
X57256500Y-77775750D02*
X57256500Y-78688250D01*
G75*
G02*
X57012750Y-78932000I-243750J0D01*
G01*
X56525250Y-78932000D01*
G75*
G02*
X56281500Y-78688250I0J243750D01*
G01*
X56281500Y-77775750D01*
G75*
G02*
X56525250Y-77532000I243750J0D01*
G01*
X57012750Y-77532000D01*
G75*
G02*
X57256500Y-77775750I0J-243750D01*
G01*
G37*
G36*
G01*
X98095750Y-77139500D02*
X99008250Y-77139500D01*
G75*
G02*
X99252000Y-77383250I0J-243750D01*
G01*
X99252000Y-77870750D01*
G75*
G02*
X99008250Y-78114500I-243750J0D01*
G01*
X98095750Y-78114500D01*
G75*
G02*
X97852000Y-77870750I0J243750D01*
G01*
X97852000Y-77383250D01*
G75*
G02*
X98095750Y-77139500I243750J0D01*
G01*
G37*
G36*
G01*
X98095750Y-79014500D02*
X99008250Y-79014500D01*
G75*
G02*
X99252000Y-79258250I0J-243750D01*
G01*
X99252000Y-79745750D01*
G75*
G02*
X99008250Y-79989500I-243750J0D01*
G01*
X98095750Y-79989500D01*
G75*
G02*
X97852000Y-79745750I0J243750D01*
G01*
X97852000Y-79258250D01*
G75*
G02*
X98095750Y-79014500I243750J0D01*
G01*
G37*
G36*
G01*
X94690250Y-81767500D02*
X93777750Y-81767500D01*
G75*
G02*
X93534000Y-81523750I0J243750D01*
G01*
X93534000Y-81036250D01*
G75*
G02*
X93777750Y-80792500I243750J0D01*
G01*
X94690250Y-80792500D01*
G75*
G02*
X94934000Y-81036250I0J-243750D01*
G01*
X94934000Y-81523750D01*
G75*
G02*
X94690250Y-81767500I-243750J0D01*
G01*
G37*
G36*
G01*
X94690250Y-83642500D02*
X93777750Y-83642500D01*
G75*
G02*
X93534000Y-83398750I0J243750D01*
G01*
X93534000Y-82911250D01*
G75*
G02*
X93777750Y-82667500I243750J0D01*
G01*
X94690250Y-82667500D01*
G75*
G02*
X94934000Y-82911250I0J-243750D01*
G01*
X94934000Y-83398750D01*
G75*
G02*
X94690250Y-83642500I-243750J0D01*
G01*
G37*
D10*
X63754000Y-94742000D03*
X59454000Y-94742000D03*
G36*
G01*
X128854500Y-77013750D02*
X128854500Y-77926250D01*
G75*
G02*
X128610750Y-78170000I-243750J0D01*
G01*
X128123250Y-78170000D01*
G75*
G02*
X127879500Y-77926250I0J243750D01*
G01*
X127879500Y-77013750D01*
G75*
G02*
X128123250Y-76770000I243750J0D01*
G01*
X128610750Y-76770000D01*
G75*
G02*
X128854500Y-77013750I0J-243750D01*
G01*
G37*
G36*
G01*
X126979500Y-77013750D02*
X126979500Y-77926250D01*
G75*
G02*
X126735750Y-78170000I-243750J0D01*
G01*
X126248250Y-78170000D01*
G75*
G02*
X126004500Y-77926250I0J243750D01*
G01*
X126004500Y-77013750D01*
G75*
G02*
X126248250Y-76770000I243750J0D01*
G01*
X126735750Y-76770000D01*
G75*
G02*
X126979500Y-77013750I0J-243750D01*
G01*
G37*
G36*
G01*
X50215500Y-84403250D02*
X50215500Y-83490750D01*
G75*
G02*
X50459250Y-83247000I243750J0D01*
G01*
X50946750Y-83247000D01*
G75*
G02*
X51190500Y-83490750I0J-243750D01*
G01*
X51190500Y-84403250D01*
G75*
G02*
X50946750Y-84647000I-243750J0D01*
G01*
X50459250Y-84647000D01*
G75*
G02*
X50215500Y-84403250I0J243750D01*
G01*
G37*
G36*
G01*
X52090500Y-84403250D02*
X52090500Y-83490750D01*
G75*
G02*
X52334250Y-83247000I243750J0D01*
G01*
X52821750Y-83247000D01*
G75*
G02*
X53065500Y-83490750I0J-243750D01*
G01*
X53065500Y-84403250D01*
G75*
G02*
X52821750Y-84647000I-243750J0D01*
G01*
X52334250Y-84647000D01*
G75*
G02*
X52090500Y-84403250I0J243750D01*
G01*
G37*
G36*
G01*
X88335500Y-81790250D02*
X88335500Y-81277750D01*
G75*
G02*
X88554250Y-81059000I218750J0D01*
G01*
X88991750Y-81059000D01*
G75*
G02*
X89210500Y-81277750I0J-218750D01*
G01*
X89210500Y-81790250D01*
G75*
G02*
X88991750Y-82009000I-218750J0D01*
G01*
X88554250Y-82009000D01*
G75*
G02*
X88335500Y-81790250I0J218750D01*
G01*
G37*
G36*
G01*
X89910500Y-81790250D02*
X89910500Y-81277750D01*
G75*
G02*
X90129250Y-81059000I218750J0D01*
G01*
X90566750Y-81059000D01*
G75*
G02*
X90785500Y-81277750I0J-218750D01*
G01*
X90785500Y-81790250D01*
G75*
G02*
X90566750Y-82009000I-218750J0D01*
G01*
X90129250Y-82009000D01*
G75*
G02*
X89910500Y-81790250I0J218750D01*
G01*
G37*
G36*
G01*
X89185000Y-82801750D02*
X89185000Y-83314250D01*
G75*
G02*
X88966250Y-83533000I-218750J0D01*
G01*
X88528750Y-83533000D01*
G75*
G02*
X88310000Y-83314250I0J218750D01*
G01*
X88310000Y-82801750D01*
G75*
G02*
X88528750Y-82583000I218750J0D01*
G01*
X88966250Y-82583000D01*
G75*
G02*
X89185000Y-82801750I0J-218750D01*
G01*
G37*
G36*
G01*
X90760000Y-82801750D02*
X90760000Y-83314250D01*
G75*
G02*
X90541250Y-83533000I-218750J0D01*
G01*
X90103750Y-83533000D01*
G75*
G02*
X89885000Y-83314250I0J218750D01*
G01*
X89885000Y-82801750D01*
G75*
G02*
X90103750Y-82583000I218750J0D01*
G01*
X90541250Y-82583000D01*
G75*
G02*
X90760000Y-82801750I0J-218750D01*
G01*
G37*
G36*
G01*
X92077250Y-83546500D02*
X91564750Y-83546500D01*
G75*
G02*
X91346000Y-83327750I0J218750D01*
G01*
X91346000Y-82890250D01*
G75*
G02*
X91564750Y-82671500I218750J0D01*
G01*
X92077250Y-82671500D01*
G75*
G02*
X92296000Y-82890250I0J-218750D01*
G01*
X92296000Y-83327750D01*
G75*
G02*
X92077250Y-83546500I-218750J0D01*
G01*
G37*
G36*
G01*
X92077250Y-81971500D02*
X91564750Y-81971500D01*
G75*
G02*
X91346000Y-81752750I0J218750D01*
G01*
X91346000Y-81315250D01*
G75*
G02*
X91564750Y-81096500I218750J0D01*
G01*
X92077250Y-81096500D01*
G75*
G02*
X92296000Y-81315250I0J-218750D01*
G01*
X92296000Y-81752750D01*
G75*
G02*
X92077250Y-81971500I-218750J0D01*
G01*
G37*
D11*
X86487000Y-92837000D03*
X85187000Y-92837000D03*
X85837000Y-92837000D03*
X85187000Y-94737000D03*
X86487000Y-94737000D03*
G36*
G01*
X96497000Y-73258000D02*
X96797000Y-73258000D01*
G75*
G02*
X96947000Y-73408000I0J-150000D01*
G01*
X96947000Y-74858000D01*
G75*
G02*
X96797000Y-75008000I-150000J0D01*
G01*
X96497000Y-75008000D01*
G75*
G02*
X96347000Y-74858000I0J150000D01*
G01*
X96347000Y-73408000D01*
G75*
G02*
X96497000Y-73258000I150000J0D01*
G01*
G37*
G36*
G01*
X95227000Y-73258000D02*
X95527000Y-73258000D01*
G75*
G02*
X95677000Y-73408000I0J-150000D01*
G01*
X95677000Y-74858000D01*
G75*
G02*
X95527000Y-75008000I-150000J0D01*
G01*
X95227000Y-75008000D01*
G75*
G02*
X95077000Y-74858000I0J150000D01*
G01*
X95077000Y-73408000D01*
G75*
G02*
X95227000Y-73258000I150000J0D01*
G01*
G37*
G36*
G01*
X93957000Y-73258000D02*
X94257000Y-73258000D01*
G75*
G02*
X94407000Y-73408000I0J-150000D01*
G01*
X94407000Y-74858000D01*
G75*
G02*
X94257000Y-75008000I-150000J0D01*
G01*
X93957000Y-75008000D01*
G75*
G02*
X93807000Y-74858000I0J150000D01*
G01*
X93807000Y-73408000D01*
G75*
G02*
X93957000Y-73258000I150000J0D01*
G01*
G37*
G36*
G01*
X92687000Y-73258000D02*
X92987000Y-73258000D01*
G75*
G02*
X93137000Y-73408000I0J-150000D01*
G01*
X93137000Y-74858000D01*
G75*
G02*
X92987000Y-75008000I-150000J0D01*
G01*
X92687000Y-75008000D01*
G75*
G02*
X92537000Y-74858000I0J150000D01*
G01*
X92537000Y-73408000D01*
G75*
G02*
X92687000Y-73258000I150000J0D01*
G01*
G37*
G36*
G01*
X92687000Y-78408000D02*
X92987000Y-78408000D01*
G75*
G02*
X93137000Y-78558000I0J-150000D01*
G01*
X93137000Y-80008000D01*
G75*
G02*
X92987000Y-80158000I-150000J0D01*
G01*
X92687000Y-80158000D01*
G75*
G02*
X92537000Y-80008000I0J150000D01*
G01*
X92537000Y-78558000D01*
G75*
G02*
X92687000Y-78408000I150000J0D01*
G01*
G37*
G36*
G01*
X93957000Y-78408000D02*
X94257000Y-78408000D01*
G75*
G02*
X94407000Y-78558000I0J-150000D01*
G01*
X94407000Y-80008000D01*
G75*
G02*
X94257000Y-80158000I-150000J0D01*
G01*
X93957000Y-80158000D01*
G75*
G02*
X93807000Y-80008000I0J150000D01*
G01*
X93807000Y-78558000D01*
G75*
G02*
X93957000Y-78408000I150000J0D01*
G01*
G37*
G36*
G01*
X95227000Y-78408000D02*
X95527000Y-78408000D01*
G75*
G02*
X95677000Y-78558000I0J-150000D01*
G01*
X95677000Y-80008000D01*
G75*
G02*
X95527000Y-80158000I-150000J0D01*
G01*
X95227000Y-80158000D01*
G75*
G02*
X95077000Y-80008000I0J150000D01*
G01*
X95077000Y-78558000D01*
G75*
G02*
X95227000Y-78408000I150000J0D01*
G01*
G37*
G36*
G01*
X96497000Y-78408000D02*
X96797000Y-78408000D01*
G75*
G02*
X96947000Y-78558000I0J-150000D01*
G01*
X96947000Y-80008000D01*
G75*
G02*
X96797000Y-80158000I-150000J0D01*
G01*
X96497000Y-80158000D01*
G75*
G02*
X96347000Y-80008000I0J150000D01*
G01*
X96347000Y-78558000D01*
G75*
G02*
X96497000Y-78408000I150000J0D01*
G01*
G37*
D12*
X92202000Y-90551000D03*
X92202000Y-86351000D03*
X94742000Y-90551000D03*
X89662000Y-90551000D03*
X89662000Y-86351000D03*
X94742000Y-86351000D03*
M02*
